<?xml version="1.0" encoding="utf-8"?>
<!-- Generator: Adobe Illustrator 16.0.0, SVG Export Plug-In . SVG Version: 6.00 Build 0)  -->
<!DOCTYPE svg PUBLIC "-//W3C//DTD SVG 1.1//EN" "http://www.w3.org/Graphics/SVG/1.1/DTD/svg11.dtd">
<svg version="1.1" id="Layer_1" xmlns="http://www.w3.org/2000/svg" xmlns:xlink="http://www.w3.org/1999/xlink" x="0px" y="0px"
	 width="200px" height="192.334px" viewBox="0 0 200 192.334" enable-background="new 0 0 200 192.334" xml:space="preserve">
<ellipse fill-opacity="0.65" cx="103.5" cy="184.334" rx="51" ry="8"/>
<path fill="#A75214" d="M146,7.249c-7.744-4.195-25.334,1.248-25.334,1.248c-10.166-5.5-30.333-5.333-40.5-0.165
	c0,0-22.583-6.531-25.697-1.49C50.667,12.998,59.5,29,59.5,29C44.208,89.009,64.333,189.676,80,188.998
	C91.059,188.521,100,152,98.5,127c4,2,4.5,1.5,9.5-0.5c1.5,14.5,2.667,62.036,20,62.165c10.857,0.081,15.564-28.41,17.5-61.665
	c2.134-36.678-0.518-78.658-7-95C144.111,22.826,152,10.499,146,7.249z"/>
<path fill="#F58534" d="M120.667,13.665c-4.888-2.616-10.688-3.851-16.667-4.113v7.111c22.5-3.379,16.875,6.466,0,2.939l0.063,4.115
	c17.438-2.645,22.313,5.437-0.063,2.792v5.29c24.125-6.466,27.125,6.907,0,2.939v5.438c19.625-3.968,23.25,5.028,0,4l-0.125,6.351
	c18.75-5.437,28,7.265,0.125,3.591L102.49,66c-1.49,0.875-3.115,1-4.561,0L96.45,54.116c-27.875,3.674-18.61-9.092,0.14-3.655
	l-0.357-6.319C72.982,45.171,77,36.208,96,40.175v-5.438c-27,3.968-24-9.405,0-2.939v-5.29c-22,2.645-17.26-5.437,0.178-2.792
	l-0.058-4.115C79.245,23.129,74,13.284,96,16.663V9.752c-5.861,0.529-11.589,1.83-16.5,3.579
	c-38,15.168-12.98,148.395-7.674,159.564c-0.077-0.25,16.688-1.262,16.674-1.146c0,0,9-34.25,4.5-55.25l19.5,0.5
	c-1,17.5,0,36.5,7,58l15.879-0.104C135.379,174.896,157,45.998,120.667,13.665z"/>
<path fill="#A75214" d="M137.189,26.846c0.008-0.004,0.013-0.009,0.021-0.012l-3.591-6.285c-0.023-0.031-0.047-0.062-0.068-0.093
	L137.189,26.846z"/>
<path fill="#FDB660" d="M71.826,172.896c0,0,4.109,9.832,7.924,10.104c3.5,0.25,8.657-10.44,8.75-11.25
	C88.5,171.75,79.5,169.667,71.826,172.896z"/>
<path fill="#F58534" d="M58.106,9.877c-0.865,4.679-1.439,7.123,4.068,14.891C68,13.667,75.667,10.665,75.667,10.665
	S58.866,5.767,58.106,9.877z"/>
<path fill="#FDB660" d="M119.5,175c-0.234-0.433,2.191,9.464,7.955,10c5.378,0.5,7.618-9.104,7.924-10.104
	C135.456,174.646,121.593,173.565,119.5,175z"/>
<path fill="#F58534" d="M144.275,10.71c-0.789-4.111-19.942,0.121-19.942,0.121c0.416,0.776,4.239,2.897,9.218,9.625
	c0.022,0.031,0.045,0.062,0.068,0.093c1.389,1.885,2.861,4.107,4.381,6.784C143,21.333,145.175,15.39,144.275,10.71z"/>
<path fill="#A75214" d="M144,35.5c1.197-7.994-12.759-14.821-31.111-14.821c-4.5,0-19.693-1.192-37.391,13.156
	C58.775,47.393,73.334,83,83.667,102c-0.333,18.334,33.196,15.103,37,2.666C125,90.5,107.5,81.5,107.5,81.5
	c-9-7.5-23.167-30.167,5.389-37.971C121.266,41.241,141.923,49.349,144,35.5z"/>
<path fill="#F58534" d="M115.102,24.514c-4.23-0.059-16.436-2.514-34.439,10.598c-20.276,14.768,3.741,53.193,8.301,69.538
	c-1.277,9.537,8.329,17.896,14.037,18.018c5.699,0.119,14.667-7.334,14-18c0.113-8.145-3.078-13.439-7.34-15.994
	c0.001,0,0.007-0.007,0.007-0.007c-0.046-0.025-0.093-0.054-0.14-0.079c-0.023-0.014-0.049-0.028-0.071-0.042
	c-18.997-10.554-35.582-55.85,20.442-48.229c3.897,0.199,9.447-0.053,10.102-4.317C141.175,28.362,127.391,24.687,115.102,24.514z"
	/>
<path fill="#F58534" d="M-132.566,146.494"/>
<ellipse fill="#FDB660" cx="104.333" cy="107" rx="3.333" ry="4"/>
</svg>
