<?xml version="1.0" encoding="utf-8"?>
<!-- Generator: Adobe Illustrator 16.0.0, SVG Export Plug-In . SVG Version: 6.00 Build 0)  -->
<!DOCTYPE svg PUBLIC "-//W3C//DTD SVG 1.1//EN" "http://www.w3.org/Graphics/SVG/1.1/DTD/svg11.dtd">
<svg version="1.1" id="Layer_1" xmlns="http://www.w3.org/2000/svg" xmlns:xlink="http://www.w3.org/1999/xlink" x="0px" y="0px"
	 width="200px" height="192.334px" viewBox="0 0 200 192.334" enable-background="new 0 0 200 192.334" xml:space="preserve">
<ellipse fill-opacity="0.65" cx="100.25" cy="184.334" rx="95.25" ry="8"/>
<path fill="#A75214" d="M22.892,131.074c0,0,2.424,28.735,1.386,31.504c-0.853,2.271-3.771,8.498-3.636,12.291
	c0.173,4.841,2.864,7.933,5.366,8.137c16.965,1.386,28.907-24.235,28.907-24.235c3.635,3.809,1.355,28.268,15.234,27.869
	c12.119-0.345,12.854-17.093,12.854-17.093c30.295,3.375,42.194-0.39,42.194-0.39s-5.02,6.751-3.98,12.638
	c0.467,2.644,2.416,5.722,4.327,6.401c16.965,6.061,26.14-19.99,37.563-29.687c0,0,5.02,5.019,5.193,10.388
	c0,0-0.359,5.834-0.52,8.31c-0.348,5.362,7.789,8.828,13.242,3.635c20.26-19.296,15.619-54.437,15.028-59.499
	c-2.104-18.087-11.827-39.432-11.827-39.432c-0.689-10.732,5.543-43.969-20.08-64.742c-17.695-14.348-32.89-13.156-37.389-13.156
	c-18.354,0-28.896,7.24-27.698,15.233c2.077,13.849,19.04,6.959,27.698,7.617c27.35,2.077,32.544,16.965,32.543,22.504
	c-0.001,6.273-7.271,18.349-19.386,15.925c-13.904-2.78-33.585-5.886-50.894-24.927c5.02-12.29,6.013-15.814,4.155-20.773
	c-2.079-5.548-18.352-1.039-18.352-1.039s-5.538-2.768-9.003-2.77c-3.46-0.002-8.307,2.424-8.307,2.424s-5.195-5.886-10.389-5.54
	c-6.646,0.442-10.384,4.852-10.384,4.852s-5.713-2.253-9.522-1.56c-5.18,0.942-9.867,4.326-9.867,4.326s-3.792-2.642-8.308-2.078
	c-5.542,0.692-5.736,2.061-5.887,3.808c-0.266,3.104-0.578,9.402,0,12.464c0.503,2.663,1.386,6.232,4.849,9.695
	c-2.079,7.271-6.382,7.989-5.023,34.275C4.196,101.905,22.892,131.074,22.892,131.074z"/>
<g>
	<polygon fill="#F58534" points="48.211,39.574 48.213,38.755 48.354,38.783 	"/>
	<path fill="#F58534" d="M18.218,36.21c9.694-0.864,17.484-3.461,20.253-9.692c2.05,0.608,3.881,1.236,5.506,1.432l-0.014,7.435
		l-26.22,4.257l0.07,2.461l22.342-3.488L14.19,48.442l0.606,2.529l29.155-10.772L43.924,54h4.242l0.038-12.632l30.401,9.636
		l0.738-2.49l-28.261-9.186l26.382,5.195l0.311-2.707l-29.553-6.019l0.024-7.704c4.173-0.271,6.063-1.88,6.063-1.88
		s8.05,13.957,23.109,8.763c6.232,8.309,10.104,10.973,12.267,13.063c-6.554,11.54,1.236,9.462,4.006,3.754
		c1.724,1.606,3.664,3.083,5.756,4.441c0.494,0.321-2.337,1.595-4.025,5.25c-1.038,2.25-0.519,11.077,5.021,5.02
		c0.545-0.597,1.384-1.559,3.687-7.545c1.544,0.809,3.138,1.561,4.755,2.267l-2.644,6.922c-4.894,16.741,8.215,4.233,7.161-5.093
		c1.914,0.717,3.834,1.373,5.729,1.967l-2.504,6.761c-3.361,21.467,8.855,4.551,7.413-5.333c3.739,1.007,7.907,1.958,7.907,1.958
		l-1.456,6.767c-2.788,22.184,6.467,1.501,6.776-5.846c2.154,0.345,4.15,0.478,5.992,0.424l0.631,5.926
		c4.146,20.725,8.805,3.068,4.186-6.555c2.635-0.616,4.871-1.635,6.75-2.918l3.347,5.578c6.45,11.352,13.009,3.728,0.354-8.852
		c1.328-1.523,2.353-3.147,3.113-4.738l5.357,2.636c6.926,0.816,9.768-4.993-3.669-7.888c0.063-0.41,0.104-0.799,0.122-1.152
		c0.082-1.688-0.028-3.35-0.309-4.976l3.598-0.909c6.334-4.108,0.82-7.442-4.995-3.836c-0.69-1.641-1.588-3.222-2.702-4.722
		l2.678-2.176c5.713-7.616-1.904-8.309-5.886-1.384l-5.063-3.809l1.429-2.986c1.194-6.031-5.878-3.406-5.581,0.832
		c-2.078-0.936-6.189-2.346-6.189-2.346l0.172-3.289c-0.676-3.895-4.451-2.933-5.103,2.135c-2.774-0.569-7.707-1.226-7.707-1.226
		l0.13-1.818c-0.173-4.674-6.473-5.617-5.712,1.688c0,0-3.724,0.405-5.985,0.725l-0.766-2.802c-0.512-2.211-5.643-3.067-4.715,3.426
		c-3.898,0.199-6.705-0.633-7.36-4.897c-1.174-7.638,9.867-10.733,22.158-10.906c4.229-0.059,19.636-0.446,34.438,10.598
		c23.379,17.445,20.264,52.409,19.57,63.661c0,0,10.105,20.582,12.246,38.069c0.614,5.023,5.237,36.886-13.979,55.064
		c-3.901,3.692-5.033-0.937-5.188-3.464c-0.146-2.364-0.092-3.358-0.004-5.362c0.165-3.808-6.579-12.983-6.579-12.983
		c15.927-13.676,17.724-31.765,17.345-32.197c-0.347-0.395-2.283,1.353-2.564,1.039c-0.712-0.793-3.354,17.828-18.066,29.082
		c-5.539,2.942-20.086,32.217-30.813,29.602c-1.564-0.382-7.271,0.221-7.271-3.291c0-3.639,17.916-28.605,3.636-48.643l-3.636,1.039
		c9.867,13.112,2.337,32.717,2.337,32.717c-14.15,4.545-43.883,0.521-43.883,0.521c0.52-23.889-2.856-32.458-2.856-32.458
		l-4.154-1.298c0,0,7.98,45.524-2.337,46.999l-9.522-1.475c-0.633-0.743-1.209-6.748-4.152-15.924
		c-0.694-2.25-16.187-30.035-17.744-32.457c-0.55-0.854-3.031-0.781-4.242,0.604c2.25,8.827,15.537,26.896,15.537,26.896
		L34.836,139.21c0,0-24.755-29.428-27.696-60.942C4.801,53.202,16.832,37.942,18.218,36.21z"/>
</g>
<path fill="#FDB660" d="M83.133,163.964c0,0,27.266,4.154,43.883-0.52c2.077-6.752,6.231-19.215,0-29.082
	c-7.011,2.597-25.967,4.934-45.439,0.26C84.172,147.604,83.133,163.964,83.133,163.964z"/>
<path fill="#FDB660" d="M64.093,176.083c2.337,7.011,7.615,8.135,11.77,0.863c1.006-1.76,2.077-5.452,2.077-5.452
	c-1.038-2.077-14.888-1.3-14.888-1.3S63.496,174.294,64.093,176.083z"/>
<path fill="#F58534" d="M27.738,136.094c0,0,1.844,24.349,0.866,26.998c-0.8,2.171-2.66,8.335-3.809,11.777l13.675-1.298
	c7.79-6.146,12.464-16.187,12.464-16.187S35.702,149.423,27.738,136.094z"/>
<path fill="#FDB660" d="M24.969,175.39c1.039,3.896,3.063,3.729,5.713,3.375c3.895-0.52,7.789-5.192,7.789-5.192
	c-0.778-4.675-11.252-6.317-11.252-6.317S24.481,173.567,24.969,175.39z"/>
<path fill="#FDB660" d="M22.892,120.341c9.088,21.813,30.77,34.512,30.77,34.512s-17.527-25.424-20.124-41.263
	C30.162,105.8,14.582,99.827,22.892,120.341z"/>
<path fill="#502C11" d="M45.482,93.336c-11.686,0-18.668-10.39-18.437-18.695c0.347-12.464,7.272-34.91,19.215-35.314
	c10.214-0.346,18.523,19.734,18.523,34.275C64.784,82.43,59.764,93.336,45.482,93.336z"/>
<path fill="#FDB660" d="M124.505,180.063c-0.26,4.934,5.315,5.563,7.963,5.192c5.183-0.726,15.58-15.062,15.58-15.062
	c-12.983,5.714-21.552,3.117-21.552,3.117S124.604,178.179,124.505,180.063z"/>
<path fill="#FDB660" d="M171.764,175.908c0,2.337,1.603,3.636,4.328,2.597c4.891-1.861,11.426-16.617,11.426-16.617
	c-10.215,8.653-14.715,6.926-14.715,6.926S171.764,174.021,171.764,175.908z"/>
<path fill="#F58534" d="M77.68,21.929c0,0,11.099-3.163,11.858,0.948c0.865,4.679-0.173,7.103-4.068,14.891l-4.674-5.712
	C81.147,25.125,77.68,21.929,77.68,21.929z"/>
<path fill="#F58534" d="M10.428,39.846c-2.769-1.383-3.808-4.324-4.154-6.057c-0.585-2.92-0.25-6.727,0-9.696
	c0.142-1.671,3.162-3.438,8.309-0.865c-3.115,4.154,0,9.348,0,9.348L10.428,39.846z"/>
<path fill="#FFFFFF" d="M57.86,22.882c0.689,4.674,5.871,7.812,8.479,8.483c2.504,0.643,9.697,1.558,10.216-3.118
	c0.408-3.677-5.712-7.443-5.712-7.443c-1.992,7.617-9.003,2.164-6.751-1.558C64.093,19.246,57.479,20.313,57.86,22.882z"/>
<path fill="#FFFFFF" d="M17.354,27.901c0.17,8.136,17.827,2.077,18.002-4.674c0.095-3.698-4.155-3.375-4.155-3.375
	c-1.558,7.271-8.049,4.674-6.406,0.259C24.794,20.111,17.242,22.664,17.354,27.901z"/>
<path fill="#FDB660" d="M63.398,61.831c0.694-26.313-15.232-32.025-15.232-32.025l0.172,9.695
	C48.338,39.5,57.599,41.144,63.398,61.831z"/>
<path fill="#FDB660" d="M29.036,61.313C28.3,35.26,43.924,30.108,43.924,30.108l-0.26,9.565
	C43.664,39.673,35.615,40.54,29.036,61.313z"/>
<ellipse fill="#FFFFFF" cx="47.04" cy="18.294" rx="3.895" ry="2.337"/>
<path fill="#C2053C" d="M33.623,82.43c0,3.346,5.676,8.656,12.464,8.656c6.789,0,12.118-5.31,12.118-8.656
	c0-3.347-4.154-4.674-6.06-4.674c-0.886,0-3.742,0.133-5.021,0.866c-1.275,0.733-0.974,2.067-1.902,2.077
	c-0.82,0.008,0.187-1.415-1.386-2.077c-1.203-0.507-4.067-0.843-5.193-0.693C35.282,78.379,33.623,80.639,33.623,82.43z"/>
<path fill="#FFFFFF" d="M41.587,50c-0.866-4,9.521-4.298,8.829,0.029l2.941-0.101C50.675,39.282,41.067,39,38.816,50H41.587z"/>
<path fill="#FFFFFF" d="M39.77,84.507c1.168,3.505,12.464,2.986,12.594,0.26l3.635,0.13c-1.298,8.309-19.475,8.439-19.475-0.649
	L39.77,84.507z"/>
<path fill="#FDB660" d="M80.796,32.056c0,0,1.507,2.199,2.163,1.905c1.832-0.82,4.087-7.166,2.251-9.002
	c-0.734-0.734-5.388,0.411-5.388,0.411S81.12,28.421,80.796,32.056z"/>
<path fill="#FDB660" d="M14.582,32.575c0,0-2.424,4.501-4.349,2.337c-1.335-1.501-3.005-8.161-1.169-9.997
	c0.734-0.734,4.284,0.52,4.284,0.52S12.57,29.654,14.582,32.575z"/>
</svg>
