<?xml version="1.0" encoding="utf-8"?>
<!-- Generator: Adobe Illustrator 16.0.0, SVG Export Plug-In . SVG Version: 6.00 Build 0)  -->
<!DOCTYPE svg PUBLIC "-//W3C//DTD SVG 1.1//EN" "http://www.w3.org/Graphics/SVG/1.1/DTD/svg11.dtd">
<svg version="1.1" id="Layer_1" xmlns="http://www.w3.org/2000/svg" xmlns:xlink="http://www.w3.org/1999/xlink" x="0px" y="0px"
	 width="200px" height="192.334px" viewBox="0 0 200 192.334" enable-background="new 0 0 200 192.334" xml:space="preserve">
<ellipse fill-opacity="0.65" cx="104.75" cy="184.334" rx="51" ry="8"/>
<g>
	<path fill="#666666" d="M137.5,129.334c-4.395,6.979-6.607,40.56-4.333,45c10.501,20.498-12.417,19.333-17.417,9.083
		c-4.195-8.602-5.766-25.023-6.68-37.014c-0.445-5.861-1.239-6.992-2.07-6.736c-3.633,1.118-4.486,0.703-8,0
		c-0.829-0.166-2.856,2.643-2.625,7c0.75,14.125-0.9,40.475-19.875,42.666c-2.502-0.205-5.16-3.16-5.333-8
		c-0.136-3.793,2.813-10.396,3.667-12.666c1.038-2.77,0.526-30.82-2-39.666C72,126.081,45.5,85.334,63.499,33.771
		c-5.375-0.875-13.5-6.75-12-12.957c1.232-5.099,9.923-14.378,15.167-14.5C73.874,6.146,79.75,12,79.75,12
		c15.25-3.25,19.5,2.875,21.75,2.75s7.5-4.083,20.25-3c0,0,7.355-4.702,13.084-5.083c7.5-0.5,18.3,14.252,16.333,19.333
		c-2,5.167-8,7.667-12.459,9.292C156.167,75.667,143.167,120.335,137.5,129.334z"/>
	<path fill="#999999" d="M64.248,29.906c1.257-0.124,3.501-4.826,6.252-8.405c2.542-3.308,5.66-5.466,5.5-6.667
		c-0.424-3.178-5.306-5.98-9.833-5.333c-3.5,0.5-12.708,10.063-11.5,13.667C55.962,27.036,60.186,30.307,64.248,29.906z"/>
</g>
<path fill="#999999" d="M119.832,16.333c-4.996-4.048-13.336,2.266-18.5,2.5C97.667,19,88.139,13.24,82,16.167
	c-17.833,8.5-32.5,60.167-6.5,109.167c4.108,7.742,2.925,41.635,2.333,43.334c-0.93,2.668-4.813,13.61-3.667,14.666
	c4.636,4.271,6.169,1.515,8.501,0.5c11.5-5,10.499-29.666,10.249-35.166c-0.251-5.519,2.848-14.408,4-14
	c4.25,1.5,5.75,2.5,10.75,0.25c5.383-2.422,4.125,8.625,4.5,15.25c0.545,9.619,5.633,30.808,6.266,31.551
	c0,0,8.191,6.324,10.859,3.324c2.254-2.535,1.34-5.324,0.393-9.644c-2.164-9.862-0.336-40.56,3.814-48.065
	C149.166,99.001,146.166,37.667,119.832,16.333z M90.289,84.166c-2.603,0-2.876-0.989-2.876-2.436s-0.686-3.897,1.917-3.897
	s5.671,2.269,5.671,3.714C95.001,82.994,92.891,84.166,90.289,84.166z M95.166,64.667c0,3.958-3.57,2.999-9,2.999s-6-2.708-6-6.666
	S87.069,50.667,92.5,50.667S95.166,60.708,95.166,64.667z M98.833,37.333c-4.418,0-8-2.985-8-6.667s-0.418-7.333,4-7.333
	c4.419,0,6.667,3.652,6.667,7.333C101.5,34.349,103.252,37.333,98.833,37.333z M111.498,44.333c-5.43,0-6-2.708-6-6.666
	s-1.43-10.667,4-10.667c5.432,0,11.834,6.208,11.834,10.167S116.93,44.333,111.498,44.333z M118.166,73.666c-5.43,0-6-2.708-6-6.666
	s2.902-13,8.332-13c5.432,0,10.334,6.709,10.334,10.667C130.832,68.624,123.598,73.666,118.166,73.666z"/>
<path fill="#999999" d="M147.398,24c1.207-3.604-8.002-13.167-11.502-13.667c-4.526-0.647-9.408,2.155-9.832,5.333
	c-0.16,1.201,2.957,3.359,5.5,6.667c2.75,3.58,4.994,8.281,6.252,8.405C141.879,31.14,146.102,27.869,147.398,24z"/>
<g>
	<path fill="#666666" d="M92.499,98.584c29.834-5.167,7.125-47.934-11.348-51.333c-27.167-5-26.5,13-37,6.833
		c-6.996-4.109-0.167-19.917,23.833-22.333c4.478-0.451,20.219-1.015,37.917,13.333c25.621,20.773,15.601,47.25,16.934,66.916
		c0.301,4.435-7.75,15.167-7.75,15.167l-21.75-7.5C93.333,119.667,87.302,99.483,92.499,98.584z"/>
	<g>
		<path fill="#999999" d="M121.063,110.69c-3.854-22.523,5.59-45.356-19.66-63.606c-10.137-7.327-22.25-11.917-29.75-11.167
			c1.306,0.684,4.75,3.59,4.75,4.667c0,0.623-3.101,1.317-3.584,1.833c37.516,1.25,51.683,56.917,22.516,59.25
			c-3.784,0.303-5.498,10.393-4.5,14.5c1.702,7.008,19.203,16.023,25.75,13C120.898,127.174,121.863,115.376,121.063,110.69z"/>
		<path fill="#999999" d="M68.901,40.084c0,0.393-2.059,1.811-2.25,2.167c-16.917,1.671-15,12.162-20.334,7.833
			c-4.286-3.479,11.917-14.745,18.834-13.333c0.18,0.037,2.28,1.334,2.5,1.333C67.808,38.755,68.901,38.776,68.901,40.084z"/>
	</g>
</g>
<path fill="#BBBBBB" d="M75.908,174.067c0,0,10.474,1.644,11.251,6.316c0,0-3.894,4.674-7.789,5.192
	c-2.65,0.354-4.674,0.521-5.713-3.375C73.17,180.381,75.908,174.067,75.908,174.067z"/>
<path fill="#BBBBBB" d="M131.768,183.302c-1.039,3.896-3.063,3.729-5.713,3.375c-3.895-0.52-7.789-5.191-7.789-5.191
	c0.777-4.676,11.252-6.316,11.252-6.316S132.254,181.479,131.768,183.302z"/>
<ellipse fill="#BBBBBB" cx="103.167" cy="114.001" rx="2.667" ry="4.333"/>
</svg>
