<?xml version="1.0" encoding="utf-8"?>
<!-- Generator: Adobe Illustrator 16.0.0, SVG Export Plug-In . SVG Version: 6.00 Build 0)  -->
<!DOCTYPE svg PUBLIC "-//W3C//DTD SVG 1.1//EN" "http://www.w3.org/Graphics/SVG/1.1/DTD/svg11.dtd">
<svg version="1.1" id="Layer_1" xmlns="http://www.w3.org/2000/svg" xmlns:xlink="http://www.w3.org/1999/xlink" x="0px" y="0px"
	 width="200px" height="192.334px" viewBox="0 0 200 192.334" enable-background="new 0 0 200 192.334" xml:space="preserve">
<ellipse fill-opacity="0.65" cx="102.75" cy="184.334" rx="51" ry="8"/>
<g>
	<path fill="#666666" d="M106.666,68.584c30.25-3,7.125-47.934-11.348-51.333c-27.167-5-26.5,13-37,6.833
		C51.322,19.975,58.151,4.167,82.151,1.75c4.478-0.451,20.219-1.015,37.917,13.333c25.621,20.773,16.847,50.757,19.348,67.5
		L106.666,68.584z"/>
	<g>
		<path fill="#999999" d="M135.229,80.69c-3.109-16.351,5.59-45.356-19.66-63.606c-10.137-7.327-22.25-11.917-29.75-11.167
			c1.306,0.684,4.75,3.59,4.75,4.667c0,0.623-3.101,1.317-3.584,1.833c11.5-2,21.494,6.349,26.583,10.667
			c3.84,0.717,7.75,0.302,7.75,3c0,1.121-1.787,1.647-2.5,2.5c0.353,0.503-1.391,1-1,1c2.25,0,20.099,40.75-6.25,41"/>
		<path fill="#999999" d="M83.068,10.084c0,0.393-2.059,1.811-2.25,2.167c-16.917,1.671-15,12.162-20.334,7.833
			C56.198,16.605,72.401,5.339,79.318,6.75c0.18,0.037,2.28,1.334,2.5,1.333C81.975,8.755,83.068,8.776,83.068,10.084z"/>
	</g>
</g>
<g>
	<path fill="#666666" d="M138.764,132.668c-3.43,7.499-10.205,31.892-7.93,36.332c10.501,20.498-5.667,20.167-10.668,18.336
		c-14.387-5.269-11.588-39.338-17.666-39.336c-3.931,0.001-3.001,45.479-26.138,42.151c-2.502-0.204-5.193-3.297-5.366-8.137
		c-0.136-3.793,2.782-10.021,3.636-12.291c1.038-2.77,1.728-26.211-0.798-35.058C73,131.748,47.833,96,61.499,65.563
		c-1.5-0.219-3.922-1.146-4.305-3.499c-0.57-3.501,2.055-7.751,6.305-11.626c-5.375-0.875-13.5-6.75-12-12.957
		c1.232-5.099,9.923-14.378,15.167-14.5c7.208-0.168,9.583,6.582,9.583,6.582s5.083-6.916,15.25-3.416
		c6.938-7.834,13.688-7.834,19,2.665c11-7.162,16,2.333,16,2.333s2.187-6.966,7.833-7.999c4.13-0.755,16.289,13.157,17.167,15.5
		c1.858,4.959-5.541,12.063-12.791,13.313c0,0,6.937,8.855,6.056,11.709c-0.408,1.326-4.666,3-4.666,3
		C155.5,96.167,140.242,129.435,138.764,132.668z"/>
	<polygon fill="#F58534" points="98.709,45.929 98.567,45.9 98.565,46.72 	"/>
	<path fill="#999999" d="M127.332,42.435c-1,3.667-3.833,6,4.5,7.167c4.529,0.634,16.699-4.487,15.834-9.167
		c-0.759-4.111-8.715-13.688-13.167-12.667C130.521,28.68,128.406,38.498,127.332,42.435z"/>
	<path fill="#FFFFFF" d="M117.029,28.767c-4.613,3.091,4.887,9.091,4.589,1.059c0,0,4.88,2.505,2.964,6.032
		c-1.964,3.615-6.041,3.289-8.708,1.955c-2.688-1.344-4.116-3.547-3.08-6.575C113.624,28.813,117.029,28.767,117.029,28.767z"/>
	<path fill="#BBBBBB" d="M107.833,29.48c0,1.165-4.211,8.311-6.624,7.333c-0.772-0.313,0.623-3.33-0.626-3.001
		c-1.06,0.279,0.599,3.264-1.021,3.125c-2.698-0.23-5.896-7.161-5.896-8.291c0-1.291,5.348-5.331,7.5-5.331
		C103.316,23.316,107.833,28.189,107.833,29.48z"/>
	<g>
		<path fill="#999999" d="M143,90.833c-8.833-0.668-11.236-5.39-11.236-10.499s9.577-0.461,10.236-0.418c0,0-3.141-10.235-5.5-11.5
			c-2.18-1.168-15.126,0.271-24.251-2.354c0.501,8.354-7.083,6.25-12.25,6.417c-7.605,0.246-10.999-1.313-9.625-8.792
			c-16.75,4.875-23.613-0.673-25.375,3.958C53.833,97,73.958,125.958,76.097,129.667c4.378,7.593,3.592,37.301,3,39
			c-0.93,2.669-5.094,12.291-3.947,13.348c4.636,4.271,10.72,1.116,12.518-0.682c5.332-5.333,9.125-40.27,13.764-43.665
			c5.109-3.74,9.235,23.166,10.402,29.332c1.792,9.468,4.132,11.976,4.766,12.718c0,0,10.566,5.618,13.233,2.618
			c2.254-2.535-1.981-8.937-2.931-13.254c-2.162-9.863,4.765-31.582,8.932-39.082C140.509,121.585,145.5,101.667,143,90.833z
			 M120.749,111.563c0-2.071,3.901-7.25,6.25-7.25s2.25,5.179,2.25,7.25c0,2.07-1.901,3.75-4.25,3.75
			S120.749,113.634,120.749,111.563z"/>
	</g>
	<path fill="#BBBBBB" d="M77.074,174.233c0,0,10.474,1.644,11.251,6.317c0,0-3.894,4.673-7.789,5.192
		c-2.65,0.354-4.674,0.521-5.713-3.375C74.336,180.547,77.074,174.233,77.074,174.233z"/>
	<path fill="#C2053C" d="M95.552,61.954c0.796-0.189,2.824,0.234,3.675,0.872c1.113,0.833,0.4,2.623,0.981,2.613
		c0.655-0.013,0.442-1.691,1.347-2.613c0.903-0.922,2.926-1.09,3.553-1.09c1.349,0,4.869,1.711,4.287,5.881
		c-1.74,12.458,3.051,20.53-0.074,24.201c-5,5.871-14.167,4.823-17.292,0.209c-3.457-5.104,2.083-10.274-0.028-24.41
		C91.667,65.388,93.174,62.519,95.552,61.954z"/>
	<path fill="#666666" d="M91.499,26.147"/>
	<path fill="#999999" d="M68.056,26.143c-4.452-1.021-12.408,8.556-13.167,12.667c-0.865,4.679,11.305,9.801,15.834,9.167
		c8.333-1.167,5.5-3.5,4.5-7.167C74.148,36.873,72.034,27.055,68.056,26.143z"/>
	<path fill="#FFFFFF" d="M90.938,29.696c1.036,3.027-0.393,5.231-3.08,6.575c-2.667,1.333-6.744,1.66-8.708-1.955
		c-1.916-3.527,2.964-6.032,2.964-6.032c-0.298,8.032,9.202,2.032,4.589-1.059C86.703,27.225,90.108,27.271,90.938,29.696z"/>
	<path fill="#BBBBBB" d="M98.312,57.282c3.229-4.108,1.675-16.928-5.313-21.97c-4.25,4.375-7.5,6.333-15,3.5
		c6.5,15.667-8.23,10.147-11.5,13c-2.096,1.828-6.809,7.213-5.5,9.667C62.332,63.979,93.832,62.979,98.312,57.282z"/>
	<path fill="#BBBBBB" d="M140.695,63.146c1.31-2.453-3.403-7.839-5.5-9.667c-3.27-2.853-18,2.667-11.5-13
		c-7.5,2.833-10.75,0.875-15-3.5c-6.987,5.042-8.542,17.862-5.313,21.97C107.861,64.646,139.361,65.646,140.695,63.146z"/>
	<path fill="#BBBBBB" d="M130.102,181.535c-1.039,3.896-3.063,3.729-5.713,3.375c-3.896-0.521-7.789-5.192-7.789-5.192
		c0.776-4.675,11.252-6.316,11.252-6.316S130.587,179.713,130.102,181.535z"/>
</g>
</svg>
