<?xml version="1.0" encoding="utf-8"?>
<!-- Generator: Adobe Illustrator 16.0.0, SVG Export Plug-In . SVG Version: 6.00 Build 0)  -->
<!DOCTYPE svg PUBLIC "-//W3C//DTD SVG 1.1//EN" "http://www.w3.org/Graphics/SVG/1.1/DTD/svg11.dtd">
<svg version="1.1" id="Layer_1" xmlns="http://www.w3.org/2000/svg" xmlns:xlink="http://www.w3.org/1999/xlink" x="0px" y="0px"
	 width="200px" height="192.334px" viewBox="0 0 200 192.334" enable-background="new 0 0 200 192.334" xml:space="preserve">
<ellipse fill-opacity="0.65" cx="100.25" cy="183.167" rx="95.25" ry="8"/>
<path fill="#666666" d="M172.5,118.332c0,0,1.829,41.478,2.867,44.246c0.854,2.271,3.771,8.498,3.636,12.291
	c-0.173,4.841-2.864,7.933-5.366,8.137c-23.137,3.328-22.803-37.339-22.803-37.339c-1.505,1.577-6.148,10.279-8,15.667
	c-2.584,7.521-4.141,24.754-12.271,24.521c-14.813-1.188-12.063-47.188-12.063-47.188c-16.666,12-36.333-5-46.667-4
	c-7.667,20,7.633,41.241,6.595,47.128c-0.467,2.644-2.416,5.722-4.327,6.401c-16.965,6.061-26.14-19.99-37.564-29.688
	c0,0-5.019,5.02-5.193,10.389c0,0,0.359,5.834,0.52,8.31c0.347,5.362-7.79,8.828-13.243,3.635
	C-1.64,161.546,3.001,126.406,3.59,121.343c2.106-18.087,10.308-29.252,11.828-39.432c2.5-16.743-5.789-43.971,19.832-64.744
	C52.948,2.819,68.689,3.383,73.167,3.833c24,2.417,30.829,18.225,23.833,22.333c-10.5,6.167-9.833-11.833-37-6.833
	c-18.473,3.4-30.667,30.5-28.25,39.708c2.913,11.101,58.083,5.125,75.583-15.208c-7-3-10.692-7.375-8.833-12.333
	c0.878-2.343,13.037-16.255,17.167-15.5c5.647,1.033,7.833,8,7.833,8s5-9.495,16-2.333c5.313-10.499,12.063-10.499,19-2.665
	c10.167-3.5,15.25,3.416,15.25,3.416s2.375-6.75,9.583-6.582c5.244,0.122,13.935,9.401,15.167,14.5
	c1.5,6.207-6.625,12.082-12,12.957c4.25,3.875,6.875,8.125,6.305,11.626c-0.383,2.353-2.805,3.28-4.305,3.499
	C201.75,95.417,172.5,118.332,172.5,118.332z"/>
<polygon fill="#F58534" points="151.434,39.574 151.432,38.755 151.29,38.783 "/>
<path fill="#999999" d="M168.833,122.001c0,0,1.229,38.441,2.207,41.091c0.8,2.171,2.66,8.335,3.81,11.777l-13.676-1.298
	c-6.674-9.154-6.674-33.237-6.674-33.237l5-9.833C159.5,130.501,162.499,127.001,168.833,122.001z"/>
<path fill="#999999" d="M115.5,20.623c-4.452-1.021-12.408,8.556-13.167,12.667c-0.865,4.679,11.306,9.801,15.834,9.167
	c8.333-1.167,5.5-3.5,4.5-7.167C121.593,31.353,119.479,21.535,115.5,20.623z"/>
<path fill="#FFFFFF" d="M137.205,24.092c1.036,3.027-0.393,5.231-3.08,6.575c-2.667,1.333-6.744,1.66-8.708-1.955
	c-1.916-3.527,2.964-6.032,2.964-6.032c-0.298,8.032,9.202,2.032,4.59-1.059C132.971,21.621,136.375,21.667,137.205,24.092z"/>
<path fill="#BBBBBB" d="M148.833,16.171c2.151,0,7.5,4.04,7.5,5.331c0,1.129-3.197,8.061-5.896,8.291
	c-1.621,0.138,0.037-2.846-1.021-3.125c-1.249-0.329,0.146,2.688-0.626,3.001c-2.413,0.978-6.624-6.168-6.624-7.333
	C142.166,21.044,146.684,16.171,148.833,16.171z"/>
<g>
	<path fill="#999999" d="M159.625,56.542c-1.625,1.792-2.02,9.038-9.625,8.792c-5.167-0.167-10,1.083-12.25-6.417
		c-9.125,2.625-12.125,3.375-17.5,1.25c-4.191-1.657-8.5-5.125-5.375-14.375c0.4-1.185-2.875-0.956-2.875-0.956
		c-3.857,5.144-5.125,4.956-6.521,6.902c0.658-0.043,1.33-0.071,2.021-0.071c7.316,0,7,6.392,7,11.5s-1.184,8.5-8.5,8.5
		c-7.318,0-11.5-7.392-11.5-12.5c0-0.002,0-0.004,0-0.007c-7.167,3.676-16.5,6.094-30.418,8.736
		c1.959,1.251,3.168,2.925,3.168,4.771c0,3.866-1.261,9.5-7.75,9.5s-15.75-5.634-15.75-9.5c0-0.891,0.291-1.74,0.8-2.523
		c-33.216-0.141-9.3-38.477-7.05-38.477c0.39,0-1.352-0.497-1-1c-0.712-0.853-2.5-1.379-2.5-2.5c0-2.698,3.911-2.283,7.75-3
		C46.84,20.85,56.833,12.5,68.333,14.5c-0.483-0.517-3.583-1.211-3.583-1.833c0-1.076,3.444-3.982,4.75-4.667
		C62,7.25,49.887,11.84,39.75,19.167C14.5,37.417,23.2,66.422,20.09,82.773c-1.868,9.821-10.105,20.582-12.246,38.069
		c-0.614,5.023-5.237,36.886,13.978,55.064c3.903,3.692,5.035-0.938,5.189-3.464c0.147-2.364,0.091-3.358,0.004-5.362
		c-0.165-3.808,6.579-12.983,6.579-12.983c-15.926-13.676-17.723-31.765-17.344-32.197c0.346-0.395,2.282,1.354,2.564,1.039
		c0.712-0.793,3.354,17.828,18.068,29.082c5.539,2.942,20.084,32.217,30.813,29.603c1.564-0.382,7.271,0.221,7.271-3.291
		c0-3.64-16.466-27.997-3.635-48.644c11.502,1.979,35.836,19.646,52.19,0.521c-1.688,11.791-3.688,29.791,2.338,46.999l9.521-1.476
		c0.634-0.742,1.209-6.748,4.151-15.924c0.693-2.25,16.003-30.164,17.744-32.457C160.333,123.334,200,98.501,185,60.5
		C183.182,55.892,176.375,61.417,159.625,56.542z M54,113.167c-5.799,0-12-9.393-12-14.5c0-5.108,6.201-7,12-7s10.5,4.142,10.5,9.25
		C64.5,106.024,59.799,113.167,54,113.167z M79,67.667c0-1.381,1.343-2.5,3-2.5s5.5-1.881,5.5-0.5s-3.843,5.5-5.5,5.5
		S79,69.048,79,67.667z M96.75,99.167c-7.318,0-13.75-7.339-13.75-13s7.682-10,15-10c7.316,0,11.5,12.839,11.5,18.5
		S104.066,99.167,96.75,99.167z M125,108.167c-2.348,0-4.25-1.68-4.25-3.75s-0.098-7.25,2.25-7.25s6.25,5.18,6.25,7.25
		S127.348,108.167,125,108.167z"/>
	<path fill="#999999" d="M72.25,12.167c0,0.393,2.059,1.811,2.25,2.167c16.917,1.671,15,12.162,20.333,7.833
		C99.12,18.688,82.917,7.422,76,8.833c-0.18,0.037-2.281,1.334-2.5,1.333C73.344,10.838,72.25,10.859,72.25,12.167z"/>
</g>
<path fill="#BBBBBB" d="M135.552,176.083c-2.337,7.011-5.536,8.396-9.692,1.125c-1.006-1.76-1.797-5.979-1.797-5.979
	c1.039-2.078,12.563-0.688,12.563-0.688S136.148,174.294,135.552,176.083z"/>
<path fill="#BBBBBB" d="M174.676,175.39c-1.039,3.896-3.063,3.729-5.713,3.375c-3.895-0.52-7.789-5.191-7.789-5.191
	c0.778-4.676,11.252-6.317,11.252-6.317S175.163,173.567,174.676,175.39z"/>
<path fill="#BBBBBB" d="M75.139,180.063c0.26,4.934-5.316,5.563-7.963,5.191c-5.182-0.727-15.58-15.063-15.58-15.063
	c12.983,5.715,21.552,3.117,21.552,3.117S75.04,178.179,75.139,180.063z"/>
<path fill="#BBBBBB" d="M27.881,175.908c0,2.337-1.602,3.636-4.328,2.597c-4.89-1.861-11.425-16.617-11.425-16.617
	c10.214,8.653,14.714,6.926,14.714,6.926S27.881,174.021,27.881,175.908z"/>
<path fill="#C2053C" d="M157.999,60.471c-2.11,14.136,3.429,19.307-0.028,24.41c-3.125,4.613-12.291,5.661-17.291-0.209
	c-3.125-3.67,1.666-11.742-0.074-24.201c-0.582-4.17,2.938-5.881,4.287-5.881c0.627,0,2.648,0.167,3.553,1.09
	c0.902,0.922,0.69,2.6,1.347,2.613c0.581,0.01-0.132-1.78,0.981-2.613c0.851-0.638,2.879-1.061,3.674-0.872
	C156.825,55.374,158.332,58.243,157.999,60.471z"/>
<path fill="#BBBBBB" d="M145.633,51.47c3.366-3.997,3.492-18.803-4.633-22.678c-4.25,4.375-7.875,6.375-15.5,5.75
	c2.102,3.242,2.375,10.5-7.75,10.625c-2.947,4.183-1.547,8.67-0.008,10.762C121.928,61.616,141.085,56.871,145.633,51.47z"/>
<path fill="#666666" d="M158.5,19.001"/>
<path fill="#999999" d="M174.775,33.665c-1,3.667-3.832,6,4.5,7.167c4.529,0.634,16.699-4.487,15.834-9.167
	c-0.758-4.111-8.715-13.688-13.166-12.667C177.965,19.91,175.852,29.728,174.775,33.665z"/>
<path fill="#FFFFFF" d="M163.296,20.08c-4.612,3.091,4.888,9.091,4.589,1.059c0,0,4.881,2.505,2.965,6.032
	c-1.965,3.615-6.041,3.289-8.709,1.955c-2.688-1.344-4.115-3.547-3.08-6.575C159.891,20.125,163.296,20.08,163.296,20.08z"/>
<path fill="#BBBBBB" d="M189,54.334c1.309-2.454-3.404-7.839-5.5-9.667c-3.27-2.853-18,2.667-11.5-13c-7.5,2.833-10.75,0.875-15-3.5
	c-6.986,5.042-8.542,17.862-5.313,21.97C156.167,55.834,187.667,56.834,189,54.334z"/>
</svg>
