<?xml version="1.0" encoding="utf-8"?>
<!-- Generator: Adobe Illustrator 16.0.0, SVG Export Plug-In . SVG Version: 6.00 Build 0)  -->
<!DOCTYPE svg PUBLIC "-//W3C//DTD SVG 1.1//EN" "http://www.w3.org/Graphics/SVG/1.1/DTD/svg11.dtd">
<svg version="1.1" id="Layer_1" xmlns="http://www.w3.org/2000/svg" xmlns:xlink="http://www.w3.org/1999/xlink" x="0px" y="0px"
	 width="200px" height="192.334px" viewBox="0 0 200 192.334" enable-background="new 0 0 200 192.334" xml:space="preserve">
<ellipse fill-opacity="0.65" cx="101.25" cy="184.334" rx="95.25" ry="8"/>
<path fill="#666666" d="M12.902,58.417c-1.5-0.219-3.922-1.146-4.305-3.499c-0.57-3.501,2.055-7.751,6.305-11.626
	c-5.375-0.875-13.5-6.75-12-12.957c1.232-5.099,9.923-14.378,15.167-14.5c7.208-0.168,9.583,6.582,9.583,6.582
	s5.083-6.916,15.25-3.416c6.938-7.834,13.688-7.834,19,2.665c11-7.162,16,2.333,16,2.333s2.186-6.966,7.833-7.999
	c4.13-0.755,16.289,13.157,17.167,15.5c1.859,4.959-1.834,9.333-8.833,12.333c17.5,20.333,72.669,26.309,75.583,15.208
	c2.416-9.208-9.777-36.309-28.25-39.708c-27.168-5-26.5,13-37,6.833c-6.996-4.109-0.168-19.917,23.832-22.333
	c4.479-0.451,20.22-1.015,37.918,13.333c25.621,20.773,17.33,48.001,19.832,64.744c1.52,10.179,9.722,21.345,11.828,39.432
	c0.588,5.063,5.229,40.203-15.031,59.499c-5.453,5.193-13.59,1.729-13.243-3.635c0.161-2.477,0.521-8.311,0.521-8.311
	c-0.175-5.369-5.192-10.388-5.192-10.388c-11.425,9.696-20.601,35.747-37.563,29.687c-1.912-0.68-3.859-3.758-4.328-6.4
	c-1.037-5.887,14.262-27.128,6.596-47.128c-10.334-1-30,16-46.667,4c0,0,2.75,46-12.063,47.188c-8.131,0.232-9.688-17-12.271-24.521
	c-1.851-5.387-6.495-14.09-8-15.667c0,0,0.334,40.667-22.803,37.339c-2.502-0.204-5.193-3.296-5.366-8.137
	c-0.136-3.793,2.782-10.021,3.636-12.291c1.038-2.77,2.867-44.246,2.867-44.246S-0.348,95.417,12.902,58.417z"/>
<polygon fill="#F58534" points="50.112,38.783 49.971,38.755 49.969,39.574 "/>
<path fill="#999999" d="M41.902,130.501l5,9.833c0,0,0,24.083-6.674,33.237l-13.676,1.298c1.149-3.442,3.01-9.606,3.81-11.777
	c0.978-2.649,2.207-41.091,2.207-41.091C38.903,127.001,41.902,130.501,41.902,130.501z"/>
<path fill="#999999" d="M78.735,35.29c-1,3.667-3.833,6,4.5,7.167c4.529,0.634,16.699-4.487,15.834-9.167
	c-0.759-4.111-8.715-13.688-13.167-12.667C81.924,21.535,79.81,31.353,78.735,35.29z"/>
<path fill="#FFFFFF" d="M68.433,21.621c-4.613,3.091,4.887,9.091,4.589,1.059c0,0,4.88,2.505,2.964,6.032
	c-1.964,3.615-6.041,3.289-8.708,1.955c-2.688-1.344-4.116-3.547-3.08-6.575C65.027,21.667,68.433,21.621,68.433,21.621z"/>
<path fill="#BBBBBB" d="M59.236,22.334c0,1.165-4.211,8.311-6.624,7.333c-0.772-0.313,0.623-3.33-0.626-3.001
	c-1.06,0.279,0.599,3.264-1.021,3.125c-2.698-0.23-5.896-7.161-5.896-8.291c0-1.291,5.348-5.331,7.5-5.331
	C54.72,16.171,59.236,21.044,59.236,22.334z"/>
<g>
	<path fill="#999999" d="M16.402,60.5c-15,38,24.667,62.833,27.723,66.853c1.742,2.291,17.051,30.207,17.744,32.457
		c2.943,9.176,3.52,15.181,4.152,15.924l9.521,1.475C81.568,160,79.568,142,77.881,130.209c16.354,19.125,40.688,1.458,52.189-0.521
		c12.832,20.646-3.635,45.004-3.635,48.643c0,3.512,5.707,2.909,7.271,3.291c10.729,2.615,25.273-26.659,30.813-29.602
		c14.715-11.254,17.355-29.875,18.067-29.082c0.282,0.313,2.218-1.435,2.563-1.039c0.379,0.433-1.418,18.521-17.344,32.197
		c0,0,6.743,9.176,6.578,12.982c-0.087,2.004-0.143,2.998,0.004,5.361c0.154,2.527,1.286,7.156,5.189,3.465
		c19.215-18.18,14.592-50.041,13.979-55.064c-2.142-17.486-10.377-28.248-12.246-38.069c-3.109-16.351,5.59-45.356-19.66-63.606
		C151.516,11.84,139.402,7.25,131.902,8c1.306,0.684,4.75,3.59,4.75,4.667c0,0.623-3.102,1.317-3.584,1.833
		c11.5-2,21.494,6.349,26.584,10.667c3.839,0.717,7.75,0.302,7.75,3c0,1.121-1.789,1.647-2.5,2.5c0.352,0.503-1.392,1-1,1
		c2.25,0,26.166,38.335-7.051,38.477c0.51,0.784,0.801,1.632,0.801,2.523c0,3.866-9.262,9.5-15.75,9.5c-6.489,0-7.75-5.634-7.75-9.5
		c0-1.846,1.207-3.52,3.168-4.771c-13.92-2.643-23.252-5.061-30.42-8.736c0,0.002,0.002,0.004,0.002,0.007
		c0,5.108-4.184,12.5-11.5,12.5s-8.5-3.392-8.5-8.5s-0.317-11.5,7-11.5c0.691,0,1.363,0.028,2.022,0.071
		c-1.397-1.946-2.665-1.758-6.522-6.902c0,0-3.275-0.229-2.875,0.956c3.125,9.25-1.184,12.718-5.375,14.375
		c-5.375,2.125-8.375,1.375-17.5-1.25c-2.25,7.5-7.083,6.25-12.25,6.417c-7.605,0.246-8-7-9.625-8.792
		C25.027,61.417,18.222,55.892,16.402,60.5z M136.902,100.917c0-5.108,4.701-9.25,10.5-9.25s12,1.892,12,7
		c0,5.107-6.201,14.5-12,14.5S136.902,106.024,136.902,100.917z M119.402,70.167c-1.657,0-5.5-4.119-5.5-5.5s3.843,0.5,5.5,0.5
		c1.656,0,3,1.119,3,2.5S121.059,70.167,119.402,70.167z M91.902,94.667c0-5.661,4.183-18.5,11.5-18.5c7.316,0,15,4.339,15,10
		s-6.434,13-13.75,13C97.335,99.167,91.902,100.328,91.902,94.667z M72.152,104.417c0-2.07,3.902-7.25,6.25-7.25
		c2.348,0,2.25,5.18,2.25,7.25s-1.902,3.75-4.25,3.75C74.054,108.167,72.152,106.487,72.152,104.417z"/>
	<path fill="#999999" d="M129.152,12.167c0,0.393-2.06,1.811-2.25,2.167c-16.918,1.671-15,12.162-20.334,7.833
		c-4.286-3.479,11.916-14.745,18.834-13.333c0.18,0.037,2.279,1.334,2.5,1.333C128.059,10.838,129.152,10.859,129.152,12.167z"/>
</g>
<path fill="#BBBBBB" d="M64.777,170.542c0,0,11.524-1.391,12.563,0.688c0,0-0.79,4.22-1.797,5.979
	c-4.155,7.271-7.355,5.886-9.692-1.125C65.254,174.294,64.777,170.542,64.777,170.542z"/>
<path fill="#BBBBBB" d="M28.977,167.255c0,0,10.474,1.643,11.252,6.317c0,0-3.895,4.673-7.789,5.192
	c-2.65,0.354-4.674,0.521-5.713-3.375C26.239,173.567,28.977,167.255,28.977,167.255z"/>
<path fill="#BBBBBB" d="M128.254,173.312c0,0,8.569,2.598,21.553-3.117c0,0-10.397,14.337-15.58,15.063
	c-2.646,0.371-8.224-0.259-7.963-5.191C126.361,178.179,128.254,173.312,128.254,173.312z"/>
<path fill="#BBBBBB" d="M174.561,168.813c0,0,4.5,1.728,14.715-6.926c0,0-6.535,14.756-11.426,16.616
	c-2.727,1.039-4.328-0.26-4.328-2.597C173.521,174.021,174.561,168.813,174.561,168.813z"/>
<path fill="#C2053C" d="M46.955,54.808c0.796-0.189,2.824,0.234,3.675,0.872c1.113,0.833,0.4,2.623,0.981,2.613
	c0.655-0.013,0.443-1.691,1.346-2.613c0.904-0.922,2.926-1.09,3.553-1.09c1.349,0,4.869,1.711,4.287,5.881
	c-1.74,12.458,3.052,20.53-0.074,24.201c-5,5.871-14.166,4.823-17.291,0.209c-3.457-5.104,2.083-10.274-0.028-24.41
	C43.07,58.243,44.577,55.374,46.955,54.808z"/>
<path fill="#BBBBBB" d="M83.66,55.929c1.539-2.091,2.939-6.579-0.008-10.762c-10.125-0.125-9.852-7.383-7.75-10.625
	c-7.625,0.625-11.25-1.375-15.5-5.75c-8.125,3.875-7.999,18.681-4.633,22.678C60.317,56.871,79.475,61.616,83.66,55.929z"/>
<path fill="#666666" d="M42.902,19.001"/>
<path fill="#999999" d="M19.459,18.998c-4.452-1.021-12.408,8.556-13.167,12.667c-0.865,4.679,11.305,9.801,15.834,9.167
	c8.333-1.167,5.5-3.5,4.5-7.167C25.552,29.728,23.438,19.91,19.459,18.998z"/>
<path fill="#FFFFFF" d="M42.342,22.551c1.036,3.027-0.393,5.231-3.08,6.575c-2.667,1.333-6.744,1.66-8.708-1.955
	c-1.916-3.527,2.964-6.032,2.964-6.032c-0.298,8.032,9.202,2.032,4.589-1.059C38.106,20.08,41.512,20.125,42.342,22.551z"/>
<path fill="#BBBBBB" d="M49.715,50.137c3.229-4.108,1.675-16.928-5.313-21.97c-4.25,4.375-7.5,6.333-15,3.5
	c6.5,15.667-8.23,10.147-11.5,13c-2.096,1.828-6.809,7.213-5.5,9.667C13.735,56.834,45.235,55.834,49.715,50.137z"/>
</svg>
