<?xml version="1.0" encoding="utf-8"?>
<!-- Generator: Adobe Illustrator 16.0.0, SVG Export Plug-In . SVG Version: 6.00 Build 0)  -->
<!DOCTYPE svg PUBLIC "-//W3C//DTD SVG 1.1//EN" "http://www.w3.org/Graphics/SVG/1.1/DTD/svg11.dtd">
<svg version="1.1" id="Capa_1" xmlns="http://www.w3.org/2000/svg" xmlns:xlink="http://www.w3.org/1999/xlink" x="0px" y="0px"
	 width="658px" height="200px" viewBox="0 0 658 200" enable-background="new 0 0 658 200" xml:space="preserve">
<g>
	<path fill="#755F1F" d="M273.531,157.59c0.002-0.195,0.004-0.39,0.004-0.589c0-10.711-2.837-16.115-5.58-21.341
		c-1.964-3.74-3.837-7.329-4.58-13.088c13.155-1.75,23.34-13.033,23.34-26.659h-5.775c0,10.554-7.777,19.323-17.9,20.882
		c0.037-9.145,2.405-13.668,4.916-18.449c2.29-4.363,4.644-8.853,5.359-16.449c13.511-1.417,24.077-12.874,24.077-26.753h-5.774
		c0,10.618-7.875,19.429-18.09,20.907c-0.164-10.084-2.912-15.321-5.572-20.39c-2.53-4.818-4.92-9.371-4.92-18.659h-5.773
		c0,10.712,2.836,16.116,5.58,21.343c2.443,4.655,4.75,9.074,4.904,17.743c-10.359-1.35-18.387-10.225-18.387-20.944h-5.773
		c0,13.827,10.486,25.246,23.924,26.734c-0.677,6.174-2.625,9.893-4.668,13.783c-2.732,5.206-5.558,10.591-5.579,21.222
		c-10.452-1.264-18.579-10.184-18.579-20.97h-5.775c0,14.077,10.871,25.655,24.658,26.802c0.803,7.104,3.068,11.426,5.275,15.629
		c2.53,4.818,4.919,9.369,4.919,18.657c0,0.216-0.008,0.416-0.011,0.627c-10.36-1.349-18.391-10.224-18.391-20.944h-5.773
		c0,13.758,10.383,25.129,23.723,26.707c-0.809,5.287-2.598,8.707-4.467,12.269c-2.743,5.228-5.58,10.63-5.58,21.342h5.774
		c0-9.289,2.39-13.84,4.919-18.658c2.129-4.056,4.313-8.221,5.186-14.889c13.594-1.336,24.251-12.832,24.251-26.771h-5.774
		C291.617,147.3,283.744,156.109,273.531,157.59z"/>
	<g>
		<path fill="#755F1F" d="M343.282,84.896c13.513-1.417,24.078-12.874,24.078-26.753h-5.774c0,10.618-7.875,19.429-18.09,20.907
			c-0.163-10.084-2.912-15.321-5.572-20.39c-2.131-4.058-4.155-7.938-4.744-14.606c13.234-1.678,23.505-12.999,23.505-26.681h-5.775
			c0,10.543-7.764,19.307-17.873,20.877c0.281-8.128,2.523-12.402,4.889-16.907c2.743-5.227,5.58-10.631,5.58-21.343h-5.773
			c0,9.289-2.391,13.84-4.92,18.659c-2.598,4.949-5.277,10.062-5.555,19.687c-10.463-1.252-18.604-10.177-18.604-20.973h-5.775
			c0,14.027,10.794,25.576,24.512,26.791c0.629,8.042,3.059,12.679,5.422,17.18c2.443,4.655,4.75,9.074,4.904,17.743
			c-10.357-1.35-18.387-10.225-18.387-20.944h-5.773c0,13.827,10.486,25.246,23.924,26.734c-0.677,6.174-2.625,9.893-4.668,13.783
			c-2.731,5.207-5.558,10.592-5.58,21.223c-10.451-1.264-18.578-10.184-18.578-20.97h-5.775c0,14.077,10.871,25.656,24.658,26.802
			c0.803,7.104,3.067,11.427,5.274,15.63c2.53,4.817,4.92,9.368,4.92,18.656c0,0.216-0.009,0.416-0.012,0.627
			c-10.359-1.348-18.391-10.225-18.391-20.945h-5.774c0,13.76,10.384,25.131,23.724,26.709c-0.809,5.287-2.598,8.707-4.467,12.268
			c-2.744,5.227-5.58,10.63-5.58,21.342h5.773c0-9.289,2.391-13.84,4.92-18.658c2.129-4.056,4.313-8.221,5.186-14.889
			c13.595-1.336,24.25-12.832,24.25-26.771h-5.774c0,10.617-7.872,19.428-18.086,20.907c0.002-0.196,0.005-0.39,0.005-0.589
			c0-10.711-2.837-16.113-5.58-21.341c-1.964-3.739-3.837-7.329-4.58-13.087c13.155-1.75,23.34-13.035,23.34-26.66h-5.773
			c0,10.553-7.777,19.324-17.901,20.883c0.036-9.145,2.405-13.669,4.915-18.449C340.214,96.981,342.569,92.492,343.282,84.896z"/>
		<path fill="#755F1F" d="M403.801,160.589c0.002-0.195,0.004-0.39,0.004-0.589c0-10.711-2.837-16.115-5.58-21.341
			c-1.964-3.74-3.837-7.329-4.579-13.088c13.154-1.75,23.339-13.033,23.339-26.659h-5.774c0,10.554-7.777,19.323-17.9,20.882
			c0.037-9.145,2.405-13.668,4.916-18.449c2.29-4.363,4.645-8.853,5.359-16.449c13.511-1.417,24.077-12.874,24.077-26.753h-5.774
			c0,10.618-7.875,19.429-18.09,20.907c-0.164-10.084-2.912-15.321-5.572-20.39c-2.529-4.818-4.92-9.371-4.92-18.659h-5.773
			c0,10.712,2.836,16.116,5.58,21.343c2.443,4.655,4.75,9.074,4.904,17.743c-10.359-1.35-18.387-10.225-18.387-20.944h-5.773
			c0,13.827,10.486,25.246,23.924,26.734c-0.676,6.174-2.625,9.893-4.668,13.783c-2.731,5.206-5.558,10.591-5.578,21.222
			c-10.452-1.264-18.579-10.184-18.579-20.97h-5.775c0,14.077,10.871,25.655,24.658,26.802c0.803,7.104,3.067,11.426,5.274,15.629
			c2.53,4.818,4.92,9.369,4.92,18.657c0,0.216-0.008,0.416-0.012,0.627c-10.359-1.349-18.391-10.224-18.391-20.944h-5.773
			c0,13.758,10.383,25.129,23.724,26.707c-0.81,5.287-2.599,8.707-4.468,12.269c-2.742,5.228-5.58,10.63-5.58,21.342h5.774
			c0-9.289,2.39-13.84,4.919-18.658c2.129-4.056,4.313-8.221,5.186-14.889c13.595-1.336,24.252-12.832,24.252-26.771h-5.774
			C421.887,150.299,414.014,159.108,403.801,160.589z"/>
	</g>
</g>
</svg>
