<?xml version="1.0" encoding="utf-8"?>
<!-- Generator: Adobe Illustrator 16.0.0, SVG Export Plug-In . SVG Version: 6.00 Build 0)  -->
<!DOCTYPE svg PUBLIC "-//W3C//DTD SVG 1.1//EN" "http://www.w3.org/Graphics/SVG/1.1/DTD/svg11.dtd">
<svg version="1.1" id="Layer_1" xmlns="http://www.w3.org/2000/svg" xmlns:xlink="http://www.w3.org/1999/xlink" x="0px" y="0px"
	 width="58px" height="29px" viewBox="0 0 58 29" enable-background="new 0 0 58 29" xml:space="preserve">
<circle fill="#FFC04C" cx="1" cy="1" r="1"/>
<circle fill="#FFC04C" cx="1" cy="4" r="1"/>
<circle fill="#FFC04C" cx="1" cy="7" r="1"/>
<circle fill="#FFC04C" cx="1" cy="7" r="1"/>
<circle fill="#FFC04C" cx="1" cy="10" r="1"/>
<circle fill="#FFC04C" cx="1" cy="13" r="1"/>
<circle fill="#FFC04C" cx="1" cy="16" r="1"/>
<circle fill="#FFC04C" cx="1" cy="19" r="1"/>
<circle fill="#FFC04C" cx="1" cy="22" r="1"/>
<circle fill="#FFC04C" cx="1" cy="22" r="1"/>
<circle fill="#FFC04C" cx="1" cy="25" r="1"/>
<circle fill="#FFC04C" cx="1" cy="28" r="1"/>
<circle fill="#FFC04C" cx="4" cy="1" r="1"/>
<circle fill="#FFC04C" cx="7" cy="1" r="1"/>
<circle fill="#FFC04C" cx="7" cy="1" r="1"/>
<circle fill="#FFC04C" cx="10" cy="1" r="1"/>
<circle fill="#FFC04C" cx="13" cy="1" r="1"/>
<circle fill="#FFC04C" cx="16" cy="1" r="1"/>
<circle fill="#FFC04C" cx="19" cy="1" r="1"/>
<circle fill="#FFC04C" cx="22" cy="1" r="1"/>
<circle fill="#FFC04C" cx="22" cy="1" r="1"/>
<circle fill="#FFC04C" cx="25" cy="1" r="1"/>
<circle fill="#FFC04C" cx="28" cy="1" r="1"/>
<circle fill="#8E8F8E" cx="30" cy="1" r="1"/>
<circle fill="#8E8F8E" cx="30" cy="4" r="1"/>
<circle fill="#8E8F8E" cx="30" cy="7" r="1"/>
<circle fill="#8E8F8E" cx="30" cy="7" r="1"/>
<circle fill="#8E8F8E" cx="30" cy="10" r="1"/>
<circle fill="#8E8F8E" cx="30" cy="13" r="1"/>
<circle fill="#8E8F8E" cx="30" cy="16" r="1"/>
<circle fill="#8E8F8E" cx="30" cy="19" r="1"/>
<circle fill="#8E8F8E" cx="30" cy="22" r="1"/>
<circle fill="#8E8F8E" cx="30" cy="22" r="1"/>
<circle fill="#8E8F8E" cx="30" cy="25" r="1"/>
<circle fill="#8E8F8E" cx="30" cy="28" r="1"/>
<circle fill="#8E8F8E" cx="33" cy="1" r="1"/>
<circle fill="#8E8F8E" cx="36" cy="1" r="1"/>
<circle fill="#8E8F8E" cx="36" cy="1" r="1"/>
<circle fill="#8E8F8E" cx="39" cy="1" r="1"/>
<circle fill="#8E8F8E" cx="42" cy="1" r="1"/>
<circle fill="#8E8F8E" cx="45" cy="1" r="1"/>
<circle fill="#8E8F8E" cx="48" cy="1" r="1"/>
<circle fill="#8E8F8E" cx="51" cy="1" r="1"/>
<circle fill="#8E8F8E" cx="51" cy="1" r="1"/>
<circle fill="#8E8F8E" cx="54" cy="1" r="1"/>
<circle fill="#8E8F8E" cx="57" cy="1" r="1"/>
</svg>
