<?xml version="1.0" encoding="utf-8"?>
<!-- Generator: Adobe Illustrator 16.0.0, SVG Export Plug-In . SVG Version: 6.00 Build 0)  -->
<!DOCTYPE svg PUBLIC "-//W3C//DTD SVG 1.1//EN" "http://www.w3.org/Graphics/SVG/1.1/DTD/svg11.dtd">
<svg version="1.1" id="Layer_1" xmlns="http://www.w3.org/2000/svg" xmlns:xlink="http://www.w3.org/1999/xlink" x="0px" y="0px"
	 width="658px" height="200px" viewBox="0 0 658 200" enable-background="new 0 0 658 200" xml:space="preserve">
<g>
	<g>
		<path fill="#FFDA44" d="M397.508,109.115c-5.275-2.18-10.515-2.658-14.841-1.682c2.187-4.604,3.519-10.727,3.519-17.449
			c0-14.297-6.025-25.887-13.459-25.887c-7.436,0-13.463,11.59-13.463,25.887c0,8.445,2.104,15.942,5.358,20.668
			c-0.423,11.91-6.822,21.988-15.681,26.002c1.418-4.101,2.246-9.021,2.246-14.313c0-14.296-6.027-25.886-13.461-25.886
			c-7.435,0-13.46,11.59-13.46,25.886c0,6.125,1.107,11.747,2.957,16.179h-11.187c-0.509-5.506-2.302-10.552-5.008-14.699
			c2.795-8.943,4.765-18.119,5.902-27.393c2.455-0.273,5.084-1.101,7.681-2.519c8.161-4.455,12.897-13.036,10.581-19.165
			c-2.149-5.693-9.629-7.268-17.223-3.895c-0.179-4.416-0.546-8.824-1.097-13.209c4.647,0.889,10.377-0.099,15.992-3.164
			c10.829-5.912,17.116-17.299,14.044-25.436c-3.075-8.135-14.348-9.938-25.176-4.025c-2.712,1.479-5.139,3.303-7.206,5.334
			c-0.402-3.263-1.208-6.672-2.446-10.054c-4.794-13.084-14.194-20.772-20.999-17.172c-6.804,3.601-8.435,17.127-3.641,30.211
			c2.783,7.599,7.122,13.37,11.6,16.175c4.456,21.042,3.776,43.055-2.03,63.766c-1.631-0.418-3.319-0.642-5.052-0.642H278.5
			c-11.774,0-21.609-10.147-23.779-23.547c4.97,1.304,11.446,0.144,17.673-3.673c10.597-6.494,16.448-18.212,13.071-26.171
			c-3.376-7.96-14.704-9.149-25.301-2.655c-0.813,0.499-1.594,1.03-2.349,1.586c1.167-3.834,1.84-8.294,1.84-13.058
			c0-14.298-6.026-25.886-13.46-25.886c-7.435,0-13.461,11.588-13.461,25.886c0,4.763,0.673,9.224,1.84,13.058
			c-0.755-0.556-1.536-1.088-2.349-1.586c-10.598-6.494-21.925-5.305-25.301,2.655s2.476,19.678,13.071,26.171
			c6.525,3.999,13.324,5.08,18.375,3.466c2.002,21.759,16.012,39.228,33.869,42.583c-2.349,5.514-2.503,11.063,0.054,14.362
			c3.818,4.927,12.23,2.966,18.788-4.378c2.198-2.463,3.908-5.219,5.066-7.979c2.328,1.706,3.892,4.776,3.892,8.286v22.233
			c-16.442-1.673-32.047-8.431-45.497-19.644c-1.437-5.817-5.318-12.032-10.985-16.766c-9.769-8.158-21.125-8.823-25.368-1.486
			c-4.243,7.339,0.236,19.899,10.004,28.059c4.116,3.438,8.513,5.539,12.542,6.276c-10.203,7.154-15.475,19.136-11.78,26.835
			c3.714,7.742,15.077,8.229,25.382,1.086c5.585-3.868,9.708-9.188,11.726-14.477c9.275,4.592,19.077,7.645,29.177,9.05L291.962,200
			h32.305l-8.076-42.064h17.802c0.528,5.799,3.065,12.422,7.375,18.216c7.931,10.655,18.853,14.466,24.394,8.509
			c5.538-5.959,3.604-19.426-4.326-30.08c-0.631-0.85-1.283-1.647-1.949-2.407c7.434-4.806,13.474-12.325,17.203-21.45
			c2.9,3.697,7.082,6.936,12.068,8.993c11.248,4.648,22.326,1.565,24.742-6.885C415.915,124.382,408.757,113.764,397.508,109.115z"
			/>
	</g>
</g>
</svg>
