<?xml version="1.0" encoding="utf-8"?>
<!-- Generator: Adobe Illustrator 16.0.0, SVG Export Plug-In . SVG Version: 6.00 Build 0)  -->
<!DOCTYPE svg PUBLIC "-//W3C//DTD SVG 1.1//EN" "http://www.w3.org/Graphics/SVG/1.1/DTD/svg11.dtd">
<svg version="1.1" id="Capa_1" xmlns="http://www.w3.org/2000/svg" xmlns:xlink="http://www.w3.org/1999/xlink" x="0px" y="0px"
	 width="658px" height="200px" viewBox="0 0 658 200" enable-background="new 0 0 658 200" xml:space="preserve">
<g>
	<polygon fill="#80D8B6" points="368.434,156.23 352.158,168.889 352.158,143.375 370.951,133.125 377.709,117.977 397.777,112.027 
		396.021,106.107 381.02,110.557 387.977,94.966 410.337,86.504 413.803,61.207 434.684,46.647 431.152,41.583 414.941,52.885 
		416.49,41.582 410.375,40.743 405.416,76.936 388.639,56.895 383.902,60.858 402.372,82.917 386.614,88.88 371.266,70.972 
		375.123,49.609 369.047,48.511 365.609,67.545 348.2,60.311 345.83,66.013 366.102,74.435 382.064,93.06 368.125,124.305 
		359.971,110.996 354.705,114.223 364.229,129.76 349.105,138.008 329.229,126.648 338.904,116.514 334.438,112.25 325.578,121.531 
		321.219,108.453 336.771,87.901 331.848,84.176 316.467,104.5 294.694,100.417 314.994,71.27 309.928,67.741 291.673,93.953 
		288.463,61.847 302.711,34.444 328.832,29.104 327.596,23.055 305.341,27.605 314.197,2.02 308.363,0 300.641,22.31 294.71,5.308 
		288.879,7.341 297.298,31.473 285.204,54.73 270.871,29.03 265.479,32.037 282.291,62.183 283.685,76.111 266.846,70.139 
		264.781,75.958 284.363,82.903 286.591,105.18 315.422,110.586 319.67,123.332 303.603,120.208 302.425,126.27 323.182,130.305 
		345.984,143.335 345.984,200 352.158,200 352.158,176.709 372.223,161.104 	"/>
	<polygon fill="#80D8B6" points="325.184,165.729 315.078,151.229 310.012,154.76 321.471,171.2 321.471,179.193 314.211,174.596 
		310.908,179.813 321.471,186.502 321.471,200 327.645,200 327.645,171.691 338.003,163.219 334.093,158.439 	"/>
	<polygon fill="#80D8B6" points="411.635,167.16 399.292,169.852 390.307,153.164 400.768,137.473 395.631,134.047 386.41,147.877 
		380.182,140.55 375.479,144.549 384.145,154.744 393.547,172.207 379.443,180.475 379.443,200 385.617,200 385.617,184.012 
		398.814,176.275 412.95,173.191 	"/>
	<polygon fill="#80D8B6" points="293.848,173.508 287.152,179.668 287.152,142.271 296.361,131.745 291.715,127.68 284.414,136.023 
		275.537,122.531 279.443,108.203 273.488,106.579 270.828,116.332 264.171,107.859 259.316,111.673 269.685,124.869 
		280.979,142.035 280.979,165.34 271.451,156.428 267.233,160.938 280.979,173.794 280.979,200 287.152,200 287.152,188.057 
		298.027,178.051 	"/>
</g>
</svg>
