<?xml version="1.0" encoding="utf-8"?>
<!-- Generator: Adobe Illustrator 16.0.0, SVG Export Plug-In . SVG Version: 6.00 Build 0)  -->
<!DOCTYPE svg PUBLIC "-//W3C//DTD SVG 1.1//EN" "http://www.w3.org/Graphics/SVG/1.1/DTD/svg11.dtd">
<svg version="1.1" id="Layer_1" xmlns="http://www.w3.org/2000/svg" xmlns:xlink="http://www.w3.org/1999/xlink" x="0px" y="0px"
	 width="200px" height="192.334px" viewBox="0 0 200 192.334" enable-background="new 0 0 200 192.334" xml:space="preserve">
<ellipse fill-opacity="0.65" cx="100.75" cy="183.667" rx="95.25" ry="8"/>
<path fill="#A75214" d="M176.753,131.074c0,0-2.424,28.735-1.386,31.504c0.854,2.271,3.771,8.498,3.636,12.291
	c-0.173,4.841-2.864,7.933-5.366,8.137c-16.965,1.386-28.906-24.235-28.906-24.235c-3.635,3.809-1.355,28.268-15.234,27.869
	c-12.119-0.345-12.854-17.093-12.854-17.093c-30.295,3.375-42.196-0.39-42.196-0.39s5.02,6.751,3.981,12.638
	c-0.467,2.644-2.416,5.722-4.327,6.401c-16.965,6.061-26.14-19.99-37.564-29.687c0,0-5.019,5.019-5.193,10.388
	c0,0,0.359,5.834,0.52,8.31c0.347,5.362-7.79,8.828-13.243,3.635C-1.64,161.546,3.001,126.406,3.59,121.343
	c2.106-18.087,11.828-39.432,11.828-39.432c0.689-10.732-5.542-43.969,20.079-64.742C53.195,2.821,68.389,4.013,72.889,4.013
	c18.353,0,28.896,7.24,27.698,15.233c-2.077,13.849-19.04,6.959-27.698,7.617c-27.35,2.077-32.544,16.965-32.543,22.504
	c0.001,6.273,7.271,18.349,19.385,15.925c13.904-2.78,33.585-5.886,50.894-24.927c-5.02-12.29-6.014-15.814-4.154-20.773
	c2.078-5.548,18.352-1.039,18.352-1.039s5.537-2.768,9.003-2.77c3.46-0.002,8.307,2.424,8.307,2.424s5.195-5.886,10.39-5.54
	c6.646,0.442,10.383,4.852,10.383,4.852s5.714-2.253,9.522-1.56c5.181,0.942,9.867,4.326,9.867,4.326s3.792-2.642,8.308-2.078
	c5.543,0.692,5.736,2.061,5.887,3.808c0.267,3.104,0.578,9.402,0,12.464c-0.502,2.663-1.385,6.232-4.848,9.695
	c2.078,7.271,6.381,7.989,5.022,34.275C195.448,101.905,176.753,131.074,176.753,131.074z"/>
<g>
	<polygon fill="#F58534" points="151.434,39.574 151.432,38.755 151.29,38.783 	"/>
	<path fill="#F58534" d="M181.427,36.21c-9.694-0.864-17.483-3.461-20.253-9.692c-2.05,0.608-3.881,1.236-5.506,1.432l0.014,7.435
		l26.221,4.257l-0.07,2.461l-22.342-3.488l25.965,9.827l-0.605,2.529l-29.156-10.772L155.721,54h-4.242l-0.037-12.632l-30.401,9.636
		l-0.738-2.49l28.261-9.186l-26.381,5.195l-0.312-2.707l29.553-6.019l-0.024-7.704c-4.172-0.271-6.063-1.88-6.063-1.88
		s-8.05,13.957-23.109,8.763c-6.231,8.309-10.104,10.973-12.267,13.063c6.554,11.54-1.235,9.462-4.006,3.754
		c-1.724,1.606-3.664,3.083-5.756,4.441c-0.494,0.321,2.337,1.595,4.025,5.25c1.039,2.25,0.52,11.077-5.021,5.02
		c-0.546-0.597-1.385-1.559-3.687-7.545c-1.544,0.809-3.138,1.561-4.755,2.267l2.643,6.922c4.893,16.741-8.215,4.233-7.161-5.093
		c-1.914,0.717-3.834,1.373-5.729,1.967l2.504,6.761c3.363,21.467-8.856,4.551-7.413-5.333c-3.74,1.007-7.907,1.958-7.907,1.958
		l1.456,6.767c2.788,22.184-6.466,1.501-6.777-5.846c-2.154,0.345-4.15,0.478-5.992,0.424l-0.631,5.926
		c-4.146,20.725-8.805,3.068-4.185-6.555c-2.634-0.616-4.872-1.635-6.75-2.918l-3.346,5.578c-6.45,11.352-13.009,3.728-0.355-8.852
		c-1.329-1.523-2.353-3.147-3.113-4.738l-5.358,2.636c-6.926,0.816-9.767-4.993,3.669-7.888c-0.062-0.41-0.104-0.799-0.122-1.152
		c-0.082-1.688,0.029-3.35,0.309-4.976l-3.598-0.909c-6.333-4.108-0.82-7.442,4.995-3.836c0.691-1.641,1.588-3.222,2.702-4.722
		l-2.678-2.176c-5.712-7.616,1.905-8.309,5.886-1.384l5.063-3.809l-1.428-2.986c-1.195-6.031,5.877-3.406,5.582,0.832
		c2.078-0.936,6.189-2.346,6.189-2.346l-0.172-3.289c0.676-3.895,4.453-2.933,5.103,2.135c2.775-0.569,7.707-1.226,7.707-1.226
		l-0.13-1.818c0.173-4.674,6.473-5.617,5.712,1.688c0,0,3.723,0.405,5.986,0.725l0.765-2.802c0.51-2.211,5.642-3.067,4.715,3.426
		c3.898,0.199,6.705-0.633,7.36-4.897c1.174-7.638-9.867-10.733-22.158-10.906c-4.229-0.059-19.636-0.446-34.438,10.598
		C16.282,36.558,19.398,71.521,20.09,82.773c0,0-10.105,20.582-12.246,38.069c-0.614,5.023-5.237,36.886,13.978,55.064
		c3.903,3.692,5.035-0.937,5.189-3.464c0.147-2.364,0.091-3.358,0.004-5.362c-0.165-3.808,6.579-12.983,6.579-12.983
		c-15.926-13.676-17.723-31.765-17.344-32.197c0.346-0.395,2.282,1.353,2.564,1.039c0.712-0.793,3.354,17.828,18.068,29.082
		c5.539,2.942,20.084,32.217,30.813,29.602c1.564-0.382,7.271,0.221,7.271-3.291c0-3.639-17.917-28.605-3.635-48.643l3.635,1.039
		c-9.867,13.112-2.337,32.717-2.337,32.717c14.151,4.545,43.883,0.521,43.883,0.521c-0.52-23.889,2.856-32.458,2.856-32.458
		l4.153-1.298c0,0-7.979,45.524,2.338,46.999l9.521-1.475c0.633-0.743,1.209-6.748,4.152-15.924
		c0.693-2.25,16.188-30.035,17.744-32.457c0.55-0.854,3.031-0.78,4.242,0.604c-2.25,8.827-15.537,26.896-15.537,26.896
		l18.824-15.643c0,0,24.756-29.428,27.696-60.942C194.844,53.202,182.813,37.942,181.427,36.21z"/>
</g>
<path fill="#FDB660" d="M116.512,163.964c0,0-27.265,4.154-43.883-0.52c-2.077-6.752-6.232-19.215,0-29.082
	c7.011,2.597,25.966,4.934,45.439,0.26C115.473,147.604,116.512,163.964,116.512,163.964z"/>
<path fill="#FDB660" d="M135.552,176.083c-2.337,7.011-7.614,8.135-11.77,0.863c-1.007-1.76-2.077-5.452-2.077-5.452
	c1.038-2.077,14.888-1.3,14.888-1.3S136.148,174.294,135.552,176.083z"/>
<path fill="#F58534" d="M171.906,136.094c0,0-1.844,24.349-0.866,26.998c0.8,2.171,2.66,8.335,3.81,11.777l-13.676-1.298
	c-7.79-6.146-12.464-16.187-12.464-16.187S163.941,149.423,171.906,136.094z"/>
<path fill="#FDB660" d="M174.676,175.39c-1.039,3.896-3.063,3.729-5.713,3.375c-3.895-0.52-7.789-5.192-7.789-5.192
	c0.778-4.675,11.252-6.317,11.252-6.317S175.163,173.567,174.676,175.39z"/>
<path fill="#FDB660" d="M176.753,120.341c-9.088,21.813-30.771,34.512-30.771,34.512s17.527-25.424,20.125-41.263
	C169.482,105.8,185.063,99.827,176.753,120.341z"/>
<path fill="#502C11" d="M154.162,93.336c11.686,0,18.668-10.39,18.438-18.695c-0.348-12.464-7.272-34.91-19.216-35.314
	c-10.214-0.347-18.524,19.734-18.524,34.275C134.859,82.43,139.881,93.336,154.162,93.336z"/>
<path fill="#FDB660" d="M75.139,180.063c0.26,4.934-5.316,5.563-7.963,5.192c-5.182-0.726-15.58-15.062-15.58-15.062
	c12.983,5.714,21.552,3.117,21.552,3.117S75.04,178.179,75.139,180.063z"/>
<path fill="#FDB660" d="M27.881,175.908c0,2.337-1.602,3.636-4.328,2.597c-4.89-1.861-11.425-16.617-11.425-16.617
	c10.214,8.653,14.714,6.926,14.714,6.926S27.881,174.021,27.881,175.908z"/>
<path fill="#F58534" d="M121.965,21.929c0,0-11.099-3.163-11.857,0.948c-0.865,4.679,0.172,7.103,4.067,14.891l4.675-5.712
	C118.497,25.125,121.965,21.929,121.965,21.929z"/>
<path fill="#F58534" d="M189.217,39.846c2.77-1.383,3.809-4.324,4.154-6.057c0.585-2.92,0.25-6.727,0-9.696
	c-0.143-1.671-3.162-3.438-8.309-0.865c3.114,4.154,0,9.348,0,9.348L189.217,39.846z"/>
<path fill="#FFFFFF" d="M141.784,22.882c-0.688,4.674-5.871,7.812-8.479,8.483c-2.504,0.643-9.697,1.558-10.216-3.118
	c-0.407-3.677,5.712-7.443,5.712-7.443c1.992,7.617,9.004,2.164,6.751-1.558C135.552,19.246,142.165,20.313,141.784,22.882z"/>
<path fill="#FFFFFF" d="M182.291,27.901c-0.17,8.136-17.827,2.077-18.002-4.674c-0.096-3.698,4.154-3.375,4.154-3.375
	c1.559,7.271,8.05,4.674,6.406,0.259C174.852,20.111,182.402,22.664,182.291,27.901z"/>
<path fill="#FDB660" d="M136.246,61.831c-0.694-26.313,15.232-32.025,15.232-32.025l-0.172,9.695
	C151.307,39.5,142.046,41.144,136.246,61.831z"/>
<path fill="#FDB660" d="M170.607,61.313c0.736-26.052-14.887-31.204-14.887-31.204l0.26,9.565
	C155.98,39.673,164.029,40.54,170.607,61.313z"/>
<ellipse fill="#FFFFFF" cx="152.604" cy="18.294" rx="3.896" ry="2.337"/>
<path fill="#C2053C" d="M166.021,82.43c0,3.346-5.676,8.656-12.465,8.656s-12.117-5.31-12.117-8.656c0-3.347,4.153-4.674,6.06-4.674
	c0.886,0,3.742,0.133,5.021,0.866c1.275,0.733,0.975,2.067,1.902,2.077c0.82,0.008-0.188-1.415,1.387-2.077
	c1.202-0.507,4.066-0.843,5.192-0.693C164.361,78.379,166.021,80.639,166.021,82.43z"/>
<path fill="#FFFFFF" d="M158.059,50c0.865-4-9.521-4.298-8.83,0.029l-2.94-0.101C148.971,39.282,158.577,39,160.828,50H158.059z"/>
<path fill="#FFFFFF" d="M159.875,84.507c-1.168,3.505-12.464,2.986-12.594,0.26l-3.635,0.13c1.297,8.309,19.475,8.439,19.475-0.649
	L159.875,84.507z"/>
<path fill="#FDB660" d="M118.85,32.056c0,0-1.508,2.199-2.164,1.905c-1.832-0.82-4.086-7.166-2.25-9.002
	c0.733-0.734,5.388,0.411,5.388,0.411S118.523,28.421,118.85,32.056z"/>
<path fill="#FDB660" d="M185.063,32.575c0,0,2.424,4.501,4.35,2.337c1.335-1.501,3.005-8.161,1.169-9.997
	c-0.733-0.734-4.284,0.52-4.284,0.52S187.074,29.654,185.063,32.575z"/>
</svg>
