<?xml version="1.0" encoding="utf-8"?>
<!-- Generator: Adobe Illustrator 16.0.0, SVG Export Plug-In . SVG Version: 6.00 Build 0)  -->
<!DOCTYPE svg PUBLIC "-//W3C//DTD SVG 1.1//EN" "http://www.w3.org/Graphics/SVG/1.1/DTD/svg11.dtd">
<svg version="1.1" id="Layer_1" xmlns="http://www.w3.org/2000/svg" xmlns:xlink="http://www.w3.org/1999/xlink" x="0px" y="0px"
	 width="200px" height="192.334px" viewBox="0 0 200 192.334" enable-background="new 0 0 200 192.334" xml:space="preserve">
<ellipse fill-opacity="0.65" cx="103.75" cy="184.334" rx="51" ry="8"/>
<g>
	<path fill="none" d="M75.92,73.973c-0.011,0.69,0.114,1.251,0.363,1.646l5.612-2.434c0.426-0.561,0.857-1.216,1.291-1.938
		L75.92,73.973z"/>
	<path fill="#A75214" d="M114.889,3.013c-4.5,0-19.693-1.192-37.391,13.156c-25.622,20.773-19.391,54.01-20.08,64.742l4.51-1.691
		c-0.827-13.277-2.091-44.822,19.734-61.107C96.465,7.068,111.871,7.455,116.102,7.514c12.289,0.172,23.332,3.268,22.156,10.906
		c-0.654,4.264-3.461,5.096-7.359,4.897c0.928-6.494-4.205-5.638-4.715-3.426l-0.765,2.802c-2.265-0.32-5.985-0.725-5.985-0.725
		c0.76-7.305-5.539-6.362-5.713-1.688l0.129,1.818c0,0-4.932,0.657-7.707,1.226c-0.648-5.067-4.426-6.03-5.102-2.135l0.172,3.289
		c0,0-4.111,1.41-6.189,2.346c0.295-4.238-6.776-6.863-5.582-0.832l1.429,2.986l-5.063,3.809c-3.981-6.925-11.599-6.232-5.887,1.384
		l2.678,2.176c-1.113,1.5-2.011,3.081-2.701,4.722c-5.815-3.606-11.329-0.272-4.996,3.836l3.598,0.909
		c-0.279,1.626-0.391,3.288-0.309,4.976c0.018,0.353,0.061,0.743,0.123,1.152c-13.436,2.895-10.596,8.704-3.67,7.888l5.359-2.636
		c0.76,1.591,1.783,3.214,3.113,4.737c-5.22,5.189-7.159,9.524-7.195,12.041l7.267-2.725c0.095-0.158,0.188-0.297,0.283-0.463
		l3.347-5.577c1.588,1.085,3.451,1.964,5.576,2.588l9.338-3.502c-12.114,2.423-19.384-9.652-19.385-15.926
		c-0.001-5.539,5.193-20.427,32.543-22.504c8.657-0.657,25.62,6.232,27.697-7.617C143.784,10.252,133.241,3.013,114.889,3.013z"/>
	<path fill="#F58534" d="M75.92,73.973c0.036-2.517,1.976-6.852,7.195-12.041c-1.33-1.523-2.354-3.146-3.113-4.737l-5.359,2.636
		c-6.926,0.816-9.766-4.993,3.67-7.888c-0.063-0.41-0.105-0.799-0.123-1.152c-0.082-1.688,0.029-3.35,0.309-4.976l-3.599-0.91
		c-6.333-4.108-0.819-7.442,4.996-3.836c0.69-1.641,1.588-3.222,2.701-4.722l-2.678-2.176c-5.712-7.616,1.905-8.309,5.887-1.384
		l5.063-3.809l-1.429-2.986c-1.194-6.031,5.877-3.406,5.582,0.832c2.078-0.936,6.189-2.346,6.189-2.346l-0.172-3.289
		c0.676-3.895,4.452-2.933,5.102,2.135c2.775-0.569,7.707-1.226,7.707-1.226l-0.129-1.818c0.174-4.674,6.473-5.617,5.713,1.688
		c0,0,3.723,0.405,5.985,0.725l0.765-2.802c0.51-2.211,5.643-3.067,4.715,3.426c3.898,0.199,6.705-0.633,7.359-4.897
		c1.176-7.638-9.867-10.733-22.156-10.906c-4.229-0.059-19.637-0.446-34.438,10.598c-21.824,16.285-20.56,47.83-19.733,61.108
		c0.06,0.946,0.116,1.806,0.162,2.554l14.193-6.154C76.034,75.224,75.909,74.663,75.92,73.973z"/>
	<path fill="#F58534" d="M81.896,73.186l-5.612,2.434C77.148,76.993,79.406,76.46,81.896,73.186z"/>
	<path fill="#F58534" d="M83.47,70.784c-0.095,0.167-0.188,0.306-0.283,0.463c-0.434,0.722-0.865,1.377-1.291,1.938l11.671-5.061
		c-0.406-0.095-0.786-0.217-1.174-0.33c-2.125-0.624-3.988-1.502-5.576-2.588L83.47,70.784z"/>
</g>
<g>
	<path fill="none" d="M136,43.286c0,0.215,0.221,0.427,0.21,0.636c0,0.002,0.004,0.004,0.005,0.007
		c-0.001-0.002-0.004-0.005-0.004-0.007C136.221,43.699,136,43.489,136,43.286z"/>
	<path fill="none" d="M135.324,49.059l3.865,6.787c0.008-0.004,0.013-0.009,0.021-0.012l-3.769-6.594
		C135.398,49.175,135.361,49.116,135.324,49.059z"/>
	<path fill="none" d="M135.991,46.334c-0.063,0.211-0.13,0.406-0.196,0.592c0.025-0.08,0.066-0.157,0.092-0.237
		C135.923,46.571,135.961,46.453,135.991,46.334z"/>
	<path fill="#A75214" d="M71.869,57.816l0.311,2.707l18.153-3.575c0.629-1.217,1.295-2.314,1.981-3.296L71.869,57.816z"/>
	<path fill="#A75214" d="M101.316,54.93l-0.01,0.57c0,0-0.479,0.087-1.283,0.459c0.461-0.186,0.927-0.341,1.398-0.445L101.316,54.93
		z"/>
	<path fill="#A75214" d="M70.301,64.514l0.738,2.49l17.376-5.507c0.398-1.182,0.839-2.275,1.309-3.295L70.301,64.514z"/>
	<path fill="#A75214" d="M131.831,58.104l0.069-2.461l-17.813-2.892c0.658,0.854,1.305,1.816,1.924,2.883L131.831,58.104z"/>
	<path fill="#A75214" d="M134.848,66.971l0.606-2.529l-18.478-6.993c0.512,1.052,0.986,2.201,1.42,3.443L134.848,66.971z"/>
	<path fill="#A75214" d="M141.639,60.174C147.25,51,154,39.25,148,36c-7.744-4.195-15.707,0.285-15.707,0.285
		s-4.688-3.384-9.867-4.326c-3.81-0.693-9.521,1.56-9.521,1.56s-3.738-4.409-10.385-4.852c-5.192-0.346-10.389,5.54-10.389,5.54
		s-4.847-2.426-8.307-2.424c-3.465,0.002-9.003,2.77-9.003,2.77s-16.272-4.51-18.352,1.039c-1.857,4.959-0.864,8.483,4.155,20.773
		c0,0-5.231,28.385-5.291,37.968c-0.334,54,14.881,95.322,27,95.667c13.879,0.397,19.405-28.75,22.666-28.75
		c5.25,0,5.999,28.646,19.667,28.583C143,189.75,148,116.832,146.662,94.449C145.092,68.174,143.718,67.444,141.639,60.174z
		 M118.443,35.852c1.559,7.271,8.05,4.674,6.406,0.259c0,0,7.553,2.552,7.44,7.79c-0.17,8.136-17.827,2.077-18.002-4.674
		C114.193,35.529,118.443,35.852,118.443,35.852z M102.604,31.957c2.15,0,3.896,1.047,3.896,2.337s-1.744,2.337-3.896,2.337
		c-2.15,0-3.895-1.047-3.895-2.337S100.454,31.957,102.604,31.957z M78.801,36.804c1.992,7.617,9.003,2.164,6.751-1.558
		c0,0,6.613,1.067,6.232,3.636c-0.689,4.674-5.871,7.812-8.479,8.483c-2.504,0.643-9.697,1.558-10.216-3.118
		C72.681,40.57,78.801,36.804,78.801,36.804z M60.106,38.877c0.76-4.111,11.858-0.948,11.858-0.948s-3.468,3.196-3.116,10.127
		c0,0-0.522,0.76-1.086,1.327l-3.588,4.386C60.279,45.98,59.241,43.557,60.106,38.877z"/>
	<polygon fill="#F58534" points="101.423,55.514 101.434,55.511 101.432,54.755 101.318,54.777 101.316,54.93 	"/>
	<path fill="#F58534" d="M111.174,42.518c-2.05,0.608-3.881,1.236-5.506,1.432l0.014,7.435l0.185,0.03l-0.146-5.306
		c0,0,4.361,1.441,8.367,6.642l17.813,2.892l-0.069,2.461l-15.819-2.47c0.33,0.573,0.653,1.176,0.965,1.815l18.479,6.993
		l-0.605,2.529l-16.451-6.079c1.473,4.236,2.403,9.608,2.211,16.42c-0.394-1.242-0.791-2.409-1.193-3.513
		c1.96,5.881,3.053,12.087,3.186,16.841c0.23,8.306-6.752,18.695-18.438,18.695c-14.281,0-19.302-10.906-19.302-19.734
		c0-5.219,1.075-11.15,2.92-16.596c-0.53,1.483-1.045,3.081-1.534,4.825c-0.177-6.701,0.728-12.059,2.169-16.334l-17.376,5.507
		l-0.738-2.49L89.726,58.2c0.198-0.431,0.401-0.849,0.609-1.252L72.18,60.523l-0.311-2.707l20.445-4.164
		c3.958-5.659,8.482-7.581,9.088-7.818l-0.006-1.741c-4.172-0.271-6.063-1.88-6.063-1.88s-8.05,13.957-23.109,8.763
		c-23.891,40.69-2.705,113.75,2.602,124.917c-0.077-0.248-0.121-0.4-0.121-0.4c1.038-2.077,16.795-0.744,16.795-0.744
		s8.75-18.5,13.5-19.083c6.5,0.083,7.375,10.762,11.5,18.333c2.093-1.436,13.729-0.611,16-0.506c0,0,22.5-90.744-1.073-121.284
		C121.732,51.346,113.941,48.75,111.174,42.518z M105,155.667c0,0-15.666-8.667-14-18.333c0-23,28.334-23.667,28,0.333
		C119.667,148.333,105,155.667,105,155.667z"/>
	<path fill="#F58534" d="M109.697,57.678l-0.26-0.096c0.643,0.473,1.262,1.009,1.858,1.605
		C110.732,58.588,110.197,58.091,109.697,57.678z"/>
	<polygon fill="#F58534" points="101.422,51.798 101.414,49.424 101.372,51.808 	"/>
	<path fill="#FDB660" d="M74.705,175.494c0,0,0.044,0.151,0.121,0.401c0.306,1,4.109,9.832,7.924,10.104
		c3.5,0.25,8.657-10.441,8.75-11.25c0.014-0.115-1.907-0.555-1.907-0.555S75.743,173.417,74.705,175.494z"/>
	<path fill="#FDB660" d="M91,137.334c-1.666,9.666,14,18.333,14,18.333s14.667-7.334,14-18C119.334,113.667,91,114.334,91,137.334z"
		/>
	<path fill="#502C11" d="M100.024,55.959c-2.442,1.129-7.908,4.919-12.244,17.047c-1.845,5.446-2.92,11.376-2.92,16.596
		c0,8.829,5.021,19.734,19.302,19.734c11.686,0,18.668-10.39,18.438-18.695c-0.133-4.754-1.226-10.959-3.186-16.841
		c-2.775-7.625-5.705-12.049-8.117-14.612c-0.598-0.596-1.217-1.133-1.857-1.605c-1.844-1.36-3.863-2.182-6.056-2.256
		c-0.659-0.022-1.31,0.043-1.95,0.184c-0.004,0.001-0.007,0.002-0.011,0.003C100.951,55.618,100.485,55.773,100.024,55.959z
		 M116.021,98.431c0,2.129-2.304,5.047-5.724,6.894c-3.817,2.548-10.563,2.317-14.213-0.505c-2.84-1.844-4.646-4.445-4.646-6.389
		c0-3.348,4.154-4.675,6.06-4.675c0.886,0,3.742,0.133,5.021,0.866c1.275,0.733,0.975,2.066,1.902,2.077
		c0.82,0.008-0.188-1.415,1.387-2.077c1.203-0.507,4.066-0.843,5.192-0.693C114.361,94.379,116.021,96.639,116.021,98.431z
		 M110.828,66h-2.771c0.866-4-9.521-4.298-8.829,0.029l-2.941-0.101C98.97,55.282,108.577,55,110.828,66z"/>
	<path fill="#F58534" d="M67.763,49.383c-0.394,0.396-0.808,0.699-1.077,0.578c-1.832-0.82-4.087-7.166-2.251-9.002
		c0.734-0.734,5.388,0.411,5.388,0.411s-1.298,3.051-0.974,6.687c-0.352-6.931,3.116-10.127,3.116-10.127
		s-11.099-3.163-11.858,0.948c-0.865,4.679,0.173,7.103,4.068,14.891L67.763,49.383z"/>
	<path fill="#FFFFFF" d="M83.305,47.365c2.608-0.671,7.79-3.81,8.479-8.483c0.381-2.568-6.232-3.636-6.232-3.636
		c2.252,3.722-4.759,9.175-6.751,1.558c0,0-6.12,3.766-5.712,7.443C73.607,48.923,80.801,48.008,83.305,47.365z"/>
	<path fill="#FFFFFF" d="M132.291,43.901c0.111-5.238-7.439-7.79-7.439-7.79c1.643,4.415-4.85,7.011-6.406-0.259
		c0,0-4.25-0.323-4.155,3.375C114.464,45.979,132.121,52.037,132.291,43.901z"/>
	<path fill="#FDB660" d="M92.314,53.652c-0.687,0.982-1.353,2.079-1.981,3.296c-0.208,0.404-0.411,0.821-0.609,1.252
		c-0.47,1.02-0.91,2.114-1.309,3.295c-1.441,4.275-2.346,9.633-2.169,16.334c0.489-1.744,1.004-3.341,1.534-4.825
		c4.336-12.128,9.802-15.918,12.244-17.047c0.803-0.372,1.283-0.459,1.283-0.459l0.01-0.57l0.002-0.153l0.054-2.969l0.042-2.384
		l0.064-3.619c0,0-0.031,0.012-0.076,0.029C100.797,46.072,96.272,47.994,92.314,53.652z"/>
	<path fill="#FDB660" d="M111.297,59.188c2.412,2.563,5.342,6.986,8.117,14.612c0.402,1.104,0.801,2.271,1.193,3.513
		c0.192-6.813-0.738-12.185-2.211-16.42c-0.434-1.243-0.908-2.391-1.42-3.443c-0.313-0.639-0.636-1.242-0.967-1.815
		c-0.617-1.067-1.265-2.029-1.923-2.883c-4.006-5.2-8.366-6.642-8.366-6.642l0.145,5.306l0.115,4.259c0,0,1.492,0.165,3.717,2.005
		C110.197,58.091,110.732,58.588,111.297,59.188z"/>
	<ellipse fill="#FFFFFF" cx="102.604" cy="34.294" rx="3.896" ry="2.337"/>
	<path fill="#C2053C" d="M105.809,94.623c-1.572,0.662-0.565,2.085-1.387,2.077c-0.929-0.01-0.627-1.344-1.902-2.077
		c-1.277-0.733-4.135-0.866-5.021-0.866c-1.905,0-6.06,1.327-6.06,4.674c0,1.944,1.807,4.547,4.646,6.391
		c-1.281-0.992-2.186-2.299-2.439-3.924l3.635-0.129c0.13,2.727,11.426,3.246,12.594-0.261l3.246-0.259
		c0,2.254-1.12,3.939-2.822,5.076c3.42-1.846,5.723-4.766,5.723-6.895c0-1.791-1.658-4.051-5.021-4.5
		C109.875,93.78,107.012,94.115,105.809,94.623z"/>
	<path fill="#FFFFFF" d="M96.287,65.928l2.941,0.101C98.537,61.702,108.924,62,108.059,66h2.771
		C108.577,55,98.97,55.282,96.287,65.928z"/>
	<path fill="#FFFFFF" d="M113.121,100.248l-3.246,0.259c-1.168,3.506-12.464,2.987-12.594,0.26l-3.635,0.131
		c0.254,1.625,1.158,2.931,2.439,3.922c3.649,2.822,10.396,3.053,14.213,0.505C112.001,104.188,113.121,102.502,113.121,100.248z"/>
	<path fill="#FDB660" d="M69.822,41.37c0,0-4.653-1.145-5.388-0.411c-1.836,1.836,0.419,8.182,2.251,9.002
		c0.27,0.121,0.684-0.182,1.077-0.578c0.563-0.567,1.086-1.327,1.086-1.327C68.524,44.421,69.822,41.37,69.822,41.37z"/>
	<path fill="#FDB660" d="M137.63,51.364c-0.011-0.004-0.021-0.01-0.03-0.015C137.609,51.354,137.619,51.359,137.63,51.364z"/>
</g>
<path fill="#FDB660" d="M132.5,173.494c0,0-0.044,0.151-0.121,0.401c-0.306,1-4.109,9.832-7.924,10.104
	c-3.5,0.25-8.657-10.441-8.75-11.25c-0.014-0.115,1.906-0.555,1.906-0.555S131.462,171.417,132.5,173.494z"/>
<path fill="#F58534" d="M136.75,51.5c0,0,2-5-1.75-12c0,0,10.486-3.733,11.275,0.377C147.175,44.557,142,53.5,140,56.5L136.75,51.5z
	"/>
<path fill="#FDB660" d="M136.189,42.37c0,0,4.83-1.145,5.594-0.411c1.904,1.836-0.436,8.182-2.338,9.002
	c-0.279,0.121-0.709-0.182-1.118-0.578c-0.585-0.567-1.127-1.327-1.127-1.327C137.537,45.421,136.189,42.37,136.189,42.37z"/>
</svg>
