<?xml version="1.0" encoding="utf-8"?>
<!-- Generator: Adobe Illustrator 16.0.0, SVG Export Plug-In . SVG Version: 6.00 Build 0)  -->
<!DOCTYPE svg PUBLIC "-//W3C//DTD SVG 1.1//EN" "http://www.w3.org/Graphics/SVG/1.1/DTD/svg11.dtd">
<svg version="1.1" id="Layer_1" xmlns="http://www.w3.org/2000/svg" xmlns:xlink="http://www.w3.org/1999/xlink" x="0px" y="0px"
	 width="400px" height="100px" viewBox="0 0 400 100" enable-background="new 0 0 400 100" xml:space="preserve">
<g>
	<ellipse fill-opacity="0.65" cx="50.167" cy="83.279" rx="36.786" ry="3.09"/>
	<path fill="#A75214" d="M20.291,62.71c0,0,0.936,11.098,0.535,12.167c-0.33,0.877-1.456,3.282-1.404,4.747
		c0.066,1.869,1.106,3.063,2.072,3.143c6.552,0.535,11.164-9.36,11.164-9.36c1.404,1.472,0.523,10.918,5.883,10.764
		c4.681-0.134,4.964-6.602,4.964-6.602c11.7,1.304,16.295-0.15,16.295-0.15s-1.938,2.607-1.537,4.881
		c0.18,1.021,0.933,2.209,1.671,2.472c6.552,2.341,10.095-7.72,14.507-11.465c0,0,1.938,1.938,2.005,4.012
		c0,0-0.138,2.253-0.201,3.209c-0.134,2.071,3.009,3.41,5.115,1.404c7.824-7.452,6.032-21.023,5.803-22.979
		c-0.813-6.985-4.567-15.228-4.567-15.228c-0.266-4.145,2.141-16.981-7.755-25.003c-6.833-5.542-12.702-5.081-14.439-5.081
		c-7.088,0-11.16,2.796-10.697,5.883c0.802,5.349,7.353,2.688,10.697,2.941c10.563,0.802,12.568,6.552,12.568,8.691
		c0,2.422-2.808,7.086-7.486,6.15c-5.37-1.074-12.971-2.273-19.655-9.626c1.938-4.747,2.322-6.108,1.604-8.023
		c-0.803-2.143-7.087-0.401-7.087-0.401s-2.139-1.069-3.477-1.07c-1.336-0.001-3.208,0.936-3.208,0.936s-2.006-2.273-4.012-2.14
		c-2.567,0.171-4.011,1.874-4.011,1.874s-2.206-0.87-3.677-0.603c-2,0.364-3.811,1.671-3.811,1.671s-1.464-1.021-3.208-0.803
		c-2.14,0.267-2.215,0.796-2.273,1.471c-0.103,1.199-0.223,3.631,0,4.813c0.194,1.028,0.535,2.407,1.873,3.744
		c-0.803,2.808-2.465,3.085-1.94,13.237C13.071,51.445,20.291,62.71,20.291,62.71z"/>
	<g>
		<polygon fill="#F58534" points="30.069,27.374 30.07,27.057 30.125,27.068 		"/>
		<path fill="#F58534" d="M18.486,26.074c3.744-0.333,6.752-1.336,7.822-3.743c0.792,0.235,1.499,0.478,2.126,0.553l-0.005,2.871
			L18.303,27.4l0.027,0.95l8.628-1.347L16.93,30.798l0.234,0.977l11.259-4.16l-0.01,5.33h1.638l0.015-4.878l11.741,3.721
			l0.285-0.961l-10.914-3.548l10.188,2.006l0.12-1.045l-11.413-2.325l0.009-2.975c1.611-0.104,2.341-0.726,2.341-0.726
			s3.109,5.39,8.925,3.384c2.407,3.209,3.902,4.238,4.737,5.045c-2.531,4.457,0.477,3.654,1.547,1.45
			c0.666,0.62,1.415,1.191,2.223,1.715c0.191,0.124-0.902,0.616-1.555,2.027c-0.401,0.869-0.2,4.278,1.939,1.939
			c0.21-0.23,0.535-0.603,1.424-2.914c0.596,0.313,1.212,0.603,1.836,0.875l-1.021,2.673c-1.89,6.465,3.172,1.635,2.766-1.967
			c0.739,0.277,1.48,0.53,2.212,0.76l-0.967,2.611c-1.298,8.291,3.42,1.758,2.863-2.06c1.444,0.389,3.054,0.756,3.054,0.756
			l-0.563,2.613c-1.077,8.567,2.498,0.58,2.617-2.258c0.832,0.133,1.603,0.185,2.313,0.164l0.244,2.289
			c1.601,8.003,3.4,1.185,1.617-2.532c1.017-0.238,1.881-0.631,2.606-1.127l1.292,2.154c2.491,4.384,5.024,1.44,0.137-3.418
			c0.513-0.588,0.908-1.215,1.202-1.83l2.069,1.018c2.674,0.315,3.772-1.928-1.417-3.046c0.024-0.158,0.04-0.309,0.047-0.445
			c0.032-0.652-0.011-1.294-0.119-1.922l1.389-0.351c2.446-1.586,0.317-2.874-1.929-1.481c-0.266-0.634-0.613-1.244-1.043-1.823
			l1.034-0.841c2.207-2.941-0.735-3.209-2.273-0.534l-1.955-1.471l0.552-1.153c0.461-2.329-2.27-1.315-2.155,0.322
			c-0.803-0.362-2.39-0.906-2.39-0.906l0.066-1.271c-0.261-1.504-1.719-1.132-1.971,0.825c-1.072-0.22-2.977-0.474-2.977-0.474
			l0.05-0.702c-0.067-1.805-2.5-2.169-2.206,0.652c0,0-1.438,0.157-2.312,0.28l-0.296-1.082c-0.197-0.854-2.179-1.185-1.821,1.323
			c-1.505,0.077-2.589-0.244-2.842-1.891c-0.454-2.95,3.811-4.145,8.558-4.211c1.633-0.023,7.583-0.172,13.3,4.093
			c9.029,6.737,7.826,20.24,7.558,24.585c0,0,3.903,7.948,4.729,14.702c0.237,1.939,2.023,14.245-5.398,21.265
			c-1.506,1.427-1.944-0.361-2.003-1.337c-0.057-0.913-0.036-1.297-0.001-2.071c0.063-1.47-2.542-5.014-2.542-5.014
			c6.151-5.281,6.845-12.268,6.699-12.435c-0.134-0.152-0.881,0.522-0.99,0.401c-0.274-0.307-1.295,6.885-6.977,11.231
			c-2.139,1.136-7.758,12.442-11.9,11.433c-0.604-0.147-2.808,0.085-2.808-1.271c0-1.405,6.919-11.047,1.404-18.786l-1.404,0.401
			c3.81,5.064,0.902,12.636,0.902,12.636c-5.465,1.755-16.948,0.201-16.948,0.201c0.201-9.226-1.103-12.535-1.103-12.535
			l-1.604-0.502c0,0,3.082,17.582-0.903,18.151l-3.677-0.569c-0.245-0.287-0.467-2.606-1.604-6.15
			c-0.268-0.869-6.251-11.6-6.853-12.535c-0.212-0.329-1.171-0.301-1.638,0.234c0.869,3.408,6,10.387,6,10.387l-7.27-6.041
			c0,0-9.561-11.365-10.696-23.536C13.304,32.637,17.951,26.743,18.486,26.074z"/>
	</g>
	<path fill="#FDB660" d="M43.556,75.412c0,0,10.53,1.604,16.947-0.2c0.802-2.608,2.407-7.421,0-11.231
		c-2.708,1.002-10.028,1.905-17.548,0.1C43.957,69.094,43.556,75.412,43.556,75.412z"/>
	<path fill="#FDB660" d="M36.203,80.093c0.903,2.707,2.941,3.142,4.545,0.333c0.389-0.68,0.802-2.105,0.802-2.105
		c-0.401-0.802-5.75-0.502-5.75-0.502S35.972,79.401,36.203,80.093z"/>
	<path fill="#F58534" d="M22.163,64.648c0,0,0.712,9.403,0.334,10.427c-0.309,0.839-1.027,3.219-1.471,4.549l5.281-0.502
		c3.008-2.373,4.814-6.251,4.814-6.251S25.238,69.797,22.163,64.648z"/>
	<path fill="#FDB660" d="M21.093,79.825c0.401,1.505,1.183,1.439,2.207,1.303c1.504-0.2,3.008-2.005,3.008-2.005
		c-0.3-1.806-4.346-2.439-4.346-2.439S20.905,79.121,21.093,79.825z"/>
	<path fill="#FDB660" d="M20.291,58.565c3.51,8.424,11.883,13.328,11.883,13.328s-6.769-9.818-7.772-15.936
		C23.099,52.949,17.082,50.643,20.291,58.565z"/>
	<path fill="#502C11" d="M29.015,48.136c-4.513,0-7.209-4.013-7.12-7.22c0.134-4.814,2.808-13.482,7.42-13.638
		c3.945-0.134,7.154,7.621,7.154,13.237C36.47,43.924,34.531,48.136,29.015,48.136z"/>
	<path fill="#FDB660" d="M59.534,81.63c-0.1,1.905,2.053,2.148,3.075,2.005c2.001-0.28,6.017-5.817,6.017-5.817
		c-5.014,2.207-8.323,1.204-8.323,1.204S59.572,80.902,59.534,81.63z"/>
	<path fill="#FDB660" d="M77.785,80.025c0,0.902,0.619,1.403,1.672,1.003c1.889-0.72,4.413-6.418,4.413-6.418
		c-3.945,3.342-5.683,2.675-5.683,2.675S77.785,79.296,77.785,80.025z"/>
	<path fill="#F58534" d="M41.45,20.559c0,0,4.286-1.222,4.58,0.366c0.334,1.807-0.067,2.743-1.571,5.75l-1.805-2.206
		C42.789,21.793,41.45,20.559,41.45,20.559z"/>
	<path fill="#F58534" d="M15.478,27.479c-1.069-0.534-1.471-1.67-1.604-2.339c-0.226-1.127-0.096-2.598,0-3.745
		c0.055-0.645,1.221-1.328,3.209-0.334c-1.203,1.604,0,3.61,0,3.61L15.478,27.479z"/>
	<path fill="#FFFFFF" d="M33.795,20.927c0.266,1.805,2.268,3.017,3.275,3.276c0.967,0.248,3.745,0.602,3.945-1.204
		c0.158-1.42-2.206-2.875-2.206-2.875c-0.769,2.941-3.477,0.835-2.607-0.602C36.203,19.523,33.648,19.935,33.795,20.927z"/>
	<path fill="#FFFFFF" d="M18.152,22.865c0.065,3.142,6.885,0.802,6.952-1.805c0.037-1.428-1.604-1.303-1.604-1.303
		c-0.602,2.808-3.108,1.805-2.474,0.1C21.025,19.857,18.109,20.843,18.152,22.865z"/>
	<path fill="#FDB660" d="M35.935,35.969c0.268-10.162-5.883-12.368-5.883-12.368l0.066,3.744
		C30.118,27.345,33.695,27.98,35.935,35.969z"/>
	<path fill="#FDB660" d="M22.664,35.769c-0.285-10.062,5.75-12.051,5.75-12.051l-0.101,3.694
		C28.313,27.412,25.205,27.747,22.664,35.769z"/>
	<ellipse fill="#FFFFFF" cx="29.617" cy="19.155" rx="1.504" ry="0.903"/>
	<path fill="#C2053C" d="M24.436,43.924c0,1.292,2.192,3.343,4.813,3.343s4.68-2.051,4.68-3.343c0-1.292-1.604-1.805-2.34-1.805
		c-0.342,0-1.445,0.052-1.939,0.334c-0.492,0.283-0.376,0.798-0.734,0.802c-0.317,0.003,0.072-0.546-0.536-0.802
		c-0.464-0.196-1.57-0.326-2.005-0.268C25.076,42.36,24.436,43.233,24.436,43.924z"/>
	<path fill="#FFFFFF" d="M27.511,31.4c-0.334-1.545,3.677-1.66,3.41,0.011l1.136-0.039c-1.036-4.111-4.747-4.22-5.616,0.028H27.511z
		"/>
	<path fill="#FFFFFF" d="M26.809,44.727c0.451,1.354,4.814,1.153,4.864,0.101l1.404,0.05c-0.501,3.209-7.521,3.259-7.521-0.25
		L26.809,44.727z"/>
	<path fill="#FDB660" d="M42.653,24.47c0,0,0.582,0.849,0.835,0.735c0.708-0.316,1.579-2.768,0.87-3.477
		c-0.284-0.283-2.081,0.159-2.081,0.159S42.779,23.066,42.653,24.47z"/>
	<path fill="#FDB660" d="M17.082,24.67c0,0-0.936,1.738-1.679,0.903c-0.516-0.58-1.161-3.152-0.452-3.861
		c0.283-0.284,1.654,0.201,1.654,0.201S16.305,23.542,17.082,24.67z"/>
</g>
<g>
	<path fill="none" d="M148.064,61.08c0.371,6.18-0.908,14.171-2.994,19.193c1.576-0.063,3.228-0.098,4.93-0.098
		c1.639,0,3.229,0.032,4.75,0.091c-2.278-5.854-2.613-15.566-3.008-19.38C149.807,61.661,149.613,61.854,148.064,61.08z"/>
	<path fill-opacity="0.65" d="M163.21,80.972c-0.966,2.509-2.186,3.988-3.727,3.978c-2.151-0.017-3.658-1.92-4.733-4.683
		c-1.521-0.059-3.111-0.091-4.75-0.091c-1.702,0-3.354,0.034-4.93,0.098c-1.181,2.843-2.619,4.737-4.166,4.805
		c-1.22,0.053-2.509-1.483-3.743-4.157c-4.223,0.568-6.901,1.41-6.901,2.352c0,1.71,8.838,3.097,19.74,3.097
		s19.74-1.387,19.74-3.097C169.74,82.359,167.219,81.538,163.21,80.972z"/>
	<path fill="#A75214" d="M137.74,78.845c0.014-0.006,0.027-0.01,0.042-0.016C137.756,78.835,137.738,78.841,137.74,78.845z"/>
	<path fill="#A75214" d="M140.904,85.078c1.547-0.067,2.985-1.962,4.166-4.805c2.086-5.022,3.365-13.014,2.994-19.193
		c1.549,0.774,1.742,0.581,3.678-0.193c0.395,3.813,0.729,13.526,3.008,19.38c1.075,2.763,2.582,4.666,4.733,4.683
		c1.541,0.011,2.761-1.469,3.727-3.978c1.667-4.332,2.572-11.74,3.047-19.892c0.701-12.047,0.067-25.568-1.673-33.253
		c0.555-0.488,0.945-1.183,1.093-2.164c0.149-1.001-0.317-1.954-1.254-2.787c1.997-3.297,4.049-7.054,2.027-8.148
		c-2.997-1.624-9.806,0.483-9.806,0.483c-3.936-2.129-11.741-2.064-15.677-0.064c0,0-8.741-2.528-9.946-0.577
		c-1.472,2.383,1.947,8.577,1.947,8.577c-4.729,18.556-0.708,47.154,4.192,57.773C138.396,83.595,139.685,85.131,140.904,85.078z
		 M165.783,16.068c0.335,1.742-0.434,3.936-2.214,6.166c-0.18-0.116-0.371-0.229-0.572-0.338c-0.462-0.77-0.911-1.438-1.339-2.019
		c-0.009-0.012-0.019-0.024-0.026-0.036c-1.927-2.604-3.407-3.425-3.568-3.726C158.063,16.115,165.478,14.477,165.783,16.068z
		 M150,18.372V15.62c2,0.102,4.656,0.58,6.548,1.592c1.041,0.926,2.003,2.06,2.812,3.359c-1.703-0.41-3.638-0.645-5.75-0.645
		c-0.639,0-1.823-0.061-3.419,0.134l-0.1-0.551C156.623,20.875,158,17.064,150,18.372z M132.43,15.746
		c0.294-1.591,6.797,0.305,6.797,0.305s-2.968,1.162-5.223,5.458C131.872,18.502,132.095,17.557,132.43,15.746z M137.74,78.845
		c-2.054-4.323-11.787-55.891,2.922-61.762c1.9-0.677,3.338-1.181,6.338-1.385v2.675c-9-1.308-6.438,2.503,0.096,1.137l0.04,1.183
		c-0.301,0.088-0.594,0.185-0.908,0.294c-4.688-0.484-6.474,1.128-3.104,1.374c-0.704,0.378-1.425,0.814-2.165,1.319
		c-0.909,0.193-1.345,0.554-1.261,0.917c-0.18,0.138-0.357,0.277-0.538,0.424c-6.473,5.248-0.837,19.03,3.163,26.384
		c-0.037,2.062,1.035,3.415,2.606,4.185c-0.467-0.96-0.707-2.038-0.557-3.159c-1.765-6.326-11.06-21.199-3.212-26.916
		c6.969-5.075,11.693-4.125,13.33-4.102c4.757,0.067,10.093,1.489,9.638,4.446c-0.253,1.65-2.401,1.748-3.91,1.671
		c-21.685-2.95-15.266,14.583-7.912,18.668c0.009,0.005,0.019,0.011,0.027,0.016c0.019,0.01,0.037,0.021,0.055,0.031l-0.003,0.002
		c1.649,0.989,2.885,3.039,2.841,6.191c0.047,0.747-0.031,1.452-0.2,2.108c0.788-0.587,1.371-1.296,1.619-2.109
		c1.678-5.483-5.097-8.967-5.097-8.967c-2.285-1.905-5.433-6.337-4.204-10.013l0.5,4.014c0.56,0.387,1.188,0.338,1.766,0
		l0.584-4.599c10.79,1.422,7.209-3.495-0.048-1.39l0.025-1.293c0.724-0.437,1.596-0.829,2.632-1.166
		c1.209-0.063,2.101-0.219,2.695-0.417c2.182,0.039,5.045,0.562,7.19,0.102c4.97,19.201-0.35,50.913-0.35,50.913
		c-0.118,0.387-0.985,4.104-3.066,3.911c-2.231-0.208-3.17-4.038-3.079-3.871l0,0l0,0c-2.678-8.128-3.086-15.504-2.722-22.212
		c-1.116,1.254-2.551,1.979-3.665,1.956c-1.143-0.024-2.687-0.603-3.846-1.954C147.639,65.588,144.194,79,144.194,79
		s-0.005,0-0.007,0h0.007c-0.036,0-2.032,4.152-3.388,4.055C139.331,82.949,137.74,78.845,137.74,78.845z"/>
	<path fill="#F58534" d="M144.188,79c0.002,0,0.007,0,0.007,0s3.444-13.412,1.767-21.551c1.159,1.352,2.703,2.079,3.846,2.104
		c1.114,0.023,2.549-0.777,3.665-2.031c-0.364,6.708,0.044,14.046,2.722,22.174l0,0c0.813-0.387,6.176-0.155,6.146-0.059
		c0,0,5.319-31.721,0.35-50.922c-2.146,0.459-5.009-0.068-7.19-0.106c-0.595,0.198-1.486,0.351-2.695,0.415
		c-1.036,0.336-1.908,0.727-2.632,1.164l-0.025,1.293c7.257-2.104,10.838,2.812,0.048,1.39l-0.584,4.599
		c-0.577,0.338-1.206,0.387-1.766,0l-0.5-4.014c-1.229,3.676,1.919,8.108,4.204,10.013c0,0,6.774,3.483,5.097,8.967
		c-0.248,0.813-0.831,1.522-1.619,2.109c0.169-0.656,0.247-1.361,0.2-2.108c0.044-3.152-1.191-5.202-2.841-6.191l0.003-0.002
		c-0.018-0.01-0.036-0.021-0.055-0.031c-0.009-0.005-0.019-0.011-0.027-0.016c-7.354-4.085-13.772-21.618,7.912-18.668
		c1.509,0.077,3.657-0.021,3.91-1.671c0.455-2.957-4.881-4.379-9.638-4.446c-1.637-0.023-6.361-0.973-13.33,4.102
		c-7.848,5.716,1.448,20.589,3.213,26.916c-0.149,1.121,0.09,2.199,0.557,3.159c-1.571-0.77-2.644-2.123-2.606-4.185
		c-4-7.354-9.635-21.137-3.162-26.384c0.181-0.146,0.359-0.286,0.539-0.424c-0.084-0.363,0.353-0.724,1.262-0.917
		c0.74-0.504,1.464-0.94,2.168-1.319c-3.37-0.245-1.578-1.857,3.109-1.374c0.314-0.109,0.62-0.206,0.921-0.294l-0.064-1.183
		c-6.533,1.366-9.096-2.445-0.096-1.137v-2.675c-3,0.205-4.438,0.708-6.338,1.385c-14.709,5.871-5,57.439-2.946,61.762
		c-0.002-0.004,0.028,0.29,0.055,0.284C140.7,77.916,144.115,79,144.188,79z M150.322,51.791c0.713,0,1.29,0.692,1.29,1.548
		s-0.577,1.548-1.29,1.548c-0.712,0-1.29-0.692-1.29-1.548S149.61,51.791,150.322,51.791z"/>
	<path fill="#F58534" d="M150.097,19.51l0.058,0.551c1.596-0.195,2.816-0.134,3.455-0.134c2.112,0,4.084,0.235,5.786,0.645
		c-0.808-1.299-1.813-2.434-2.854-3.359C154.65,16.199,152,15.721,150,15.62v2.752C158,17.064,156.629,20.875,150.097,19.51z"/>
	<path fill="#FDB660" d="M140.807,83.055c1.355,0.098,3.352-4.055,3.388-4.055h-0.007c-0.072,0-3.476-1.084-6.405,0.129
		c-0.015,0.006-0.028,0.01-0.042,0.016C137.74,79.145,139.331,82.949,140.807,83.055z"/>
	<path fill="#F58534" d="M139.227,16.051c0,0-6.503-1.896-6.797-0.305c-0.335,1.811-0.558,2.757,1.574,5.764
		C136.259,17.212,139.227,16.051,139.227,16.051z"/>
	<path fill="#FDB660" d="M156.193,79.659L156.193,79.659c-0.091,0,0.848,3.663,3.079,3.871c2.081,0.193,2.948-3.523,3.066-3.911
		C162.369,79.522,157.006,79.272,156.193,79.659z"/>
	<path fill="#F58534" d="M161.632,19.84c0.008,0.012,0.018,0.024,0.026,0.036c0.428,0.581,0.877,1.25,1.339,2.019
		c0.201,0.109,0.393,0.222,0.572,0.338c1.78-2.23,2.549-4.424,2.214-6.166c-0.306-1.591-7.72,0.047-7.72,0.047
		C158.225,16.415,159.705,17.236,161.632,19.84z"/>
	<ellipse fill="#FDB660" cx="150.322" cy="53.339" rx="1.29" ry="1.548"/>
</g>
<g>
	<ellipse fill-opacity="0.65" cx="250.357" cy="83.268" rx="36.785" ry="3.101"/>
	<path fill="#A75214" d="M279.71,62.886c0,0-0.937,11.136-0.535,12.209c0.329,0.88,1.456,3.294,1.403,4.764
		c-0.066,1.876-1.105,3.074-2.072,3.154c-6.551,0.537-11.163-9.394-11.163-9.394c-1.403,1.477-0.522,10.956-5.883,10.802
		c-4.681-0.135-4.964-6.625-4.964-6.625c-11.7,1.308-16.297-0.151-16.297-0.151s1.939,2.617,1.538,4.898
		c-0.181,1.024-0.933,2.217-1.671,2.48c-6.552,2.349-10.096-7.747-14.508-11.506c0,0-1.938,1.945-2.005,4.026
		c0,0,0.139,2.261,0.2,3.22c0.135,2.079-3.008,3.423-5.113,1.41c-7.825-7.479-6.033-21.098-5.806-23.061
		c0.813-7.01,4.568-15.282,4.568-15.282c0.267-4.16-2.141-17.041,7.755-25.092c6.834-5.561,12.702-5.099,14.439-5.099
		c7.088,0,11.16,2.806,10.697,5.904c-0.803,5.368-7.354,2.697-10.697,2.952c-10.563,0.805-12.568,6.575-12.567,8.722
		c0.001,2.431,2.808,7.111,7.486,6.172c5.37-1.077,12.97-2.281,19.655-9.661c-1.939-4.764-2.322-6.129-1.604-8.051
		c0.802-2.15,7.087-0.403,7.087-0.403s2.139-1.072,3.478-1.074c1.336,0,3.208,0.939,3.208,0.939s2.006-2.281,4.013-2.146
		c2.566,0.171,4.01,1.88,4.01,1.88s2.206-0.873,3.677-0.604c2.002,0.365,3.811,1.677,3.811,1.677s1.465-1.024,3.209-0.806
		c2.141,0.269,2.215,0.799,2.273,1.476c0.104,1.203,0.224,3.644,0,4.831c-0.193,1.033-0.535,2.416-1.872,3.757
		c0.803,2.818,2.464,3.097,1.939,13.285C286.93,51.58,279.71,62.886,279.71,62.886z"/>
	<g>
		<polygon fill="#F58534" points="269.932,27.422 269.931,27.105 269.876,27.116 		"/>
		<path fill="#F58534" d="M281.515,26.119c-3.743-0.335-6.752-1.341-7.821-3.756c-0.791,0.235-1.499,0.479-2.127,0.555l0.006,2.881
			l10.126,1.65l-0.026,0.953l-8.629-1.351l10.027,3.808l-0.232,0.98l-11.26-4.174l0.01,5.349h-1.639l-0.015-4.896l-11.74,3.734
			l-0.285-0.965l10.915-3.56l-10.189,2.013l-0.12-1.049l11.413-2.333l-0.009-2.986c-1.611-0.105-2.342-0.729-2.342-0.729
			s-3.108,5.409-8.925,3.396c-2.406,3.221-3.902,4.253-4.737,5.063c2.531,4.473-0.477,3.667-1.547,1.455
			c-0.666,0.623-1.415,1.195-2.224,1.721c-0.189,0.125,0.903,0.619,1.555,2.035c0.402,0.872,0.201,4.293-1.938,1.946
			c-0.211-0.231-0.535-0.604-1.425-2.924c-0.596,0.313-1.211,0.605-1.836,0.878l1.021,2.683c1.889,6.488-3.174,1.641-2.766-1.974
			c-0.74,0.278-1.48,0.532-2.213,0.763l0.967,2.62c1.299,8.32-3.42,1.764-2.863-2.067c-1.443,0.391-3.053,0.759-3.053,0.759
			l0.563,2.623c1.076,8.598-2.498,0.582-2.617-2.266c-0.832,0.134-1.604,0.185-2.314,0.164l-0.244,2.297
			c-1.602,8.032-3.4,1.188-1.616-2.541c-1.017-0.238-1.882-0.633-2.606-1.131l-1.293,2.162c-2.49,4.399-5.023,1.445-0.137-3.431
			c-0.514-0.59-0.908-1.22-1.202-1.836l-2.069,1.021c-2.674,0.316-3.771-1.935,1.417-3.057c-0.024-0.159-0.04-0.31-0.047-0.446
			c-0.032-0.654,0.011-1.299,0.119-1.929l-1.39-0.353c-2.445-1.592-0.316-2.884,1.93-1.487c0.267-0.635,0.613-1.249,1.043-1.83
			l-1.034-0.843c-2.206-2.952,0.735-3.22,2.273-0.537l1.955-1.477l-0.552-1.157c-0.461-2.337,2.27-1.32,2.156,0.322
			c0.803-0.362,2.39-0.909,2.39-0.909l-0.065-1.275c0.26-1.509,1.719-1.137,1.971,0.828c1.07-0.221,2.976-0.475,2.976-0.475
			l-0.05-0.705c0.066-1.812,2.5-2.177,2.205,0.654c0,0,1.438,0.157,2.313,0.281l0.295-1.086c0.197-0.856,2.18-1.188,1.821,1.328
			c1.505,0.077,2.589-0.245,2.843-1.897c0.453-2.96-3.811-4.16-8.558-4.227c-1.634-0.023-7.583-0.173-13.3,4.107
			c-9.031,6.762-7.828,20.312-7.561,24.673c0,0-3.902,7.977-4.729,14.754c-0.237,1.947-2.023,14.296,5.398,21.342
			c1.507,1.431,1.943-0.363,2.004-1.343c0.057-0.917,0.035-1.302,0.001-2.078c-0.063-1.476,2.54-5.032,2.54-5.032
			c-6.15-5.3-6.844-12.312-6.697-12.479c0.134-0.153,0.881,0.524,0.99,0.402c0.275-0.307,1.295,6.909,6.978,11.271
			c2.14,1.141,7.757,12.486,11.899,11.474c0.604-0.148,2.809,0.085,2.809-1.276c0-1.41-6.92-11.086-1.404-18.852l1.404,0.401
			c-3.811,5.083-0.902,12.681-0.902,12.681c5.465,1.762,16.947,0.202,16.947,0.202c-0.201-9.259,1.104-12.58,1.104-12.58
			l1.604-0.503c0,0-3.082,17.644,0.902,18.216l3.678-0.572c0.244-0.288,0.467-2.615,1.604-6.172
			c0.267-0.871,6.252-11.641,6.852-12.579c0.213-0.331,1.171-0.302,1.639,0.234c-0.869,3.422-6,10.424-6,10.424l7.27-6.063
			c0,0,9.561-11.405,10.695-23.619C286.696,32.705,282.05,26.79,281.515,26.119z"/>
	</g>
	<path fill="#FDB660" d="M256.445,75.632c0,0-10.529,1.61-16.947-0.201c-0.803-2.616-2.407-7.447,0-11.271
		c2.707,1.007,10.027,1.912,17.549,0.102C256.044,69.292,256.445,75.632,256.445,75.632z"/>
	<path fill="#FDB660" d="M263.799,80.329c-0.903,2.717-2.941,3.152-4.546,0.334c-0.39-0.682-0.802-2.113-0.802-2.113
		c0.4-0.804,5.749-0.503,5.749-0.503S264.029,79.635,263.799,80.329z"/>
	<path fill="#F58534" d="M277.838,64.831c0,0-0.712,9.437-0.334,10.463c0.309,0.842,1.027,3.229,1.471,4.564l-5.281-0.503
		c-3.009-2.382-4.813-6.273-4.813-6.273S274.762,69.996,277.838,64.831z"/>
	<path fill="#FDB660" d="M278.908,80.061c-0.402,1.51-1.184,1.445-2.207,1.308c-1.504-0.201-3.008-2.013-3.008-2.013
		c0.301-1.812,4.346-2.447,4.346-2.447S279.096,79.354,278.908,80.061z"/>
	<path fill="#FDB660" d="M279.71,58.726c-3.51,8.453-11.884,13.375-11.884,13.375s6.77-9.854,7.772-15.992
		C276.902,53.089,282.919,50.774,279.71,58.726z"/>
	<path fill="#502C11" d="M270.985,48.259c4.513,0,7.21-4.027,7.12-7.245c-0.134-4.831-2.808-13.53-7.421-13.687
		c-3.944-0.135-7.153,7.648-7.153,13.284C263.531,44.032,265.471,48.259,270.985,48.259z"/>
	<path fill="#FDB660" d="M240.467,81.872c0.101,1.911-2.053,2.155-3.075,2.012c-2.001-0.281-6.017-5.838-6.017-5.838
		c5.014,2.215,8.323,1.208,8.323,1.208S240.429,81.142,240.467,81.872z"/>
	<path fill="#FDB660" d="M222.217,80.262c0,0.905-0.619,1.409-1.672,1.006c-1.889-0.721-4.412-6.44-4.412-6.44
		c3.944,3.354,5.682,2.685,5.682,2.685S222.217,79.529,222.217,80.262z"/>
	<path fill="#F58534" d="M258.551,20.584c0,0-4.286-1.226-4.579,0.367c-0.334,1.814,0.066,2.753,1.571,5.771l1.805-2.214
		C257.212,21.823,258.551,20.584,258.551,20.584z"/>
	<path fill="#F58534" d="M284.523,27.528c1.069-0.536,1.471-1.676,1.604-2.347c0.227-1.132,0.098-2.607,0-3.758
		c-0.055-0.648-1.221-1.333-3.208-0.335c1.202,1.61,0,3.623,0,3.623L284.523,27.528z"/>
	<path fill="#FFFFFF" d="M266.205,20.953c-0.266,1.812-2.268,3.028-3.275,3.288c-0.967,0.249-3.744,0.604-3.945-1.208
		c-0.156-1.425,2.207-2.884,2.207-2.884c0.77,2.952,3.477,0.838,2.607-0.604C263.799,19.544,266.352,19.958,266.205,20.953z"/>
	<path fill="#FFFFFF" d="M281.849,22.899c-0.065,3.153-6.885,0.804-6.952-1.812c-0.037-1.433,1.604-1.308,1.604-1.308
		c0.603,2.818,3.109,1.812,2.475,0.101C278.976,19.879,281.892,20.869,281.849,22.899z"/>
	<path fill="#FDB660" d="M264.066,36.049c-0.268-10.198,5.883-12.412,5.883-12.412l-0.066,3.757
		C269.883,27.394,266.307,28.031,264.066,36.049z"/>
	<path fill="#FDB660" d="M277.336,35.848c0.285-10.097-5.748-12.093-5.748-12.093l0.1,3.707
		C271.688,27.461,274.796,27.797,277.336,35.848z"/>
	<ellipse fill="#FFFFFF" cx="270.383" cy="19.175" rx="1.506" ry="0.906"/>
	<path fill="#C2053C" d="M275.565,44.032c0,1.296-2.192,3.354-4.813,3.354c-2.622,0-4.68-2.058-4.68-3.354
		c0-1.297,1.604-1.812,2.34-1.812c0.342,0,1.445,0.052,1.939,0.335c0.492,0.284,0.376,0.801,0.734,0.805
		c0.316,0.003-0.072-0.548,0.535-0.805c0.465-0.196,1.57-0.327,2.006-0.269C274.924,42.462,275.565,43.338,275.565,44.032z"/>
	<path fill="#FFFFFF" d="M272.49,31.463c0.334-1.55-3.677-1.666-3.41,0.011l-1.135-0.039c1.035-4.126,4.745-4.235,5.614,0.028
		H272.49z"/>
	<path fill="#FFFFFF" d="M273.191,44.837c-0.451,1.358-4.813,1.157-4.863,0.101l-1.404,0.05c0.502,3.22,7.521,3.271,7.521-0.251
		L273.191,44.837z"/>
	<path fill="#FDB660" d="M257.348,24.509c0,0-0.582,0.852-0.836,0.739c-0.707-0.318-1.578-2.778-0.869-3.489
		c0.283-0.285,2.082,0.159,2.082,0.159S257.222,23.1,257.348,24.509z"/>
	<path fill="#FDB660" d="M282.919,24.71c0,0,0.937,1.744,1.681,0.905c0.516-0.582,1.16-3.163,0.451-3.875
		c-0.283-0.285-1.654,0.202-1.654,0.202S283.695,23.578,282.919,24.71z"/>
</g>
<g>
	<ellipse fill-opacity="0.65" cx="350" cy="83.296" rx="19.592" ry="3.073"/>
	<g>
		<path fill="none" d="M339.309,40.9c-0.004,0.265,0.044,0.48,0.14,0.632l2.156-0.935c0.163-0.216,0.329-0.467,0.495-0.745
			L339.309,40.9z"/>
		<path fill="#A75214" d="M354.279,13.641c-1.729,0-7.565-0.458-14.364,5.054c-9.843,7.98-7.449,20.749-7.714,24.871l1.732-0.649
			c-0.317-5.101-0.803-17.219,7.581-23.475c5.687-4.243,11.605-4.094,13.23-4.072c4.721,0.066,8.963,1.255,8.512,4.189
			c-0.252,1.638-1.33,1.958-2.827,1.881c0.356-2.495-1.616-2.166-1.812-1.316l-0.294,1.076c-0.87-0.123-2.299-0.278-2.299-0.278
			c0.291-2.806-2.128-2.444-2.195-0.648l0.05,0.698c0,0-1.895,0.252-2.961,0.471c-0.249-1.947-1.7-2.317-1.96-0.82l0.066,1.264
			c0,0-1.579,0.542-2.378,0.901c0.113-1.628-2.603-2.636-2.145-0.319l0.55,1.147l-1.945,1.463c-1.529-2.661-4.456-2.394-2.262,0.531
			l1.029,0.836c-0.428,0.576-0.772,1.184-1.038,1.813c-2.233-1.385-4.353-0.104-1.919,1.474l1.382,0.35
			c-0.107,0.625-0.149,1.263-0.118,1.912c0.007,0.135,0.023,0.285,0.047,0.442c-5.161,1.112-4.07,3.344-1.409,3.03l2.058-1.013
			c0.293,0.611,0.686,1.235,1.196,1.82c-2.005,1.993-2.75,3.659-2.764,4.625l2.791-1.047c0.037-0.061,0.072-0.114,0.109-0.178
			l1.286-2.143c0.609,0.417,1.325,0.754,2.142,0.994l3.587-1.345c-4.653,0.931-7.446-3.708-7.446-6.118
			c-0.001-2.128,1.994-7.847,12.501-8.645c3.326-0.252,9.842,2.394,10.641-2.926C365.379,16.421,361.329,13.641,354.279,13.641z"/>
		<path fill="#F58534" d="M339.309,40.9c0.015-0.967,0.76-2.632,2.765-4.625c-0.511-0.585-0.904-1.209-1.196-1.82l-2.059,1.013
			c-2.661,0.313-3.752-1.918,1.41-3.03c-0.024-0.158-0.041-0.307-0.048-0.443c-0.031-0.648,0.012-1.287,0.119-1.912l-1.383-0.35
			c-2.433-1.578-0.314-2.859,1.92-1.474c0.265-0.63,0.609-1.237,1.037-1.813l-1.029-0.836c-2.193-2.925,0.732-3.192,2.263-0.531
			l1.944-1.463l-0.549-1.147c-0.459-2.317,2.257-1.309,2.144,0.319c0.799-0.359,2.378-0.901,2.378-0.901l-0.065-1.264
			c0.259-1.497,1.71-1.127,1.959,0.82c1.066-0.219,2.961-0.471,2.961-0.471l-0.05-0.698c0.067-1.796,2.487-2.158,2.195,0.648
			c0,0,1.43,0.155,2.299,0.278l0.294-1.076c0.196-0.85,2.168-1.178,1.812,1.316c1.497,0.077,2.575-0.243,2.827-1.881
			c0.451-2.934-3.791-4.123-8.512-4.189c-1.624-0.022-7.544-0.171-13.229,4.071c-8.384,6.256-7.898,18.374-7.58,23.475
			c0.022,0.363,0.044,0.694,0.062,0.981l5.453-2.364C339.353,41.381,339.305,41.166,339.309,40.9z"/>
		<path fill="#F58534" d="M341.604,40.598l-2.155,0.935C339.781,42.061,340.648,41.855,341.604,40.598z"/>
		<path fill="#F58534" d="M342.21,39.675c-0.037,0.064-0.073,0.117-0.109,0.178c-0.167,0.277-0.332,0.529-0.496,0.745l4.483-1.944
			c-0.155-0.037-0.302-0.083-0.451-0.127c-0.816-0.24-1.532-0.577-2.142-0.994L342.21,39.675z"/>
	</g>
	<g>
		<path fill="none" d="M362.389,29.112c0,0.083,0.085,0.164,0.081,0.244c0,0.001,0.001,0.001,0.002,0.003
			c-0.001-0.001-0.002-0.002-0.002-0.003C362.474,29.271,362.389,29.189,362.389,29.112z"/>
		<path fill="none" d="M362.13,31.33l1.484,2.607c0.003-0.001,0.005-0.003,0.008-0.004l-1.447-2.533
			C362.158,31.374,362.144,31.352,362.13,31.33z"/>
		<path fill="none" d="M362.386,30.283c-0.024,0.081-0.05,0.156-0.075,0.227c0.01-0.03,0.025-0.06,0.035-0.091
			C362.359,30.374,362.374,30.328,362.386,30.283z"/>
		<path fill="#A75214" d="M337.753,34.693l0.119,1.04l6.974-1.373c0.241-0.468,0.497-0.889,0.762-1.267L337.753,34.693z"/>
		<path fill="#A75214" d="M349.065,33.585l-0.004,0.219c0,0-0.185,0.033-0.493,0.176c0.177-0.071,0.356-0.131,0.537-0.171
			L349.065,33.585z"/>
		<path fill="#A75214" d="M337.15,37.267l0.283,0.957l6.676-2.116c0.152-0.454,0.322-0.874,0.503-1.266L337.15,37.267z"/>
		<path fill="#A75214" d="M360.787,34.804l0.027-0.945l-6.844-1.111c0.253,0.328,0.502,0.698,0.739,1.107L360.787,34.804z"/>
		<path fill="#A75214" d="M361.946,38.21l0.233-0.972l-7.099-2.686c0.196,0.404,0.379,0.845,0.546,1.322L361.946,38.21z"/>
		<path fill="#A75214" d="M364.555,35.599c2.156-3.524,4.749-8.038,2.444-9.287c-2.975-1.611-6.034,0.11-6.034,0.11
			s-1.801-1.3-3.79-1.662c-1.464-0.266-3.658,0.6-3.658,0.6s-1.436-1.694-3.989-1.864c-1.994-0.133-3.991,2.128-3.991,2.128
			s-1.861-0.932-3.19-0.931c-1.331,0-3.459,1.064-3.459,1.064s-6.251-1.732-7.05,0.399c-0.714,1.905-0.332,3.259,1.596,7.98
			c0,0-2.009,10.904-2.032,14.585c-0.128,20.744,5.717,36.618,10.372,36.751c5.332,0.152,7.455-11.044,8.707-11.044
			c2.018,0,2.305,11.004,7.556,10.979c7.043-0.031,8.964-28.043,8.45-36.642C365.882,38.672,365.354,38.392,364.555,35.599z
			 M355.645,26.256c0.599,2.793,3.093,1.795,2.461,0.1c0,0,2.901,0.98,2.858,2.992c-0.065,3.126-6.849,0.798-6.916-1.795
			C354.012,26.132,355.645,26.256,355.645,26.256z M349.56,24.76c0.826,0,1.497,0.402,1.497,0.897s-0.67,0.898-1.497,0.898
			c-0.826,0-1.496-0.402-1.496-0.898S348.733,24.76,349.56,24.76z M340.416,26.622c0.765,2.926,3.459,0.831,2.593-0.599
			c0,0,2.541,0.41,2.395,1.397c-0.265,1.795-2.256,3.001-3.258,3.259c-0.962,0.247-3.725,0.599-3.924-1.198
			C338.064,28.068,340.416,26.622,340.416,26.622z M333.234,27.418c0.292-1.579,4.555-0.364,4.555-0.364s-1.332,1.228-1.197,3.891
			c0,0-0.2,0.292-0.417,0.509l-1.378,1.685C333.301,30.146,332.901,29.216,333.234,27.418z"/>
		<polygon fill="#F58534" points="349.106,33.809 349.11,33.808 349.109,33.518 349.065,33.526 349.065,33.585 		"/>
		<path fill="#F58534" d="M352.852,28.817c-0.787,0.233-1.49,0.475-2.115,0.55l0.006,2.856l0.071,0.012l-0.057-2.038
			c0,0,1.676,0.553,3.215,2.551l6.843,1.111l-0.026,0.945l-6.077-0.949c0.127,0.22,0.251,0.452,0.371,0.698l7.099,2.686
			l-0.232,0.972l-6.32-2.335c0.566,1.627,0.924,3.691,0.85,6.308c-0.151-0.478-0.304-0.926-0.458-1.35
			c0.753,2.259,1.173,4.643,1.224,6.47c0.089,3.191-2.594,7.181-7.083,7.181c-5.486,0-7.415-4.189-7.415-7.581
			c0-2.005,0.413-4.283,1.122-6.375c-0.204,0.57-0.401,1.184-0.59,1.854c-0.067-2.574,0.28-4.632,0.834-6.274l-6.676,2.115
			l-0.283-0.957l7.461-2.425c0.075-0.166,0.153-0.326,0.233-0.48l-6.975,1.373l-0.119-1.04l7.854-1.6
			c1.52-2.174,3.258-2.912,3.49-3.003l-0.002-0.669c-1.603-0.104-2.329-0.722-2.329-0.722s-3.093,5.362-8.877,3.367
			c-9.179,15.631-1.039,43.698,0.999,47.988c-0.029-0.096-0.047-0.154-0.047-0.154c0.399-0.798,6.452-0.285,6.452-0.285
			s3.361-7.107,5.187-7.331c2.497,0.032,2.833,4.134,4.418,7.043c0.804-0.552,5.273-0.235,6.146-0.194c0,0,8.643-34.86-0.413-46.592
			C356.908,32.208,353.915,31.211,352.852,28.817z M350.48,72.283c0,0-6.019-3.329-5.379-7.042c0-8.836,10.885-9.092,10.757,0.128
			C356.114,69.466,350.48,72.283,350.48,72.283z"/>
		<path fill="#F58534" d="M352.285,34.641l-0.101-0.037c0.247,0.182,0.485,0.388,0.714,0.617
			C352.683,34.99,352.477,34.799,352.285,34.641z"/>
		<polygon fill="#F58534" points="349.105,32.381 349.103,31.47 349.087,32.386 		"/>
		<path fill="#FDB660" d="M338.842,79.9c0,0,0.018,0.058,0.047,0.154c0.117,0.384,1.579,3.776,3.044,3.881
			c1.345,0.097,3.326-4.011,3.361-4.321c0.006-0.045-0.732-0.213-0.732-0.213S339.241,79.103,338.842,79.9z"/>
		<path fill="#FDB660" d="M345.102,65.241c-0.64,3.713,5.379,7.042,5.379,7.042s5.634-2.817,5.378-6.914
			C355.986,56.149,345.102,56.405,345.102,65.241z"/>
		<path fill="#502C11" d="M348.568,33.98c-0.938,0.434-3.037,1.89-4.703,6.549c-0.709,2.092-1.122,4.37-1.122,6.375
			c0,3.392,1.929,7.581,7.415,7.581c4.489,0,7.172-3.991,7.083-7.182c-0.051-1.826-0.471-4.21-1.224-6.469
			c-1.066-2.929-2.191-4.629-3.118-5.613c-0.229-0.229-0.468-0.436-0.714-0.617c-0.708-0.522-1.483-0.838-2.326-0.867
			c-0.253-0.008-0.503,0.017-0.749,0.071c-0.002,0-0.003,0-0.004,0.001C348.925,33.849,348.745,33.909,348.568,33.98z
			 M354.714,50.296c0,0.817-0.885,1.938-2.199,2.648c-1.466,0.979-4.058,0.89-5.46-0.194c-1.091-0.708-1.784-1.707-1.784-2.454
			c0-1.286,1.596-1.796,2.328-1.796c0.34,0,1.438,0.051,1.929,0.333c0.489,0.282,0.374,0.794,0.73,0.798
			c0.315,0.003-0.072-0.544,0.533-0.798c0.462-0.194,1.562-0.324,1.994-0.266C354.076,48.739,354.714,49.607,354.714,50.296z
			 M352.719,37.837h-1.064c0.333-1.537-3.657-1.651-3.392,0.011l-1.13-0.039C348.164,33.72,351.854,33.612,352.719,37.837z"/>
		<path fill="#F58534" d="M336.176,31.454c-0.151,0.152-0.311,0.269-0.414,0.222c-0.704-0.315-1.57-2.753-0.865-3.458
			c0.282-0.282,2.07,0.158,2.07,0.158s-0.498,1.172-0.374,2.569c-0.136-2.663,1.196-3.89,1.196-3.89s-4.263-1.215-4.555,0.364
			c-0.332,1.797,0.066,2.729,1.563,5.72L336.176,31.454z"/>
		<path fill="#FFFFFF" d="M342.146,30.679c1.002-0.258,2.993-1.463,3.258-3.259c0.146-0.987-2.395-1.397-2.395-1.397
			c0.866,1.43-1.828,3.525-2.593,0.599c0,0-2.352,1.447-2.194,2.859C338.421,31.277,341.184,30.926,342.146,30.679z"/>
		<path fill="#FFFFFF" d="M360.964,29.348c0.043-2.012-2.857-2.992-2.857-2.992c0.631,1.696-1.863,2.693-2.461-0.1
			c0,0-1.633-0.124-1.596,1.296C354.116,30.146,360.898,32.474,360.964,29.348z"/>
		<path fill="#FDB660" d="M345.607,33.094c-0.265,0.377-0.521,0.799-0.762,1.267c-0.08,0.155-0.158,0.315-0.233,0.48
			c-0.181,0.392-0.35,0.813-0.503,1.266c-0.554,1.642-0.902,3.7-0.834,6.275c0.188-0.67,0.386-1.284,0.59-1.854
			c1.666-4.659,3.766-6.115,4.703-6.548c0.309-0.143,0.493-0.176,0.493-0.176l0.004-0.219v-0.059l0.021-1.141l0.016-0.916
			l0.024-1.39c0,0-0.011,0.004-0.029,0.011C348.865,30.182,347.127,30.92,345.607,33.094z"/>
		<path fill="#FDB660" d="M352.899,35.221c0.927,0.984,2.052,2.684,3.118,5.613c0.154,0.424,0.308,0.872,0.458,1.35
			c0.074-2.618-0.283-4.681-0.849-6.308c-0.167-0.478-0.35-0.918-0.546-1.323c-0.12-0.245-0.244-0.477-0.372-0.697
			c-0.236-0.41-0.485-0.779-0.738-1.107c-1.539-1.998-3.214-2.552-3.214-2.552l0.056,2.039l0.044,1.636c0,0,0.573,0.063,1.429,0.77
			C352.477,34.799,352.683,34.99,352.899,35.221z"/>
		<ellipse fill="#FFFFFF" cx="349.56" cy="25.657" rx="1.497" ry="0.898"/>
		<path fill="#C2053C" d="M350.791,48.833c-0.604,0.254-0.217,0.801-0.533,0.798c-0.356-0.004-0.24-0.516-0.73-0.798
			c-0.49-0.281-1.589-0.333-1.929-0.333c-0.731,0-2.328,0.51-2.328,1.795c0,0.747,0.694,1.747,1.785,2.455
			c-0.492-0.381-0.84-0.883-0.937-1.508l1.396-0.049c0.05,1.048,4.39,1.247,4.838-0.101l1.247-0.1c0,0.866-0.43,1.514-1.084,1.95
			c1.313-0.709,2.198-1.831,2.198-2.648c0-0.688-0.637-1.557-1.929-1.729C352.353,48.509,351.253,48.638,350.791,48.833z"/>
		<path fill="#FFFFFF" d="M347.133,37.81l1.13,0.039c-0.266-1.662,3.725-1.548,3.393-0.011h1.064
			C351.854,33.612,348.164,33.72,347.133,37.81z"/>
		<path fill="#FFFFFF" d="M353.6,50.994l-1.247,0.1c-0.448,1.347-4.788,1.147-4.838,0.1l-1.396,0.05
			c0.097,0.625,0.444,1.127,0.937,1.507c1.401,1.084,3.993,1.173,5.46,0.194C353.17,52.508,353.6,51.859,353.6,50.994z"/>
		<path fill="#FDB660" d="M336.967,28.375c0,0-1.788-0.439-2.07-0.158c-0.705,0.705,0.161,3.143,0.865,3.458
			c0.104,0.047,0.263-0.07,0.413-0.222c0.217-0.218,0.417-0.509,0.417-0.509C336.468,29.548,336.967,28.375,336.967,28.375z"/>
		<path fill="#FDB660" d="M363.016,32.215c-0.005-0.001-0.009-0.004-0.012-0.006C363.007,32.211,363.011,32.213,363.016,32.215z"/>
	</g>
	<path fill="#FDB660" d="M361.045,79.132c0,0-0.018,0.059-0.047,0.154c-0.117,0.384-1.579,3.777-3.044,3.881
		c-1.345,0.097-3.326-4.011-3.361-4.321c-0.006-0.044,0.732-0.213,0.732-0.213S360.646,78.334,361.045,79.132z"/>
	<path fill="#F58534" d="M362.677,32.267c0,0,0.769-1.921-0.672-4.61c0,0,4.028-1.434,4.331,0.145
		c0.346,1.798-1.642,5.233-2.41,6.386L362.677,32.267z"/>
	<path fill="#FDB660" d="M362.462,28.76c0,0,1.855-0.44,2.148-0.158c0.731,0.705-0.167,3.143-0.897,3.458
		c-0.107,0.046-0.272-0.07-0.43-0.222c-0.225-0.218-0.434-0.51-0.434-0.51C362.979,29.932,362.462,28.76,362.462,28.76z"/>
</g>
</svg>
