<?xml version="1.0" encoding="utf-8"?>
<!-- Generator: Adobe Illustrator 16.0.0, SVG Export Plug-In . SVG Version: 6.00 Build 0)  -->
<!DOCTYPE svg PUBLIC "-//W3C//DTD SVG 1.1//EN" "http://www.w3.org/Graphics/SVG/1.1/DTD/svg11.dtd">
<svg version="1.1" id="Layer_1" xmlns="http://www.w3.org/2000/svg" xmlns:xlink="http://www.w3.org/1999/xlink" x="0px" y="0px"
	 width="400px" height="100px" viewBox="0 0 400 100" enable-background="new 0 0 400 100" xml:space="preserve">
<g>
	<ellipse fill-opacity="0.65" cx="50.253" cy="89.651" rx="43.747" ry="3.674"/>
	<path fill="#666666" d="M9.676,31.82c-0.689-0.101-1.801-0.526-1.977-1.607c-0.262-1.608,0.944-3.56,2.896-5.339
		c-2.469-0.402-6.201-3.101-5.512-5.951c0.566-2.342,4.558-6.604,6.966-6.66c3.311-0.077,4.401,3.023,4.401,3.023
		s2.334-3.176,7.004-1.569c3.187-3.598,6.287-3.598,8.727,1.224c5.052-3.29,7.349,1.071,7.349,1.071s1.004-3.199,3.597-3.673
		c1.897-0.347,7.481,6.042,7.885,7.119c0.854,2.277-0.842,4.287-4.057,5.664c8.037,9.339,33.376,12.083,34.714,6.985
		c1.109-4.229-4.49-16.676-12.975-18.237c-12.478-2.296-12.171,5.97-16.993,3.138c-3.213-1.887-0.077-9.147,10.945-10.257
		c2.057-0.207,9.287-0.466,17.415,6.124c11.768,9.541,7.959,22.046,9.108,29.736c0.698,4.675,4.465,9.803,5.433,18.11
		c0.27,2.325,2.401,18.464-6.903,27.326c-2.505,2.386-6.242,0.794-6.083-1.669c0.074-1.138,0.239-3.817,0.239-3.817
		c-0.08-2.466-2.384-4.771-2.384-4.771c-5.248,4.454-9.462,16.418-17.252,13.636c-0.878-0.313-1.772-1.727-1.988-2.94
		c-0.476-2.703,6.551-12.459,3.029-21.645c-4.746-0.459-13.778,7.349-21.433,1.837c0,0,1.263,21.127-5.54,21.673
		c-3.734,0.106-4.45-7.808-5.636-11.262c-0.85-2.475-2.983-6.472-3.674-7.196c0,0,0.153,18.678-10.473,17.149
		c-1.149-0.094-2.385-1.514-2.465-3.737c-0.063-1.742,1.278-4.603,1.67-5.645c0.477-1.272,1.317-20.321,1.317-20.321
		S3.591,48.813,9.676,31.82z"/>
	<polygon fill="#F58534" points="26.766,22.803 26.702,22.79 26.701,23.167 	"/>
	<path fill="#999999" d="M22.996,64.927l2.296,4.517c0,0,0,11.061-3.065,15.265l-6.281,0.597c0.528-1.581,1.383-4.412,1.75-5.409
		c0.449-1.217,1.014-18.872,1.014-18.872C21.618,63.319,22.996,64.927,22.996,64.927z"/>
	<path fill="#999999" d="M39.912,21.199c-0.459,1.684-1.76,2.755,2.067,3.292c2.08,0.291,7.669-2.061,7.272-4.21
		c-0.348-1.888-4.002-6.287-6.047-5.818C41.377,14.881,40.406,19.391,39.912,21.199z"/>
	<path fill="#FFFFFF" d="M35.181,14.921c-2.119,1.419,2.245,4.175,2.107,0.486c0,0,2.242,1.15,1.361,2.77
		c-0.902,1.661-2.774,1.511-3.999,0.898c-1.235-0.617-1.891-1.629-1.415-3.02C33.616,14.942,35.181,14.921,35.181,14.921z"/>
	<path fill="#BBBBBB" d="M30.957,15.248c0,0.535-1.934,3.817-3.042,3.368c-0.354-0.144,0.286-1.529-0.288-1.378
		c-0.487,0.128,0.275,1.499-0.469,1.435c-1.239-0.105-2.708-3.289-2.708-3.808c0-0.593,2.456-2.448,3.444-2.448
		C28.883,12.417,30.957,14.656,30.957,15.248z"/>
	<g>
		<path fill="#999999" d="M11.284,32.777C4.395,50.229,22.613,61.635,24.017,63.481c0.8,1.052,7.831,13.873,8.149,14.906
			c1.352,4.215,1.617,6.973,1.907,7.313l4.373,0.678c2.768-7.903,1.849-16.171,1.074-21.586c7.511,8.783,18.687,0.67,23.97-0.239
			c5.894,9.482-1.67,20.67-1.67,22.341c0,1.612,2.621,1.336,3.34,1.512c4.928,1.201,11.606-12.244,14.151-13.596
			c6.759-5.169,7.971-13.721,8.298-13.356c0.13,0.144,1.019-0.66,1.177-0.478c0.174,0.198-0.651,8.506-7.966,14.787
			c0,0,3.098,4.215,3.021,5.963c-0.04,0.92-0.065,1.377,0.002,2.462c0.07,1.16,0.591,3.286,2.383,1.591
			c8.825-8.35,6.702-22.982,6.42-25.289c-0.983-8.031-4.766-12.974-5.624-17.484c-1.428-7.51,2.567-20.831-9.029-29.213
			c-4.654-3.364-10.217-5.473-13.662-5.128c0.6,0.314,2.182,1.648,2.182,2.144c0,0.286-1.425,0.604-1.646,0.842
			c5.281-0.919,9.871,2.916,12.209,4.899c1.764,0.329,3.56,0.139,3.56,1.378c0,0.515-0.821,0.756-1.148,1.148
			c0.162,0.231-0.64,0.459-0.459,0.459c1.033,0,12.018,17.606-3.238,17.672c0.234,0.36,0.368,0.75,0.368,1.159
			c0,1.775-4.254,4.363-7.234,4.363s-3.56-2.587-3.56-4.363c0-0.848,0.555-1.617,1.455-2.191
			c-6.393-1.214-10.679-2.324-13.971-4.012c0,0.001,0.001,0.002,0.001,0.003c0,2.346-1.922,5.741-5.282,5.741
			s-3.904-1.558-3.904-3.904c0-2.346-0.146-5.282,3.215-5.282c0.317,0,0.626,0.013,0.929,0.033c-0.642-0.894-1.224-0.808-2.996-3.17
			c0,0-1.504-0.105-1.32,0.439c1.436,4.249-0.544,5.841-2.469,6.602c-2.468,0.976-3.846,0.632-8.037-0.574
			c-1.033,3.445-3.253,2.871-5.626,2.947c-3.493,0.113-3.674-3.215-4.421-4.038C15.245,33.198,12.12,30.661,11.284,32.777z
			 M66.627,51.34c0-2.346,2.159-4.249,4.822-4.249s5.512,0.869,5.512,3.215c0,2.346-2.849,6.66-5.512,6.66
			S66.627,53.686,66.627,51.34z M58.589,37.217c-0.761,0-2.525-1.892-2.525-2.526s1.765,0.229,2.525,0.229s1.378,0.514,1.378,1.148
			S59.35,37.217,58.589,37.217z M45.959,48.469c0-2.6,1.921-8.497,5.282-8.497c3.36,0,6.889,1.993,6.889,4.593
			s-2.955,5.971-6.314,5.971C48.455,50.536,45.959,51.069,45.959,48.469z M36.889,52.947c0-0.951,1.792-3.33,2.871-3.33
			s1.033,2.379,1.033,3.33s-0.874,1.723-1.952,1.723C37.762,54.67,36.889,53.898,36.889,52.947z"/>
		<path fill="#999999" d="M63.068,10.579c0,0.181-0.946,0.832-1.033,0.996c-7.771,0.767-6.89,5.585-9.339,3.597
			c-1.969-1.598,5.473-6.772,8.649-6.124c0.083,0.017,1.047,0.613,1.148,0.612C62.566,9.968,63.068,9.978,63.068,10.579z"/>
	</g>
	<path fill="#BBBBBB" d="M33.501,83.317c0,0,5.293-0.639,5.77,0.315c0,0-0.363,1.938-0.825,2.746
		c-1.908,3.339-3.378,2.703-4.452-0.517C33.721,85.04,33.501,83.317,33.501,83.317z"/>
	<path fill="#BBBBBB" d="M17.06,81.808c0,0,4.811,0.754,5.167,2.9c0,0-1.789,2.146-3.577,2.386
		c-1.217,0.162-2.146,0.239-2.624-1.551C15.802,84.706,17.06,81.808,17.06,81.808z"/>
	<path fill="#BBBBBB" d="M62.655,84.589c0,0,3.937,1.193,9.899-1.432c0,0-4.775,6.585-7.156,6.918
		c-1.215,0.171-3.776-0.118-3.657-2.384C61.786,86.824,62.655,84.589,62.655,84.589z"/>
	<path fill="#BBBBBB" d="M83.922,82.523c0,0,2.067,0.793,6.759-3.182c0,0-3.001,6.777-5.248,7.632
		c-1.252,0.477-1.987-0.12-1.987-1.193C83.446,84.915,83.922,82.523,83.922,82.523z"/>
	<path fill="#C2053C" d="M25.316,30.163c0.366-0.087,1.297,0.107,1.688,0.4c0.512,0.382,0.184,1.205,0.451,1.2
		c0.301-0.006,0.204-0.776,0.618-1.2c0.415-0.424,1.344-0.501,1.632-0.501c0.62,0,2.236,0.786,1.969,2.701
		c-0.799,5.722,1.401,9.429-0.034,11.115c-2.296,2.696-6.506,2.215-7.941,0.096c-1.587-2.344,0.957-4.719-0.013-11.211
		C23.532,31.741,24.224,30.423,25.316,30.163z"/>
	<path fill="#BBBBBB" d="M42.174,30.678c0.707-0.96,1.35-3.021-0.004-4.943c-4.65-0.057-4.525-3.391-3.56-4.88
		c-3.502,0.287-5.167-0.631-7.119-2.641c-3.731,1.78-3.674,8.58-2.128,10.416C31.453,31.11,40.252,33.29,42.174,30.678z"/>
	<path fill="#666666" d="M23.455,13.717"/>
	<path fill="#999999" d="M12.688,13.716c-2.045-0.469-5.699,3.929-6.047,5.817c-0.397,2.149,5.192,4.501,7.272,4.21
		c3.827-0.536,2.526-1.607,2.066-3.292C15.486,18.644,14.516,14.135,12.688,13.716z"/>
	<path fill="#FFFFFF" d="M23.198,15.348c0.476,1.391-0.181,2.403-1.415,3.02c-1.225,0.612-3.098,0.762-4-0.898
		c-0.88-1.62,1.361-2.771,1.361-2.771c-0.137,3.689,4.227,0.934,2.107-0.486C21.252,14.213,22.816,14.234,23.198,15.348z"/>
	<path fill="#BBBBBB" d="M26.584,28.018c1.483-1.887,0.77-7.775-2.44-10.09c-1.952,2.009-3.444,2.909-6.889,1.607
		c2.985,7.195-3.78,4.66-5.282,5.971c-0.962,0.839-3.127,3.313-2.526,4.44C10.059,31.093,24.526,30.634,26.584,28.018z"/>
</g>
<g>
	<ellipse fill-opacity="0.65" cx="152.842" cy="89.599" rx="23.756" ry="3.727"/>
	<g>
		<path fill="#666666" d="M168.097,63.979c-2.047,3.251-3.078,18.893-2.019,20.962c4.892,9.548-5.784,9.005-8.113,4.23
			c-1.954-4.007-2.686-11.656-3.111-17.241c-0.207-2.73-0.577-3.257-0.964-3.138c-1.692,0.521-2.09,0.327-3.727,0
			c-0.387-0.077-1.33,1.23-1.223,3.261c0.35,6.579-0.419,18.854-9.258,19.874c-1.165-0.096-2.403-1.473-2.484-3.727
			c-0.063-1.767,1.31-4.843,1.708-5.9c0.483-1.29,0.245-14.355-0.932-18.477c-0.389-1.359-12.732-20.34-4.348-44.358
			c-2.504-0.408-6.289-3.144-5.59-6.036c0.574-2.375,4.622-6.697,7.065-6.754c3.357-0.079,6.095,2.648,6.095,2.648
			c7.104-1.514,9.083,1.339,10.131,1.281c1.049-0.058,3.494-1.902,9.433-1.397c0,0,3.427-2.19,6.095-2.368
			c3.494-0.233,8.524,6.639,7.608,9.006c-0.932,2.407-3.727,3.571-5.804,4.328C176.792,38.981,170.737,59.788,168.097,63.979z"/>
		<path fill="#999999" d="M133.976,17.666c0.585-0.058,1.631-2.248,2.913-3.915c1.184-1.541,2.636-2.546,2.562-3.106
			c-0.197-1.48-2.472-2.785-4.58-2.484c-1.63,0.233-5.919,4.688-5.357,6.366C130.116,16.329,132.083,17.852,133.976,17.666z"/>
	</g>
	<path fill="#999999" d="M159.867,11.343c-2.327-1.886-6.212,1.055-8.617,1.164c-1.707,0.078-6.145-2.605-9.005-1.242
		c-8.307,3.959-15.139,28.026-3.028,50.851c1.914,3.606,1.363,19.394,1.087,20.186c-0.433,1.242-2.242,6.34-1.708,6.831
		c2.159,1.989,2.874,0.706,3.959,0.233c5.357-2.329,4.891-13.818,4.774-16.381c-0.117-2.57,1.326-6.711,1.863-6.521
		c1.979,0.699,2.678,1.165,5.007,0.117c2.508-1.129,1.922,4.018,2.097,7.104c0.254,4.48,2.624,14.35,2.918,14.696
		c0,0,3.816,2.945,5.059,1.549c1.05-1.182,0.624-2.48,0.184-4.492c-1.009-4.594-0.157-18.894,1.776-22.39
		C173.531,49.85,172.133,21.281,159.867,11.343z M146.106,42.94c-1.212,0-1.34-0.46-1.34-1.135c0-0.674-0.319-1.815,0.893-1.815
		s2.642,1.057,2.642,1.73C148.301,42.394,147.318,42.94,146.106,42.94z M148.377,33.857c0,1.844-1.663,1.397-4.192,1.397
		c-2.529,0-2.794-1.262-2.794-3.105c0-1.844,3.215-4.813,5.745-4.813S148.377,32.013,148.377,33.857z M150.085,21.125
		c-2.058,0-3.726-1.391-3.726-3.105c0-1.715-0.195-3.416,1.863-3.416s3.105,1.701,3.105,3.416
		C151.328,19.735,152.144,21.125,150.085,21.125z M155.985,24.386c-2.529,0-2.795-1.262-2.795-3.105
		c0-1.844-0.666-4.969,1.863-4.969c2.53,0,5.513,2.892,5.513,4.736C160.566,22.892,158.515,24.386,155.985,24.386z M159.091,38.049
		c-2.529,0-2.795-1.262-2.795-3.105c0-1.843,1.352-6.055,3.881-6.055c2.53,0,4.813,3.125,4.813,4.969
		C164.991,35.701,161.622,38.049,159.091,38.049z"/>
	<path fill="#999999" d="M172.708,14.915c0.563-1.679-3.728-6.133-5.357-6.366c-2.108-0.302-4.383,1.003-4.58,2.484
		c-0.074,0.56,1.378,1.564,2.563,3.105c1.28,1.668,2.326,3.857,2.912,3.915C170.136,18.24,172.104,16.717,172.708,14.915z"/>
	<g>
		<path fill="#666666" d="M147.135,49.656c13.896-2.407,3.319-22.328-5.286-23.912c-12.654-2.329-12.344,6.056-17.235,3.183
			c-3.259-1.914-0.078-9.277,11.102-10.403c2.086-0.21,9.418-0.473,17.662,6.21c11.935,9.676,7.268,22.009,7.889,31.17
			c0.141,2.065-3.61,7.065-3.61,7.065l-10.131-3.494C147.524,59.477,144.714,50.075,147.135,49.656z"/>
		<g>
			<path fill="#999999" d="M160.44,55.295c-1.795-10.491,2.604-21.127-9.157-29.628c-4.722-3.413-10.364-5.551-13.858-5.202
				c0.608,0.319,2.213,1.672,2.213,2.174c0,0.291-1.445,0.614-1.669,0.854c17.475,0.582,24.074,26.512,10.488,27.6
				c-1.763,0.141-2.562,4.84-2.097,6.754c0.793,3.264,8.945,7.464,11.995,6.055C160.364,62.974,160.813,57.478,160.44,55.295z"/>
			<path fill="#999999" d="M136.143,22.406c0,0.183-0.959,0.844-1.048,1.01c-7.88,0.778-6.987,5.665-9.472,3.648
				c-1.997-1.621,5.551-6.868,8.773-6.21c0.083,0.017,1.062,0.621,1.165,0.621C135.634,21.787,136.143,21.797,136.143,22.406z"/>
		</g>
	</g>
	<path fill="#BBBBBB" d="M139.407,84.816c0,0,4.878,0.766,5.241,2.942c0,0-1.814,2.178-3.628,2.418
		c-1.234,0.165-2.177,0.243-2.661-1.571C138.132,87.758,139.407,84.816,139.407,84.816z"/>
	<path fill="#BBBBBB" d="M165.427,89.118c-0.484,1.815-1.427,1.737-2.661,1.572c-1.814-0.242-3.629-2.418-3.629-2.418
		c0.362-2.179,5.241-2.942,5.241-2.942S165.654,88.27,165.427,89.118z"/>
	<ellipse fill="#BBBBBB" cx="152.104" cy="56.837" rx="1.243" ry="2.018"/>
</g>
<g>
	<ellipse fill-opacity="0.65" cx="249.792" cy="89.628" rx="43.746" ry="3.697"/>
	<path fill="#666666" d="M282.975,59.665c0,0,0.841,19.168,1.317,20.448c0.392,1.049,1.732,3.927,1.67,5.681
		c-0.08,2.236-1.315,3.665-2.465,3.759c-10.626,1.539-10.473-17.255-10.473-17.255c-0.691,0.729-2.824,4.75-3.675,7.24
		c-1.187,3.476-1.901,11.439-5.636,11.332c-6.803-0.549-5.54-21.807-5.54-21.807c-7.654,5.545-16.687-2.312-21.433-1.849
		c-3.521,9.242,3.506,19.059,3.029,21.779c-0.215,1.222-1.11,2.645-1.987,2.958c-7.792,2.801-12.006-9.238-17.253-13.72
		c0,0-2.305,2.319-2.385,4.801c0,0,0.165,2.696,0.239,3.84c0.159,2.479-3.578,4.08-6.083,1.681
		c-9.306-8.917-7.174-25.156-6.903-27.497c0.967-8.358,4.734-13.518,5.433-18.223c1.148-7.738-2.659-20.32,9.108-29.92
		c8.128-6.63,15.357-6.37,17.414-6.162c11.022,1.117,14.159,8.422,10.946,10.321c-4.822,2.85-4.517-5.468-16.993-3.158
		c-8.484,1.571-14.085,14.095-12.975,18.351c1.338,5.13,26.676,2.368,34.713-7.028c-3.215-1.387-4.91-3.409-4.057-5.7
		c0.403-1.083,5.987-7.512,7.885-7.163c2.594,0.478,3.598,3.697,3.598,3.697s2.296-4.389,7.348-1.079
		c2.44-4.852,5.54-4.852,8.727-1.232c4.67-1.617,7.004,1.579,7.004,1.579s1.091-3.12,4.401-3.042c2.408,0.056,6.4,4.345,6.966,6.701
		c0.689,2.869-3.043,5.583-5.511,5.988c1.951,1.791,3.157,3.755,2.896,5.373c-0.176,1.087-1.288,1.516-1.978,1.617
		C296.409,49.076,282.975,59.665,282.975,59.665z"/>
	<polygon fill="#F58534" points="273.3,23.269 273.299,22.89 273.233,22.903 	"/>
	<path fill="#999999" d="M281.291,61.361c0,0,0.564,17.765,1.014,18.989c0.367,1.003,1.222,3.852,1.749,5.443l-6.28-0.601
		c-3.065-4.23-3.065-15.359-3.065-15.359l2.296-4.545C277.004,65.289,278.382,63.672,281.291,61.361z"/>
	<path fill="#999999" d="M256.796,14.511c-2.045-0.472-5.698,3.954-6.047,5.854c-0.397,2.162,5.192,4.529,7.272,4.236
		c3.827-0.539,2.525-1.617,2.066-3.312C259.595,19.47,258.623,14.932,256.796,14.511z"/>
	<path fill="#FFFFFF" d="M266.765,16.114c0.476,1.399-0.18,2.418-1.414,3.039c-1.226,0.615-3.098,0.767-4-0.904
		c-0.88-1.63,1.361-2.788,1.361-2.788c-0.137,3.712,4.227,0.939,2.108-0.489C264.82,14.972,266.384,14.993,266.765,16.114z"/>
	<path fill="#BBBBBB" d="M272.105,12.454c0.988,0,3.444,1.867,3.444,2.463c0,0.522-1.469,3.725-2.708,3.831
		c-0.744,0.064,0.018-1.315-0.469-1.444c-0.573-0.152,0.067,1.242-0.287,1.387c-1.108,0.452-3.043-2.851-3.043-3.389
		C269.043,14.705,271.118,12.454,272.105,12.454z"/>
	<g>
		<path fill="#999999" d="M277.062,31.11c-0.746,0.828-0.928,4.177-4.42,4.063c-2.373-0.077-4.593,0.501-5.627-2.965
			c-4.19,1.213-5.568,1.56-8.037,0.577c-1.925-0.766-3.903-2.368-2.469-6.643c0.185-0.547-1.32-0.442-1.32-0.442
			c-1.771,2.377-2.354,2.291-2.995,3.19c0.303-0.02,0.611-0.033,0.929-0.033c3.36,0,3.215,2.955,3.215,5.315
			c0,2.361-0.544,3.928-3.904,3.928s-5.281-3.416-5.281-5.776c0-0.001,0-0.002,0-0.003c-3.291,1.699-7.578,2.816-13.97,4.037
			c0.899,0.579,1.454,1.352,1.454,2.205c0,1.787-0.579,4.391-3.559,4.391c-2.98,0-7.234-2.604-7.234-4.391
			c0-0.412,0.134-0.804,0.368-1.166c-15.256-0.065-4.271-17.782-3.238-17.782c0.18,0-0.621-0.229-0.459-0.461
			c-0.327-0.395-1.148-0.638-1.148-1.156c0-1.247,1.796-1.055,3.56-1.387c2.338-1.995,6.927-5.854,12.209-4.929
			c-0.222-0.239-1.646-0.56-1.646-0.847c0-0.497,1.581-1.84,2.182-2.157c-3.445-0.346-9.008,1.774-13.664,5.161
			c-11.597,8.434-7.601,21.838-9.029,29.395c-0.857,4.539-4.641,9.511-5.624,17.594c-0.282,2.32-2.405,17.045,6.42,25.446
			c1.792,1.706,2.313-0.434,2.383-1.602c0.067-1.092,0.042-1.551,0.002-2.478c-0.076-1.759,3.021-6,3.021-6
			c-7.314-6.319-8.14-14.68-7.966-14.879c0.159-0.184,1.048,0.626,1.178,0.48c0.327-0.367,1.54,8.238,8.298,13.439
			c2.544,1.359,9.225,14.888,14.152,13.68c0.718-0.176,3.339,0.103,3.339-1.52c0-1.683-7.563-12.938-1.669-22.481
			c5.282,0.915,16.458,9.08,23.97,0.241c-0.775,5.449-1.694,13.768,1.073,21.72l4.373-0.682c0.291-0.343,0.555-3.118,1.906-7.359
			c0.318-1.039,7.35-13.939,8.149-14.998c1.404-1.857,19.623-13.334,12.733-30.896C287.881,30.81,284.755,33.363,277.062,31.11z
			 M228.551,57.278c-2.663,0-5.512-4.34-5.512-6.701c0-2.36,2.849-3.235,5.512-3.235s4.822,1.915,4.822,4.275
			S231.214,57.278,228.551,57.278z M240.033,36.251c0-0.638,0.616-1.156,1.377-1.156c0.762,0,2.526-0.869,2.526-0.231
			s-1.765,2.542-2.526,2.542C240.649,37.407,240.033,36.89,240.033,36.251z M248.185,50.809c-3.36,0-6.314-3.392-6.314-6.008
			s3.528-4.621,6.889-4.621s5.281,5.933,5.281,8.549C254.04,51.346,251.545,50.809,248.185,50.809z M261.159,54.968
			c-1.078,0-1.952-0.775-1.952-1.733c0-0.957-0.045-3.35,1.034-3.35c1.078,0,2.87,2.393,2.87,3.35
			C263.111,54.192,262.237,54.968,261.159,54.968z"/>
		<path fill="#999999" d="M236.933,10.603c0,0.182,0.945,0.837,1.033,1.002c7.77,0.772,6.89,5.62,9.339,3.62
			c1.969-1.608-5.473-6.814-8.649-6.162c-0.083,0.017-1.048,0.616-1.148,0.616C237.435,9.989,236.933,9.999,236.933,10.603z"/>
	</g>
	<path fill="#BBBBBB" d="M266.006,86.354c-1.073,3.24-2.543,3.88-4.452,0.52c-0.462-0.813-0.825-2.763-0.825-2.763
		c0.478-0.96,5.771-0.318,5.771-0.318S266.279,85.527,266.006,86.354z"/>
	<path fill="#BBBBBB" d="M283.975,86.033c-0.478,1.801-1.407,1.724-2.624,1.561c-1.789-0.241-3.577-2.398-3.577-2.398
		c0.357-2.162,5.167-2.92,5.167-2.92S284.198,85.191,283.975,86.033z"/>
	<path fill="#BBBBBB" d="M238.26,88.194c0.119,2.279-2.441,2.57-3.657,2.398c-2.38-0.337-7.156-6.962-7.156-6.962
		c5.963,2.642,9.898,1.44,9.898,1.44S238.214,87.322,238.26,88.194z"/>
	<path fill="#BBBBBB" d="M216.555,86.273c0,1.079-0.735,1.68-1.987,1.2c-2.246-0.86-5.247-7.68-5.247-7.68
		c4.69,3.999,6.757,3.201,6.757,3.201S216.555,85.401,216.555,86.273z"/>
	<path fill="#C2053C" d="M276.315,32.926c-0.97,6.533,1.574,8.922-0.014,11.281c-1.435,2.132-5.645,2.616-7.941-0.097
		c-1.435-1.696,0.766-5.426-0.034-11.184c-0.267-1.927,1.35-2.718,1.97-2.718c0.287,0,1.216,0.078,1.631,0.504
		c0.415,0.426,0.317,1.201,0.619,1.208c0.268,0.004-0.061-0.822,0.45-1.208c0.392-0.295,1.322-0.49,1.688-0.403
		C275.776,30.57,276.468,31.896,276.315,32.926z"/>
	<path fill="#BBBBBB" d="M270.636,28.766c1.546-1.847,1.604-8.689-2.128-10.48c-1.952,2.021-3.617,2.946-7.119,2.657
		c0.966,1.499,1.091,4.853-3.56,4.91c-1.354,1.934-0.71,4.007-0.003,4.974C259.748,33.455,268.547,31.262,270.636,28.766z"/>
	<path fill="#666666" d="M276.545,13.761"/>
	<path fill="#999999" d="M284.02,20.538c-0.459,1.695-1.76,2.772,2.067,3.312c2.08,0.293,7.67-2.073,7.272-4.237
		c-0.349-1.899-4.003-6.326-6.047-5.854C285.485,14.182,284.515,18.718,284.02,20.538z"/>
	<path fill="#FFFFFF" d="M278.748,14.26c-2.118,1.428,2.244,4.201,2.107,0.489c0,0,2.241,1.157,1.361,2.787
		c-0.902,1.671-2.774,1.52-4,0.904c-1.234-0.621-1.89-1.639-1.414-3.039C277.184,14.281,278.748,14.26,278.748,14.26z"/>
	<path fill="#BBBBBB" d="M290.553,30.09c0.602-1.134-1.563-3.623-2.525-4.468c-1.502-1.318-8.268,1.233-5.282-6.008
		c-3.444,1.31-4.938,0.404-6.889-1.617c-3.209,2.33-3.924,8.254-2.44,10.153C275.474,30.783,289.94,31.245,290.553,30.09z"/>
</g>
<g>
	<ellipse fill-opacity="0.65" cx="350.098" cy="89.691" rx="23.168" ry="3.634"/>
	<g>
		<path fill="#666666" d="M351.877,37.11c13.741-1.363,3.236-21.774-5.155-23.318c-12.341-2.271-12.038,5.905-16.808,3.104
			c-3.178-1.867-0.076-9.048,10.826-10.146c2.034-0.205,9.185-0.461,17.225,6.057c11.639,9.437,7.652,23.057,8.789,30.663
			L351.877,37.11z"/>
		<g>
			<path fill="#999999" d="M364.852,42.61c-1.412-7.428,2.539-20.604-8.931-28.894c-4.604-3.328-10.107-5.413-13.514-5.073
				c0.593,0.311,2.157,1.631,2.157,2.12c0,0.283-1.408,0.598-1.628,0.833c5.224-0.909,9.764,2.884,12.075,4.845
				c1.745,0.326,3.521,0.138,3.521,1.363c0,0.509-0.812,0.749-1.135,1.136c0.16,0.229-0.633,0.455-0.455,0.455
				c1.022,0,9.131,18.511-2.839,18.625"/>
			<path fill="#999999" d="M341.157,10.536c0,0.179-0.936,0.823-1.022,0.984c-7.685,0.759-6.813,5.525-9.236,3.558
				c-1.947-1.58,5.413-6.698,8.556-6.057c0.081,0.017,1.035,0.606,1.135,0.606C340.661,9.933,341.157,9.942,341.157,10.536z"/>
		</g>
	</g>
	<g>
		<path fill="#666666" d="M366.457,66.221c-1.558,3.407-4.636,14.487-3.602,16.505c4.77,9.312-2.574,9.161-4.847,8.329
			c-6.535-2.394-5.264-17.87-8.024-17.869c-1.786,0.001-1.363,20.66-11.874,19.148c-1.136-0.094-2.358-1.498-2.437-3.696
			c-0.063-1.724,1.264-4.553,1.651-5.584c0.472-1.258,0.785-11.906-0.362-15.926c-0.379-1.325-11.812-17.563-5.604-31.39
			c-0.682-0.1-1.781-0.521-1.956-1.589c-0.259-1.59,0.934-3.521,2.864-5.281c-2.441-0.397-6.133-3.066-5.451-5.886
			c0.56-2.316,4.508-6.531,6.89-6.586c3.274-0.077,4.354,2.99,4.354,2.99s2.309-3.142,6.928-1.552
			c3.151-3.559,6.218-3.559,8.631,1.21c4.996-3.253,7.268,1.06,7.268,1.06s0.993-3.165,3.559-3.634
			c1.876-0.343,7.399,5.977,7.798,7.041c0.845,2.253-2.517,5.48-5.81,6.048c0,0,3.15,4.022,2.75,5.319
			c-0.186,0.603-2.119,1.363-2.119,1.363C374.061,49.641,367.129,64.752,366.457,66.221z"/>
		<polygon fill="#F58534" points="348.263,26.819 348.198,26.806 348.197,27.179 		"/>
		<path fill="#999999" d="M361.265,25.232c-0.454,1.666-1.741,2.726,2.044,3.256c2.058,0.288,7.586-2.038,7.192-4.164
			c-0.344-1.868-3.958-6.218-5.98-5.754C362.713,18.984,361.752,23.444,361.265,25.232z"/>
		<path fill="#FFFFFF" d="M356.584,19.023c-2.096,1.404,2.22,4.129,2.085,0.481c0,0,2.217,1.138,1.347,2.74
			c-0.893,1.643-2.744,1.494-3.956,0.888c-1.222-0.61-1.87-1.611-1.399-2.987C355.037,19.044,356.584,19.023,356.584,19.023z"/>
		<path fill="#BBBBBB" d="M352.407,19.347c0,0.529-1.913,3.775-3.009,3.331c-0.352-0.142,0.282-1.513-0.285-1.363
			c-0.481,0.126,0.272,1.483-0.464,1.419c-1.226-0.104-2.678-3.253-2.678-3.766c0-0.586,2.43-2.422,3.407-2.422
			C350.355,16.547,352.407,18.761,352.407,19.347z"/>
		<g>
			<path fill="#999999" d="M368.382,47.217c-4.013-0.303-5.104-2.448-5.104-4.769s4.351-0.209,4.65-0.19
				c0,0-1.427-4.649-2.499-5.224c-0.99-0.531-6.871,0.123-11.016-1.069c0.228,3.795-3.218,2.839-5.564,2.915
				c-3.455,0.112-4.997-0.596-4.373-3.994c-7.608,2.214-10.726-0.306-11.526,1.798c-5.072,13.335,4.069,26.489,5.041,28.173
				c1.989,3.449,1.632,16.944,1.363,17.717c-0.423,1.212-2.314,5.583-1.793,6.063c2.105,1.94,4.869,0.507,5.687-0.31
				c2.422-2.423,4.145-18.293,6.252-19.836c2.321-1.698,4.195,10.523,4.726,13.324c0.813,4.301,1.877,5.44,2.164,5.777
				c0,0,4.801,2.553,6.012,1.189c1.024-1.151-0.9-4.06-1.331-6.021c-0.982-4.48,2.164-14.347,4.058-17.754
				C367.25,61.187,369.518,52.139,368.382,47.217z M358.274,56.634c0-0.94,1.771-3.293,2.839-3.293c1.066,0,1.022,2.353,1.022,3.293
				s-0.864,1.704-1.931,1.704C359.138,58.338,358.274,57.574,358.274,56.634z"/>
		</g>
		<path fill="#BBBBBB" d="M338.435,85.103c0,0,4.758,0.747,5.11,2.869c0,0-1.769,2.123-3.538,2.359
			c-1.204,0.16-2.123,0.236-2.595-1.533C337.19,87.971,338.435,85.103,338.435,85.103z"/>
		<path fill="#C2053C" d="M346.828,34.099c0.361-0.085,1.283,0.106,1.67,0.396c0.505,0.378,0.182,1.191,0.445,1.187
			c0.298-0.006,0.201-0.768,0.611-1.187c0.41-0.419,1.329-0.496,1.614-0.496c0.612,0,2.212,0.777,1.947,2.672
			c-0.791,5.659,1.386,9.326-0.034,10.994c-2.271,2.667-6.435,2.191-7.854,0.095c-1.57-2.318,0.946-4.667-0.013-11.088
			C345.063,35.659,345.748,34.355,346.828,34.099z"/>
		<path fill="#666666" d="M344.987,17.833"/>
		<path fill="#999999" d="M334.338,17.831c-2.022-0.464-5.637,3.887-5.981,5.754c-0.393,2.125,5.136,4.452,7.193,4.164
			c3.785-0.53,2.498-1.59,2.044-3.256C337.105,22.706,336.145,18.246,334.338,17.831z"/>
		<path fill="#FFFFFF" d="M344.732,19.445c0.471,1.375-0.179,2.376-1.399,2.987c-1.212,0.605-3.063,0.754-3.956-0.888
			c-0.87-1.602,1.347-2.74,1.347-2.74c-0.135,3.648,4.181,0.923,2.085-0.481C342.809,18.323,344.355,18.344,344.732,19.445z"/>
		<path fill="#BBBBBB" d="M348.082,31.977c1.467-1.866,0.761-7.69-2.413-9.98c-1.931,1.988-3.407,2.877-6.814,1.59
			c2.953,7.117-3.738,4.609-5.224,5.905c-0.952,0.831-3.094,3.276-2.499,4.391C331.737,35.019,346.047,34.564,348.082,31.977z"/>
		<path fill="#BBBBBB" d="M367.335,34.64c0.595-1.114-1.546-3.561-2.498-4.391c-1.486-1.296-8.177,1.211-5.225-5.906
			c-3.407,1.287-4.883,0.398-6.813-1.59c-3.175,2.291-3.881,8.114-2.414,9.98C352.42,35.322,366.729,35.776,367.335,34.64z"/>
		<path fill="#BBBBBB" d="M362.522,88.42c-0.472,1.77-1.391,1.693-2.595,1.533c-1.77-0.237-3.539-2.359-3.539-2.359
			c0.354-2.123,5.111-2.869,5.111-2.869S362.743,87.592,362.522,88.42z"/>
	</g>
</g>
</svg>
