<?xml version="1.0" encoding="utf-8"?>
<!-- Generator: Adobe Illustrator 16.0.0, SVG Export Plug-In . SVG Version: 6.00 Build 0)  -->
<!DOCTYPE svg PUBLIC "-//W3C//DTD SVG 1.1//EN" "http://www.w3.org/Graphics/SVG/1.1/DTD/svg11.dtd">
<svg version="1.1" id="Layer_1" xmlns="http://www.w3.org/2000/svg" xmlns:xlink="http://www.w3.org/1999/xlink" x="0px" y="0px"
	 width="700px" height="100px" viewBox="0 0 700 100" enable-background="new 0 0 700 100" xml:space="preserve">
<g>
	<path fill="#E6E6E6" d="M74.39,30.417c-0.494-0.743-1.175-1.222-1.917-1.465c-0.465-0.152-0.816-0.503-0.968-0.968
		c-0.244-0.744-0.723-1.424-1.466-1.918c-1.323-0.88-3.135-0.801-4.374,0.193c-0.986,0.791-1.449,1.944-1.394,3.079
		c0.062,1.281-0.31,2.546-1.218,3.453l-7.857,7.857c-0.058,0.058-0.104,0.122-0.157,0.184l-0.817,2.725
		c0.049,0.304,0.138,0.603,0.281,0.887c0.011,0.021,0.026,0.034,0.038,0.055l2.127-0.709v2.369c1.072,0.261,2.249-0.004,3.083-0.837
		l7.917-7.917c0.907-0.908,2.171-1.278,3.453-1.217c1.136,0.054,2.289-0.407,3.079-1.395C75.19,33.551,75.27,31.741,74.39,30.417z"
		/>
	<path fill="#BFBFBF" d="M69.117,30.479l-0.693-0.623c0.8-0.894,1.946-1.418,3.143-1.443l0.02,0.932
		C70.646,29.364,69.747,29.777,69.117,30.479z"/>
	<g>
		<path fill="#EEAF4B" d="M56.665,47.518V43.79l-2.795,0.932l1.772-5.908c-1.286,0.02-2.566,0.505-3.543,1.481
			c-3.851,3.851-8.949,6.089-14.362,6.689c-2.926,0.324-5.766,1.614-8.001,3.872c-4.939,4.987-5.12,13.195-0.392,18.383
			c5.169,5.672,13.964,5.824,19.329,0.459c2.002-2.002,3.234-4.481,3.698-7.072c0.978-5.458,3.798-10.417,7.719-14.339
			c0.238-0.238,0.438-0.5,0.619-0.769L56.665,47.518L56.665,47.518z"/>
		<path fill="#EEAF4B" d="M39.24,74.543c-0.115,0-0.229-0.001-0.343-0.004c-3.941-0.092-7.577-1.751-10.239-4.673
			c-5.036-5.525-4.849-14.348,0.417-19.667c2.291-2.313,5.331-3.786,8.562-4.144c5.433-0.602,10.206-2.821,13.804-6.421
			c1.107-1.107,2.595-1.729,4.188-1.754l1.272-0.02l-1.623,5.408l2.319-0.773v4.089h4.86l-0.973,1.451
			c-0.243,0.362-0.476,0.65-0.734,0.91c-3.969,3.969-6.549,8.756-7.461,13.844c-0.516,2.878-1.883,5.495-3.957,7.567
			C46.627,73.063,43.055,74.543,39.24,74.543z M54.319,39.978c-0.585,0.203-1.118,0.533-1.562,0.976
			c-3.9,3.901-9.059,6.307-14.917,6.956c-2.849,0.316-5.421,1.562-7.442,3.602c-4.58,4.625-4.743,12.296-0.364,17.1
			c2.315,2.542,5.479,3.984,8.905,4.063c3.455,0.085,6.652-1.211,9.076-3.635c1.803-1.804,2.992-4.077,3.439-6.579
			c0.917-5.115,3.394-9.938,7.185-14.012h-2.906v-3.366l-3.272,1.09L54.319,39.978z"/>
	</g>
	<path fill="#FBD490" d="M48.592,63.832c-0.134,0-0.27-0.028-0.399-0.09c-0.465-0.221-0.664-0.776-0.442-1.241
		c0.429-0.906,0.735-1.859,0.909-2.835c0.09-0.507,0.564-0.849,1.081-0.754c0.505,0.09,0.843,0.574,0.753,1.081
		c-0.203,1.139-0.56,2.25-1.06,3.306C49.275,63.636,48.941,63.832,48.592,63.832z"/>
	<path fill="#FBD490" d="M38.334,71.44c-0.447,0-0.843-0.323-0.918-0.779c-0.085-0.507,0.258-0.987,0.766-1.071
		c3.087-0.516,5.997-2.192,7.981-4.601c0.326-0.396,0.915-0.453,1.312-0.126c0.398,0.327,0.454,0.914,0.126,1.311
		c-2.267,2.75-5.589,4.665-9.114,5.254C38.436,71.437,38.386,71.44,38.334,71.44z"/>
	<circle fill="#FBD490" cx="35.232" cy="53.109" r="1.864"/>
</g>
<g>
	<path fill="#698B9E" d="M174.653,40.279c0.636-0.685,0.356-1.863-0.498-2.244c-1.99-0.885-1.175-3.829-2.839-3.673
		c-1.908,0.178-3.31-1.222-3.13-3.131c0.178-1.908-1.223-3.31-3.132-3.131c-1.908,0.178-0.049-2.789-3.131-3.131
		c0,0-2.153-0.832-2.358,1.23l-0.031,8.035h-12.407c-12.22,0-22.126,9.907-22.126,22.127v18.836h18.683
		c12.305,0,22.279-9.975,22.279-22.279V40.563l8.02,0.074C174.265,40.593,174.484,40.46,174.653,40.279z"/>
	<path fill="#5D7989" d="M149.104,68.974h-2.214c0-8.547-6.953-15.498-15.499-15.498v-2.215
		C141.158,51.261,149.104,59.207,149.104,68.974z"/>
	<path fill="#5D7989" d="M152.708,65.37h-2.213c0-8.547-6.953-15.5-15.5-15.5v-2.214C144.761,47.657,152.708,55.604,152.708,65.37z"
		/>
	<path fill="#5D7989" d="M156.15,61.928h-2.214c0-8.547-6.953-15.5-15.5-15.5v-2.214C148.204,44.213,156.15,52.161,156.15,61.928z"
		/>
	<path fill="#5D7989" d="M159.753,58.324h-2.214c0-8.546-6.953-15.499-15.5-15.499v-2.214
		C151.807,40.611,159.753,48.557,159.753,58.324z"/>
	<path fill="#546A79" d="M141.214,35.057c-0.437-2.192-1.341-4.576-3.067-6.958c0,0-9.104,4.515-5.371,11.438
		C135.196,37.471,138.063,35.93,141.214,35.057z"/>
	<path fill="#546A79" d="M165.565,57.053c-0.67,3.566-2.191,6.824-4.342,9.573c3.169,0.36,7.819,0.05,12.441-3.299
		C173.665,63.327,170.565,57.075,165.565,57.053z"/>
	<circle fill="#38454F" cx="131.391" cy="61.761" r="2.214"/>
</g>
<g>
	
		<ellipse transform="matrix(0.707 -0.7072 0.7072 0.707 52.0919 197.3273)" fill="#C56458" cx="264.208" cy="35.792" rx="5.357" ry="14.286"/>
	<path fill="#FBD490" d="M262.945,37.055c-2.126-2.127-3.614-4.147-4.571-5.792c-0.497-0.853,0.453-1.803,1.307-1.306
		c1.643,0.957,3.664,2.445,5.791,4.571c2.127,2.127,3.614,4.147,4.571,5.792c0.498,0.853-0.453,1.803-1.307,1.306
		C267.094,40.668,265.072,39.181,262.945,37.055z"/>
	<path fill="#773F3A" d="M260.421,39.58c-5.579-5.579-8.405-11.797-6.313-13.89c-7.497,7.497-15.681,24.727-10.103,30.304
		c5.579,5.579,22.809-2.605,30.306-10.101C272.219,47.985,265.999,45.159,260.421,39.58z"/>
	<path fill="#FBD490" d="M245.262,56.92c-0.465-0.252-0.887-0.557-1.256-0.926c-0.487-0.487-0.863-1.067-1.15-1.719l-6.136,6.137
		c-2.09,2.09-4.976,3.171-7.925,2.988c-0.342-0.021-0.698,0.006-1.063,0.089c-1.29,0.295-2.339,1.34-2.635,2.629
		c-0.539,2.34,1.225,4.418,3.474,4.418c0.044,0,0.085-0.012,0.13-0.014c-0.257,0.978-0.257,2.057,1.176,3.467
		c0.639,0.63,1.479,1.036,2.376,1.009c1.921-0.058,3.46-1.634,3.46-3.569c0-0.014,0-0.026,0-0.04
		c-0.033-2.951,0.906-5.827,2.993-7.913L245.262,56.92z"/>
	<path fill="#994530" d="M259.205,44.346c-0.173,0-0.349-0.051-0.502-0.156c-0.926-0.632-1.837-1.396-2.709-2.267
		c-0.873-0.872-1.636-1.784-2.269-2.709c-0.369-0.541-0.979-0.851-1.649-0.818c-0.666,0.029-1.257,0.389-1.58,0.962
		c-0.565,1.004-1.055,2.019-1.454,3.015c-0.183,0.457-0.702,0.679-1.161,0.497c-0.458-0.184-0.68-0.704-0.496-1.162
		c0.428-1.069,0.951-2.154,1.556-3.226c0.628-1.116,1.771-1.815,3.058-1.871c1.293-0.056,2.481,0.539,3.201,1.594
		c0.562,0.823,1.273,1.671,2.056,2.455c0.794,0.793,1.619,1.484,2.454,2.056c0.407,0.278,0.512,0.834,0.233,1.241
		C259.771,44.209,259.49,44.346,259.205,44.346z"/>
	<path fill="#994530" d="M249.92,54.725c-1.403,0.001-2.623-0.357-3.488-1.223c-0.815-0.816-1.229-1.996-1.227-3.501
		c0.001-0.494,0.4-0.892,0.893-0.892h0.001c0.493,0.001,0.894,0.401,0.893,0.895c-0.001,1.015,0.234,1.767,0.703,2.236
		c1.406,1.405,5.479,0.649,9.903-1.841c0.431-0.244,0.974-0.091,1.216,0.34c0.242,0.428,0.089,0.974-0.34,1.214
		C255.744,53.49,252.52,54.725,249.92,54.725z"/>
</g>
<g>
	<path fill="#965E5E" d="M429.86,40.521c0-0.577,0.06-1.14,0.151-1.692l-3.862-2.897c-0.55-0.413-1.309,0.11-1.12,0.771l1.145,4.002
		c0.05,0.173,0.032,0.358-0.048,0.518l-0.865,1.729c-0.292,0.583,0.282,1.221,0.893,0.992l3.9-1.462
		C429.93,41.844,429.86,41.19,429.86,40.521z"/>
	<path fill="#773F3A" d="M466.424,50.903h-26.182c-5.71,0-10.382-4.672-10.382-10.382l0,0c0-5.71,4.672-10.382,10.382-10.382h26.182
		c5.71,0,8.576,4.672,8.576,10.382l0,0C475,46.231,472.134,50.903,466.424,50.903z"/>
	<path fill="#C56458" d="M475,40.521c0,5.734-2.843,10.382-8.576,10.382s-8.577-4.648-8.577-10.382
		c0-5.733,2.844-10.382,8.577-10.382S475,34.787,475,40.521z"/>
	<g>
		<path fill="#CBA598" d="M467.679,40.883c-0.39,0.007-0.709,0.377-0.709,0.827s0.32,0.796,0.709,0.775
			c0.382-0.021,0.686-0.391,0.686-0.826S468.061,40.875,467.679,40.883z"/>
		<path fill="#CBA598" d="M462.174,42.79c-0.494,0.027-0.902,0.461-0.902,0.97s0.408,0.882,0.902,0.836
			c0.485-0.045,0.871-0.478,0.871-0.968S462.659,42.763,462.174,42.79z"/>
		<path fill="#CBA598" d="M462.174,36.471c0.485,0.036,0.871-0.332,0.871-0.822c0-0.489-0.386-0.93-0.871-0.983
			c-0.494-0.055-0.902,0.312-0.902,0.819S461.68,36.435,462.174,36.471z"/>
		<path fill="#CBA598" d="M469.03,44.737c-0.365,0.041-0.666,0.427-0.666,0.862c0,0.436,0.301,0.744,0.666,0.69
			c0.358-0.053,0.645-0.438,0.645-0.859C469.675,45.007,469.389,44.697,469.03,44.737z"/>
		<path fill="#CBA598" d="M465.479,44.29c-0.867,0.081-1.595,0.928-1.595,1.891s0.728,1.621,1.595,1.476
			c0.835-0.139,1.489-0.977,1.489-1.876C466.97,44.881,466.314,44.212,465.479,44.29z"/>
		<path fill="#CBA598" d="M466.236,35.944c0.809,0.075,1.442-0.583,1.442-1.468s-0.634-1.708-1.442-1.842
			c-0.837-0.14-1.541,0.509-1.541,1.455C464.695,35.035,465.399,35.867,466.236,35.944z"/>
		<path fill="#CBA598" d="M462.174,40.082c0,0.997,0.781,1.776,1.711,1.742c0.895-0.033,1.595-0.813,1.595-1.742
			c0-0.93-0.701-1.709-1.595-1.743C462.955,38.305,462.174,39.084,462.174,40.082z"/>
		<path fill="#CBA598" d="M469.355,36.233c-0.541-0.05-0.99,0.438-0.99,1.09s0.449,1.199,0.99,1.219
			c0.526,0.02,0.944-0.47,0.944-1.093S469.882,36.282,469.355,36.233z"/>
	</g>
	<path fill="#C56458" d="M441.082,66.825c-6.919,0-11.089-3.036-9.004-7.438c1.425-3.01,5.122-4.173,9.004-4.173
		c3.883,0,7.579,1.163,9.005,4.173C452.171,63.788,448,66.825,441.082,66.825z"/>
	<g>
		<path fill="#CBA598" d="M439.458,60.969c-0.452,0-0.848,0.28-0.885,0.636c-0.038,0.369,0.321,0.678,0.804,0.678
			c0.481,0,0.88-0.309,0.888-0.678C440.271,61.249,439.91,60.969,439.458,60.969z"/>
		<path fill="#CBA598" d="M438.96,57.851c0.024-0.238-0.258-0.427-0.63-0.427s-0.707,0.188-0.752,0.427
			c-0.045,0.246,0.235,0.45,0.626,0.45S438.935,58.097,438.96,57.851z"/>
		<path fill="#CBA598" d="M444.589,58.301c0.392,0,0.654-0.203,0.589-0.449c-0.064-0.238-0.416-0.427-0.787-0.427
			c-0.372,0-0.639,0.188-0.595,0.427C443.841,58.097,444.197,58.301,444.589,58.301z"/>
		<path fill="#CBA598" d="M436.117,62.289c-0.482,0-0.972,0.318-1.098,0.724c-0.13,0.422,0.179,0.775,0.696,0.775
			s1.016-0.354,1.111-0.775C436.919,62.606,436.599,62.289,436.117,62.289z"/>
		<path fill="#CBA598" d="M435.948,58.776c-0.806,0-1.615,0.447-1.819,1.032c-0.219,0.624,0.328,1.161,1.232,1.161
			s1.737-0.537,1.854-1.161C437.323,59.224,436.753,58.776,435.948,58.776z"/>
		<path fill="#CBA598" d="M448.237,60.371c-0.243-0.62-1.1-1.093-1.928-1.093s-1.393,0.474-1.251,1.093
			c0.149,0.663,1.036,1.234,1.971,1.234S448.496,61.034,448.237,60.371z"/>
		<path fill="#CBA598" d="M441.032,57.851c-0.763,0-1.406,0.402-1.438,0.925c-0.034,0.556,0.627,1.032,1.479,1.032
			s1.494-0.477,1.437-1.032C442.455,58.253,441.795,57.851,441.032,57.851z"/>
		<path fill="#CBA598" d="M444.181,62.283c-0.724,0-1.261,0.481-1.196,1.105c0.068,0.661,0.777,1.227,1.581,1.227
			s1.326-0.565,1.176-1.227C445.6,62.764,444.905,62.283,444.181,62.283z"/>
	</g>
	<path fill="#AF564F" d="M441.082,66.825c-4.776,0-8.241-1.449-9.243-3.793c-1.435,4.069,2.649,6.829,9.243,6.829
		c6.595,0,10.679-2.761,9.244-6.829C449.323,65.376,445.859,66.825,441.082,66.825z"/>
	<path fill="#965E5E" d="M455.976,36.458h-16.664c-0.499,0-0.902-0.403-0.902-0.903c0-0.499,0.403-0.903,0.902-0.903h16.664
		c0.499,0,0.903,0.404,0.903,0.903C456.879,36.055,456.474,36.458,455.976,36.458z"/>
	<path fill="#965E5E" d="M457.544,33.75h-9.204c-0.499,0-0.902-0.403-0.902-0.903c0-0.499,0.403-0.902,0.902-0.902h9.204
		c0.499,0,0.902,0.403,0.902,0.902C458.446,33.346,458.043,33.75,457.544,33.75z"/>
	<path fill="#965E5E" d="M455.99,46.389h-10.126c-0.499,0-0.902-0.403-0.902-0.903c0-0.499,0.403-0.903,0.902-0.903h10.126
		c0.499,0,0.902,0.404,0.902,0.903C456.893,45.985,456.489,46.389,455.99,46.389z"/>
	<path fill="#965E5E" d="M457.544,49.097h-9.105c-0.499,0-0.903-0.404-0.903-0.903c0-0.5,0.404-0.903,0.903-0.903h9.105
		c0.499,0,0.902,0.403,0.902,0.903C458.446,48.693,458.043,49.097,457.544,49.097z"/>
</g>
<g>
	<path fill="#A46F3E" d="M362.337,36.16c-0.03,5.641-1.217,11.56-7.913,18.257c-6.531,6.531-12.499,7.879-18.072,7.936
		c-0.476-0.058-1.477,0.014-1.477,0.014c-1.192,0.164-2.344,0.699-3.261,1.615c-2.18,2.181-2.228,5.68-0.153,7.924
		c0,0,0.523,0.508,0.718,0.658c6.691,5.453,20.292,1.464,31.074-9.317c10.781-10.781,14.77-24.383,9.317-31.073
		c-0.15-0.196-0.658-0.718-0.658-0.718c-2.245-2.074-5.744-2.027-7.924,0.153C362.744,32.854,362.193,34.532,362.337,36.16z"/>
	<path fill="#BF8555" d="M348.444,65.368c-0.4,0-0.78-0.231-0.952-0.619c-0.233-0.525,0.004-1.141,0.53-1.373
		c9.347-4.141,16.279-12.941,17.249-21.896c0.063-0.571,0.578-0.994,1.146-0.923c0.572,0.062,0.984,0.575,0.923,1.146
		c-1.063,9.82-8.314,19.073-18.475,23.574C348.727,65.34,348.584,65.368,348.444,65.368z"/>
	<path fill="#BF8555" d="M340.548,67.282c-0.561,0-1.023-0.446-1.04-1.012c-0.017-0.574,0.436-1.053,1.011-1.069
		c1.338-0.037,2.712-0.242,4.083-0.607c0.55-0.147,1.125,0.181,1.273,0.736c0.149,0.555-0.182,1.126-0.737,1.273
		c-1.526,0.408-3.059,0.635-4.56,0.679C340.569,67.282,340.559,67.282,340.548,67.282z"/>
	<path fill="#BF8555" d="M330.539,65.528l-4.214-3.16c-0.633-0.475-1.507,0.127-1.29,0.889l1.318,4.612
		c0.057,0.199,0.036,0.411-0.055,0.597l-0.997,1.992c-0.336,0.672,0.326,1.406,1.029,1.144l4.009-1.504
		C329.764,68.62,329.84,66.964,330.539,65.528z"/>
	<path fill="#BF8555" d="M365.521,30.545l-3.159-4.214c-0.475-0.633,0.127-1.508,0.888-1.29l4.613,1.318
		c0.198,0.057,0.411,0.036,0.596-0.055l1.993-0.997c0.672-0.336,1.406,0.326,1.144,1.029l-1.504,4.009
		C368.613,29.771,366.956,29.847,365.521,30.545z"/>
</g>
<g>
	<path fill="#3F2D20" d="M574.996,46.718c-0.092-1.851-0.897-3.647-2.414-5.357c-2.199-2.478-5.942-4.786-11.127-6.861
		c-4.562-1.826-9.449-2.791-14.135-2.791c-5.146,0-9.912,1.163-13.784,3.362c-0.294,0.151-2.467,1.314-4.548,3.692
		c-1.885,2.153-4.027,5.723-3.98,10.788c-0.006,0.046-0.01,7.462-0.008,7.488c0.35,4.639,2.668,8.186,6.529,9.988
		c1.822,0.851,3.928,1.264,6.074,1.264c3.288,0,6.667-0.97,9.248-2.819c6.786-4.863,11.814-6.327,16.814-4.896
		c3.282,0.939,5.977,0.765,8.008-0.521c1.764-1.116,2.911-3.014,3.318-5.486C575.002,54.511,575.002,46.764,574.996,46.718z
		 M572.88,54.306c-0.225,1.286-0.815,2.985-2.343,3.952c-1.497,0.947-3.611,1.039-6.285,0.274c-2.991-0.856-5.989-0.803-9.165,0.165
		c-2.848,0.867-5.946,2.518-9.474,5.046c-3.679,2.637-9.224,3.207-13.185,1.357c-2.198-1.026-4.89-3.265-5.297-8.098
		c0.612,0.895,1.349,1.689,2.21,2.366c2.17,1.703,5.11,2.641,8.281,2.641c3.357,0,6.721-1.033,9.228-2.834
		c5.21-3.745,9.257-5.415,13.119-5.415c1.23,0,2.422,0.17,3.642,0.521c1.367,0.393,2.651,0.592,3.813,0.592c0.001,0,0,0,0,0
		c2.28,0,4.14-0.757,5.455-2.161V54.306z M534.514,36.959c0.018-0.009,3.295-2.009,7.279-2.615l-14.608,16.314
		c-0.002-0.025-0.339-6.27,3.349-10.434C532.474,38.034,534.496,36.969,534.514,36.959z M570.658,42.415
		c1.726,1.791,2.459,3.642,2.152,5.512c-0.361,2.198-1.589,4.819-5.386,4.819c-0.964,0-2.05-0.171-3.227-0.51
		c-0.646-0.185-1.299-0.326-1.953-0.426L570.658,42.415z M559.544,51.64c-3.823,0.104-7.745,1.608-12.498,4.81l16.67-18.646
		c2.162,1.03,3.949,2.099,5.355,3.196L559.544,51.64z M541.619,59.327c-1.279,0.361-2.636,0.556-3.996,0.556
		c-1.435,0-2.916-0.228-4.299-0.736l22.02-24.352c1.801,0.425,3.586,0.985,5.321,1.68c0.346,0.138,0.682,0.278,1.014,0.418
		L541.619,59.327z M531.346,58.164c-1.628-1.054-2.957-2.637-3.662-4.875l17.341-19.366c0.754-0.056,1.52-0.087,2.296-0.087
		c1.844,0,3.722,0.161,5.598,0.472L531.346,58.164z"/>
	<g>
		<path fill="#CE593F" d="M571.402,43.273c-0.05-0.064-0.099-0.128-0.151-0.192C571.304,43.145,571.353,43.209,571.402,43.273z"/>
		<path fill="#CE593F" d="M571.093,42.895c-0.042-0.049-0.083-0.098-0.126-0.147C571.01,42.796,571.051,42.845,571.093,42.895z"/>
		<path fill="#CE593F" d="M571.673,43.638c-0.053-0.075-0.104-0.149-0.16-0.224C571.568,43.488,571.62,43.563,571.673,43.638z"/>
		<path fill="#CE593F" d="M572.776,46.095c-0.022-0.111-0.048-0.222-0.077-0.333C572.729,45.873,572.754,45.984,572.776,46.095z"/>
		<path fill="#CE593F" d="M563.103,51.969c-0.285-0.06-0.57-0.115-0.856-0.158C562.532,51.854,562.817,51.909,563.103,51.969z"/>
		<path fill="#CE593F" d="M571.91,43.995c-0.052-0.083-0.104-0.165-0.16-0.248C571.807,43.83,571.858,43.912,571.91,43.995z"/>
		<path fill="#CE593F" d="M572.777,46.101c0.112,0.566,0.129,1.136,0.049,1.707c-0.189-1.346-0.917-2.677-2.168-3.975l-7.328,8.184
			c-0.014-0.003-0.027-0.006-0.041-0.009c0.304,0.067,0.607,0.143,0.909,0.229c1.177,0.338,2.263,0.509,3.227,0.509
			c3.797,0,5.024-2.62,5.386-4.819C572.911,47.316,572.898,46.707,572.777,46.101z"/>
		<path fill="#CE593F" d="M572.695,45.749c-0.029-0.108-0.062-0.216-0.098-0.324C572.634,45.533,572.666,45.641,572.695,45.749z"/>
		<path fill="#CE593F" d="M572.119,44.347c-0.05-0.088-0.1-0.177-0.153-0.266C572.02,44.17,572.069,44.259,572.119,44.347z"/>
		<path fill="#CE593F" d="M572.59,45.401c-0.036-0.104-0.074-0.209-0.116-0.313C572.516,45.192,572.555,45.297,572.59,45.401z"/>
		<path fill="#CE593F" d="M572.302,44.701c-0.046-0.095-0.093-0.19-0.144-0.284C572.209,44.511,572.256,44.606,572.302,44.701z"/>
		<path fill="#CE593F" d="M572.459,45.052c-0.041-0.1-0.084-0.2-0.132-0.3C572.374,44.852,572.418,44.952,572.459,45.052z"/>
	</g>
	<path fill="#CE593F" d="M541.793,34.344l-2.061,2.301c-2.248,0.787-3.789,1.726-3.801,1.732c-0.019,0.009-2.04,1.075-3.98,3.266
		c-1.969,2.224-2.791,5.04-3.129,7.187L541.793,34.344z"/>
	<g>
		<path fill="#CE593F" d="M537.145,66.168c0.104,0.004,0.207,0.009,0.311,0.01C537.352,66.177,537.248,66.171,537.145,66.168z"/>
		<path fill="#CE593F" d="M533.33,65.466c-0.056-0.021-0.113-0.037-0.168-0.058C533.217,65.429,533.274,65.446,533.33,65.466z"/>
		<path fill="#CE593F" d="M528.053,58.162c-0.112-0.123-0.221-0.25-0.328-0.379C527.832,57.912,527.939,58.039,528.053,58.162z"/>
		<path fill="#CE593F" d="M528.26,58.383c0.102,0.105,0.205,0.208,0.312,0.31C528.465,58.591,528.361,58.488,528.26,58.383z"/>
		<path fill="#CE593F" d="M527.197,57.004c0.141,0.206,0.291,0.405,0.445,0.601C527.487,57.409,527.338,57.209,527.197,57.004
			L527.197,57.004z"/>
		<path fill="#CE593F" d="M534.98,65.92c-0.098-0.019-0.194-0.038-0.29-0.06C534.786,65.882,534.883,65.901,534.98,65.92z"/>
		<path fill="#CE593F" d="M567.442,54.749h-0.009c-1.162,0-2.45-0.138-3.818-0.53c-1.22-0.351-2.413-0.489-3.644-0.489
			c-3.862,0-7.909,1.686-13.12,5.431c-2.506,1.801-5.869,2.842-9.227,2.842c-3.172,0-6.113-0.935-8.283-2.638
			c-0.186-0.146-0.363-0.298-0.538-0.455c0.022,0.021,0.044,0.043,0.067,0.063c0.869,3.495,3.102,5.253,4.976,6.129
			c1.352,0.631,2.888,0.979,4.471,1.062c2.614-0.124,5.245-0.95,7.296-2.42c3.527-2.528,6.627-4.179,9.474-5.046
			c3.177-0.968,6.174-1.022,9.165-0.166c2.674,0.766,4.859,0.674,6.356-0.273c1.528-0.968,1.85-2.666,2.415-3.952v-1.594
			C571.468,54.116,569.723,54.749,567.442,54.749z"/>
		<path fill="#CE593F" d="M538.289,66.165c-0.088,0.004-0.174,0.003-0.262,0.006C538.115,66.168,538.201,66.169,538.289,66.165z"/>
		<path fill="#CE593F" d="M534.164,65.728c-0.083-0.022-0.168-0.044-0.25-0.068C533.996,65.684,534.081,65.705,534.164,65.728z"/>
		<path fill="#CE593F" d="M535.799,66.058c-0.104-0.015-0.207-0.029-0.311-0.046C535.592,66.028,535.695,66.043,535.799,66.058z"/>
		<path fill="#CE593F" d="M536.625,66.143c-0.107-0.008-0.213-0.019-0.319-0.028C536.412,66.124,536.518,66.135,536.625,66.143z"/>
	</g>
	<g>
		<polygon fill="#CE593F" points="545.024,33.923 527.684,53.289 527.684,53.289 		"/>
		<path fill="#CE593F" d="M547.32,35.253c-0.776,0-1.542,0.031-2.296,0.087l-16.962,18.943c0.752,1.72,1.909,2.992,3.283,3.881
			l20.441-22.606C550.288,35.358,548.793,35.253,547.32,35.253z"/>
		<path fill="#CE593F" d="M528.023,54.198c-0.031-0.073-0.062-0.148-0.092-0.224C527.962,54.05,527.992,54.125,528.023,54.198z"/>
	</g>
	<path fill="#CE593F" d="M560.753,37.927c-0.029-0.012-0.058-0.023-0.088-0.036c-1.735-0.694-3.521-1.255-5.321-1.679L534.322,59.46
		c-0.168-0.045-0.335-0.093-0.501-0.145c1.237,0.39,2.538,0.568,3.803,0.568c1.36,0,2.716-0.195,3.995-0.557l20.06-22.435
		L560.753,37.927z"/>
	<g>
		<path fill="#CE593F" d="M547.854,55.917c-0.268,0.172-0.536,0.349-0.809,0.532C547.318,56.266,547.587,56.089,547.854,55.917z"/>
		<path fill="#CE593F" d="M563.716,39.222l-13.818,15.456c-0.037,0.021-0.074,0.043-0.11,0.063c3.566-2.033,6.694-3.019,9.757-3.102
			l8.765-9.788C567.036,40.953,565.505,40.074,563.716,39.222z"/>
		<path fill="#CE593F" d="M549.41,54.96c-0.138,0.08-0.275,0.162-0.413,0.245C549.136,55.122,549.272,55.04,549.41,54.96z"/>
		<path fill="#CE593F" d="M548.64,55.422c-0.163,0.101-0.328,0.204-0.492,0.309C548.313,55.626,548.477,55.522,548.64,55.422z"/>
	</g>
</g>
<g>
	<path fill="#994530" d="M625.957,64.033c0,0,3.195,6.946,11.446,9.675c1.834,0.606,3.765,0.754,5.688,0.926
		c7.895,0.706,26.812-0.975,31.18-19.045c1.372-5.677,0.763-11.655-1.435-17.066c-3.163-7.791-10.252-17.771-24.922-11.087
		c-8.358,3.809-7.724,10.316-5.935,14.841c2.165,5.476-2.251,11.122-8.089,10.354C626.675,51.682,623.168,56.017,625.957,64.033z"/>
	<g>
		<path fill="#D75A4A" d="M629.707,62.316c0.403,0.787,3.069,5.572,9.145,7.581c1.34,0.442,2.873,0.579,4.498,0.723l0.283,0.025
			c0.821,0.073,1.704,0.11,2.627,0.11c18.246,0,22.938-11.259,24.107-16.1c1.139-4.71,0.709-9.739-1.239-14.542
			c-2.929-7.212-7.137-10.871-12.507-10.871c-2.218,0-4.7,0.618-7.376,1.837c-3.003,1.369-6.7,3.935-4.145,10.397
			c1.288,3.262,0.915,6.771-1.027,9.627c-2.178,3.202-6.023,4.919-9.931,4.405c-0.495-0.064-0.97-0.099-1.409-0.099
			c-1.081,0-2.512,0.198-3.185,1.146C628.779,57.643,628.837,59.735,629.707,62.316z"/>
		<path fill="#C64940" d="M646.262,71.76c-0.952,0-1.865-0.038-2.716-0.115l-0.284-0.024c-1.681-0.147-3.269-0.288-4.724-0.771
			c-6.399-2.115-9.222-7.099-9.723-8.076l-0.059-0.138c-0.987-2.928-0.997-5.292-0.026-6.659c0.916-1.289,2.9-1.813,5.544-1.461
			c3.551,0.468,6.985-1.058,8.969-3.976c1.753-2.574,2.09-5.744,0.925-8.692c-3.201-8.095,2.717-10.793,4.662-11.681
			c9.715-4.423,16.871-1.159,21.229,9.57c2.028,4.999,2.473,10.239,1.284,15.154C670.117,59.964,665.22,71.76,646.262,71.76z
			 M630.634,61.922c0.402,0.761,2.946,5.174,8.534,7.022c1.233,0.407,2.709,0.538,4.271,0.675l0.285,0.025
			c0.791,0.07,1.645,0.106,2.536,0.106c17.532,0,22.018-10.722,23.132-15.332c1.088-4.503,0.675-9.32-1.194-13.928
			c-2.761-6.797-6.656-10.243-11.577-10.243c-2.074,0-4.416,0.587-6.959,1.746c-3.031,1.381-5.831,3.545-3.629,9.116
			c1.414,3.576,1.002,7.425-1.13,10.56c-2.412,3.547-6.587,5.406-10.892,4.836c-1.8-0.237-3.208,0.019-3.646,0.634
			C629.93,57.755,629.773,59.332,630.634,61.922z"/>
	</g>
	<g>
		<circle fill="#E6E6E6" cx="657.573" cy="37.825" r="4.015"/>
		<path fill="#7A3726" d="M657.573,42.844c-2.767,0-5.018-2.251-5.018-5.019s2.251-5.018,5.018-5.018
			c2.768,0,5.019,2.251,5.019,5.018S660.341,42.844,657.573,42.844z M657.573,34.814c-1.659,0-3.011,1.351-3.011,3.011
			s1.352,3.011,3.011,3.011c1.66,0,3.012-1.351,3.012-3.011S659.233,34.814,657.573,34.814z"/>
	</g>
	<path fill="#C64940" d="M650.711,70.851l-1.948-0.48c0.437-1.768-1.067-3.228-3.459-4.877c-2.885-1.991-4.834-5.136-5.346-8.626
		c-0.188-1.271-0.427-2.293-0.43-2.304l1.929-0.55c0.01,0.028,1.094,3.115,3.992,4.33c2.102,0.88,4.685,0.6,7.677-0.835
		c11.62-5.574,17.164-2.656,17.395-2.529l-0.971,1.758c-0.04-0.021-4.987-2.488-15.556,2.58c-3.543,1.7-6.687,1.991-9.347,0.866
		c-0.804-0.341-1.495-0.782-2.085-1.271c0.771,1.981,2.117,3.709,3.881,4.926C648.233,65.077,651.568,67.376,650.711,70.851z"/>
	<path fill="#C64940" d="M652.173,52.687c-5.39,0-7.633-3.708-7.661-3.753l1.733-1.014l-0.866,0.507l0.862-0.514
		c0.108,0.18,2.725,4.352,9.773,2.113c1.546-0.797,12.082-6.024,15.677-2.298l-1.444,1.395c-1.986-2.06-9.263,0.578-13.381,2.724
		l-0.154,0.064C655.001,52.464,653.493,52.687,652.173,52.687z"/>
</g>
</svg>
